Kreon-Bold.ufo
<glyph name="exclam" format="1">
  <advance width="276"/>
  <unicode hex="0021"/>
  <outline>
    <contour>
      <point x="175" y="247" type="line" name="hr00"/>
      <point x="223" y="651" type="line"/>
      <point x="202" y="689" type="line"/>
      <point x="58" y="675" type="line"/>
      <point x="97" y="247" type="line"/>
    </contour>
    <contour>
      <point x="70" y="63" type="curve" smooth="yes"/>
      <point x="70" y="26"/>
      <point x="101" y="-4"/>
      <point x="138" y="-4" type="curve" smooth="yes" name="hr01"/>
      <point x="174" y="-4"/>
      <point x="204" y="26"/>
      <point x="204" y="63" type="curve" smooth="yes"/>
      <point x="204" y="100"/>
      <point x="174" y="129"/>
      <point x="138" y="129" type="curve" smooth="yes"/>
      <point x="101" y="129"/>
      <point x="70" y="100"/>
    </contour>
  </outline>
</glyph>
<glyph name="quotedbl" format="1">
  <advance width="371"/>
  <unicode hex="0022"/>
  <outline>
    <contour>
      <point x="64" y="442" type="line" name="hr00"/>
      <point x="139" y="442" type="line"/>
      <point x="168" y="669" type="line"/>
      <point x="151" y="699" type="line"/>
      <point x="28" y="689" type="line"/>
    </contour>
    <contour>
      <point x="235" y="442" type="line"/>
      <point x="310" y="442" type="line"/>
      <point x="339" y="669" type="line"/>
      <point x="322" y="699" type="line"/>
      <point x="199" y="689" type="line"/>
    </contour>
  </outline>
</glyph>
<glyph name="numbersign" format="1">
  <advance width="675"/>
  <unicode hex="0023"/>
  <outline>
    <contour>
      <point x="404" y="656" type="line" name="hr00"/>
      <point x="390" y="670" type="line"/>
      <point x="281" y="670" type="line"/>
      <point x="228" y="512" type="line"/>
      <point x="78" y="512" type="line"/>
      <point x="60" y="479" type="line"/>
      <point x="78" y="407" type="line"/>
      <point x="192" y="407" type="line"/>
      <point x="152" y="288" type="line"/>
      <point x="47" y="288" type="line"/>
      <point x="29" y="254" type="line"/>
      <point x="47" y="183" type="line" name="hr01"/>
      <point x="117" y="183" type="line"/>
      <point x="76" y="61" type="line"/>
      <point x="92" y="48" type="line" name="hr02"/>
      <point x="199" y="48" type="line"/>
      <point x="244" y="183" type="line" name="hr03"/>
      <point x="326" y="183" type="line"/>
      <point x="286" y="61" type="line"/>
      <point x="302" y="48" type="line" name="hr04"/>
      <point x="409" y="48" type="line"/>
      <point x="453" y="183" type="line" name="hr05"/>
      <point x="600" y="183" type="line"/>
      <point x="600" y="279" type="line" smooth="yes"/>
      <point x="600" y="285"/>
      <point x="598" y="288"/>
      <point x="594" y="288" type="curve" smooth="yes"/>
      <point x="487" y="288" type="line"/>
      <point x="526" y="407" type="line"/>
      <point x="642" y="407" type="line"/>
      <point x="642" y="504" type="line" smooth="yes"/>
      <point x="642" y="509"/>
      <point x="640" y="512"/>
      <point x="636" y="512" type="curve" smooth="yes"/>
      <point x="561" y="512" type="line"/>
      <point x="608" y="656" type="line"/>
      <point x="595" y="670" type="line"/>
      <point x="485" y="670" type="line"/>
      <point x="433" y="512" type="line"/>
      <point x="355" y="512" type="line"/>
    </contour>
    <contour>
      <point x="320" y="407" type="line"/>
      <point x="399" y="407" type="line"/>
      <point x="360" y="288" type="line"/>
      <point x="280" y="288" type="line"/>
    </contour>
  </outline>
</glyph>
<glyph name="dollar" format="1">
  <advance width="511"/>
  <unicode hex="0024"/>
  <outline>
    <contour>
      <point x="313" y="-154" type="line" name="hr00"/>
      <point x="313" y="2" type="line"/>
      <point x="406" y="20"/>
      <point x="481" y="82"/>
      <point x="481" y="203" type="curve" smooth="yes"/>
      <point x="481" y="290"/>
      <point x="419" y="349"/>
      <point x="324" y="397" type="curve" smooth="yes"/>
      <point x="233" y="443"/>
      <point x="174" y="456"/>
      <point x="174" y="513" type="curve" smooth="yes"/>
      <point x="174" y="565"/>
      <point x="213" y="588"/>
      <point x="270" y="588" type="curve" smooth="yes"/>
      <point x="302" y="588"/>
      <point x="321" y="583"/>
      <point x="338" y="577" type="curve"/>
      <point x="383" y="474" type="line"/>
      <point x="467" y="474" type="line"/>
      <point x="452" y="661" type="line"/>
      <point x="409" y="678"/>
      <point x="367" y="688"/>
      <point x="313" y="692" type="curve"/>
      <point x="313" y="807" type="line" name="hr01"/>
      <point x="214" y="807" type="line"/>
      <point x="214" y="688" type="line"/>
      <point x="116" y="671"/>
      <point x="37" y="610"/>
      <point x="37" y="503" type="curve" smooth="yes"/>
      <point x="37" y="384"/>
      <point x="119" y="339"/>
      <point x="226" y="295" type="curve" smooth="yes"/>
      <point x="281" y="272"/>
      <point x="344" y="244"/>
      <point x="344" y="191" type="curve" smooth="yes"/>
      <point x="344" y="133"/>
      <point x="306" y="101"/>
      <point x="243" y="101" type="curve" smooth="yes"/>
      <point x="204" y="101"/>
      <point x="167" y="110"/>
      <point x="151" y="115" type="curve"/>
      <point x="120" y="232" type="line"/>
      <point x="33" y="232" type="line"/>
      <point x="47" y="42" type="line"/>
      <point x="92" y="24"/>
      <point x="150" y="3"/>
      <point x="214" y="-2" type="curve"/>
      <point x="214" y="-154" type="line"/>
    </contour>
  </outline>
</glyph>
<glyph name="percent" format="1">
  <advance width="823"/>
  <unicode hex="0025"/>
  <outline>
    <contour>
      <point x="581" y="180" type="curve" smooth="yes" name="hr00"/>
      <point x="581" y="229"/>
      <point x="597" y="268"/>
      <point x="631" y="268" type="curve" smooth="yes"/>
      <point x="664" y="268"/>
      <point x="681" y="229"/>
      <point x="681" y="180" type="curve" smooth="yes"/>
      <point x="681" y="130"/>
      <point x="664" y="90"/>
      <point x="631" y="90" type="curve" smooth="yes"/>
      <point x="597" y="90"/>
      <point x="581" y="130"/>
    </contour>
    <contour>
      <point x="465" y="180" type="curve" smooth="yes"/>
      <point x="465" y="76"/>
      <point x="535" y="-4"/>
      <point x="631" y="-4" type="curve" smooth="yes"/>
      <point x="726" y="-4"/>
      <point x="795" y="76"/>
      <point x="795" y="180" type="curve" smooth="yes"/>
      <point x="795" y="293"/>
      <point x="726" y="362"/>
      <point x="631" y="362" type="curve" smooth="yes"/>
      <point x="535" y="362"/>
      <point x="465" y="283"/>
    </contour>
    <contour>
      <point x="698" y="677" type="line"/>
      <point x="688" y="691" type="line"/>
      <point x="564" y="691" type="line"/>
      <point x="120" y="13" type="line"/>
      <point x="130" y="0" type="line" name="hr01"/>
      <point x="254" y="0" type="line"/>
    </contour>
    <contour>
      <point x="144" y="517" type="curve" smooth="yes"/>
      <point x="144" y="566"/>
      <point x="160" y="605"/>
      <point x="194" y="605" type="curve" smooth="yes"/>
      <point x="227" y="605"/>
      <point x="244" y="566"/>
      <point x="244" y="517" type="curve" smooth="yes"/>
      <point x="244" y="467"/>
      <point x="227" y="427"/>
      <point x="194" y="427" type="curve" smooth="yes"/>
      <point x="160" y="427"/>
      <point x="144" y="467"/>
    </contour>
    <contour>
      <point x="28" y="517" type="curve" smooth="yes"/>
      <point x="28" y="413"/>
      <point x="98" y="333"/>
      <point x="194" y="333" type="curve" smooth="yes"/>
      <point x="289" y="333"/>
      <point x="358" y="413"/>
      <point x="358" y="517" type="curve" smooth="yes"/>
      <point x="358" y="630"/>
      <point x="289" y="699"/>
      <point x="194" y="699" type="curve" smooth="yes"/>
      <point x="98" y="699"/>
      <point x="28" y="620"/>
    </contour>
  </outline>
</glyph>
<glyph name="ampersand" format="1">
  <advance width="710"/>
  <unicode hex="0026"/>
  <outline>
    <contour>
      <point x="594" y="399" type="line" name="hr00"/>
      <point x="403" y="399" type="line"/>
      <point x="424" y="314" type="line"/>
      <point x="471" y="314" type="line"/>
      <point x="466" y="288"/>
      <point x="458" y="263"/>
      <point x="447" y="240" type="curve"/>
      <point x="381" y="308"/>
      <point x="354" y="340"/>
      <point x="322" y="378" type="curve"/>
      <point x="392" y="439"/>
      <point x="439" y="509"/>
      <point x="439" y="587" type="curve" smooth="yes"/>
      <point x="439" y="675"/>
      <point x="380" y="735"/>
      <point x="276" y="735" type="curve" smooth="yes"/>
      <point x="124" y="735"/>
      <point x="88" y="634"/>
      <point x="88" y="555" type="curve" smooth="yes"/>
      <point x="88" y="496"/>
      <point x="112" y="446"/>
      <point x="144" y="400" type="curve"/>
      <point x="86" y="359"/>
      <point x="28" y="301"/>
      <point x="28" y="209" type="curve" smooth="yes" name="hr01"/>
      <point x="28" y="59"/>
      <point x="149" y="-4"/>
      <point x="274" y="-4" type="curve" smooth="yes"/>
      <point x="351" y="-4"/>
      <point x="406" y="21"/>
      <point x="446" y="53" type="curve"/>
      <point x="486" y="13"/>
      <point x="539" y="-2"/>
      <point x="593" y="-2" type="curve" smooth="yes" name="hr02"/>
      <point x="666" y="-2"/>
      <point x="700" y="27"/>
      <point x="718" y="52" type="curve"/>
      <point x="642" y="148" type="line"/>
      <point x="598" y="99" type="line"/>
      <point x="589" y="104"/>
      <point x="563" y="127"/>
      <point x="531" y="157" type="curve"/>
      <point x="535" y="165" type="line" smooth="yes"/>
      <point x="585" y="252"/>
      <point x="603" y="343"/>
      <point x="609" y="383" type="curve"/>
    </contour>
    <contour>
      <point x="252" y="265" type="line"/>
      <point x="282" y="224"/>
      <point x="325" y="174"/>
      <point x="367" y="130" type="curve"/>
      <point x="340" y="108"/>
      <point x="310" y="96"/>
      <point x="279" y="96" type="curve" smooth="yes" name="hr03"/>
      <point x="205" y="96"/>
      <point x="159" y="150"/>
      <point x="159" y="210" type="curve" smooth="yes"/>
      <point x="159" y="256"/>
      <point x="177" y="290"/>
      <point x="208" y="320" type="curve" name="hr04"/>
    </contour>
    <contour>
      <point x="208" y="575" type="curve" smooth="yes"/>
      <point x="208" y="609"/>
      <point x="228" y="635"/>
      <point x="263" y="635" type="curve" smooth="yes"/>
      <point x="296" y="635"/>
      <point x="316" y="612"/>
      <point x="316" y="580" type="curve" smooth="yes"/>
      <point x="316" y="541"/>
      <point x="289" y="505"/>
      <point x="252" y="471" type="curve"/>
      <point x="220" y="519"/>
      <point x="208" y="550"/>
    </contour>
  </outline>
</glyph>
<glyph name="parenright" format="1">
  <advance width="311"/>
  <unicode hex="0029"/>
  <outline>
    <contour>
      <point x="154" y="-162" type="line" name="hr00"/>
      <point x="184" y="-100"/>
      <point x="264" y="69"/>
      <point x="264" y="290" type="curve" smooth="yes"/>
      <point x="264" y="510"/>
      <point x="195" y="671"/>
      <point x="154" y="742" type="curve"/>
      <point x="28" y="742" type="line"/>
      <point x="72" y="661"/>
      <point x="127" y="501"/>
      <point x="127" y="291" type="curve" smooth="yes"/>
      <point x="127" y="81"/>
      <point x="60" y="-84"/>
      <point x="28" y="-162" type="curve"/>
    </contour>
  </outline>
</glyph>
<glyph name="asterisk" format="1">
  <advance width="367"/>
  <unicode hex="002A"/>
  <outline>
    <contour>
      <point x="227" y="712" type="line" name="hr00"/>
      <point x="204" y="736" type="line"/>
      <point x="140" y="715" type="line"/>
      <point x="161" y="607" type="line"/>
      <point x="81" y="677" type="line"/>
      <point x="48" y="669" type="line"/>
      <point x="35" y="602" type="line"/>
      <point x="137" y="566" type="line"/>
      <point x="38" y="533" type="line"/>
      <point x="27" y="501" type="line"/>
      <point x="80" y="456" type="line"/>
      <point x="161" y="527" type="line"/>
      <point x="141" y="424" type="line"/>
      <point x="164" y="400" type="line"/>
      <point x="227" y="421" type="line"/>
      <point x="206" y="528" type="line"/>
      <point x="287" y="459" type="line"/>
      <point x="319" y="468" type="line"/>
      <point x="334" y="532" type="line"/>
      <point x="225" y="568" type="line"/>
      <point x="329" y="602" type="line"/>
      <point x="339" y="635" type="line"/>
      <point x="289" y="679" type="line"/>
      <point x="206" y="608" type="line"/>
    </contour>
    <contour>
      <point x="174" y="566" type="line"/>
      <point x="179" y="575" type="line"/>
      <point x="188" y="576" type="line"/>
      <point x="193" y="567" type="line"/>
      <point x="189" y="560" type="line"/>
      <point x="178" y="559" type="line"/>
    </contour>
  </outline>
</glyph>
<glyph name="plus" format="1">
  <advance width="431"/>
  <unicode hex="002B"/>
  <outline>
    <contour>
      <point x="171" y="558" type="line" name="hr00"/>
      <point x="171" y="400" type="line"/>
      <point x="36" y="400" type="line"/>
      <point x="29" y="387" type="line"/>
      <point x="29" y="314" type="line"/>
      <point x="171" y="314" type="line"/>
      <point x="171" y="148" type="line"/>
      <point x="184" y="141" type="line"/>
      <point x="258" y="141" type="line"/>
      <point x="258" y="314" type="line"/>
      <point x="400" y="314" type="line"/>
      <point x="400" y="400" type="line"/>
      <point x="258" y="400" type="line"/>
      <point x="258" y="558" type="line"/>
    </contour>
  </outline>
</glyph>
<glyph name="comma" format="1">
  <advance width="234"/>
  <unicode hex="002C"/>
  <outline>
    <contour>
      <point x="19" y="-134" type="line" name="hr00"/>
      <point x="103" y="-173" type="line"/>
      <point x="140" y="-126"/>
      <point x="186" y="-41"/>
      <point x="186" y="47" type="curve" smooth="yes"/>
      <point x="186" y="88"/>
      <point x="180" y="123"/>
      <point x="178" y="133" type="curve"/>
      <point x="41" y="114" type="line"/>
      <point x="67" y="-11" type="line"/>
      <point x="16" y="-123" type="line"/>
    </contour>
  </outline>
</glyph>
<glyph name="period" format="1">
  <advance width="211"/>
  <unicode hex="002E"/>
  <outline>
    <contour>
      <point x="38" y="63" type="curve" smooth="yes" name="hr00"/>
      <point x="38" y="26"/>
      <point x="69" y="-4"/>
      <point x="105" y="-4" type="curve" smooth="yes"/>
      <point x="142" y="-4"/>
      <point x="172" y="26"/>
      <point x="172" y="63" type="curve" smooth="yes"/>
      <point x="172" y="100"/>
      <point x="142" y="129"/>
      <point x="105" y="129" type="curve" smooth="yes"/>
      <point x="69" y="129"/>
      <point x="38" y="100"/>
    </contour>
  </outline>
</glyph>
<glyph name="slash" format="1">
  <advance width="486"/>
  <unicode hex="002F"/>
  <outline>
    <contour>
      <point x="465" y="677" type="line" name="hr00"/>
      <point x="466" y="691" type="line"/>
      <point x="338" y="691" type="line"/>
      <point x="20" y="13" type="line"/>
      <point x="23" y="0" type="line"/>
      <point x="148" y="0" type="line"/>
    </contour>
  </outline>
</glyph>
<glyph name="zero" format="1">
  <advance width="590"/>
  <unicode hex="0030"/>
  <outline>
    <contour>
      <point x="37" y="343" type="curve" smooth="yes" name="hr00"/>
      <point x="37" y="171"/>
      <point x="105" y="-4"/>
      <point x="294" y="-4" type="curve" smooth="yes"/>
      <point x="483" y="-4"/>
      <point x="553" y="171"/>
      <point x="553" y="343" type="curve" smooth="yes"/>
      <point x="553" y="516"/>
      <point x="483" y="690"/>
      <point x="294" y="690" type="curve" smooth="yes"/>
      <point x="105" y="690"/>
      <point x="37" y="516"/>
    </contour>
    <contour>
      <point x="175" y="343" type="curve" smooth="yes"/>
      <point x="175" y="442"/>
      <point x="192" y="585"/>
      <point x="294" y="585" type="curve" smooth="yes"/>
      <point x="397" y="585"/>
      <point x="415" y="442"/>
      <point x="415" y="343" type="curve" smooth="yes"/>
      <point x="415" y="245"/>
      <point x="397" y="101"/>
      <point x="294" y="101" type="curve" smooth="yes"/>
      <point x="192" y="101"/>
      <point x="175" y="245"/>
    </contour>
  </outline>
</glyph>
<glyph name="one" format="1">
  <advance width="365"/>
  <unicode hex="0031"/>
  <outline>
    <contour>
      <point x="37" y="1" type="line" name="hr00"/>
      <point x="346" y="1" type="line"/>
      <point x="346" y="12"/>
      <point x="349" y="63"/>
      <point x="349" y="80" type="curve"/>
      <point x="264" y="93" type="line"/>
      <point x="264" y="685" type="line"/>
      <point x="249" y="694" type="line"/>
      <point x="20" y="625" type="line"/>
      <point x="40" y="538" type="line"/>
      <point x="133" y="555" type="line"/>
      <point x="133" y="98" type="line"/>
      <point x="34" y="83" type="line"/>
    </contour>
  </outline>
</glyph>
<glyph name="two" format="1">
  <advance width="538"/>
  <unicode hex="0032"/>
  <outline>
    <contour>
      <point x="488" y="0" type="line" name="hr00"/>
      <point x="510" y="215" type="line"/>
      <point x="432" y="215" type="line"/>
      <point x="391" y="105" type="line" name="hr01"/>
      <point x="204" y="105" type="line"/>
      <point x="267" y="168"/>
      <point x="470" y="345"/>
      <point x="470" y="500" type="curve" smooth="yes"/>
      <point x="470" y="637"/>
      <point x="358" y="689"/>
      <point x="266" y="689" type="curve" smooth="yes"/>
      <point x="152" y="689"/>
      <point x="62" y="621"/>
      <point x="14" y="535" type="curve"/>
      <point x="142" y="470" type="line"/>
      <point x="186" y="574" type="line"/>
      <point x="201" y="580"/>
      <point x="219" y="584"/>
      <point x="246" y="584" type="curve" smooth="yes"/>
      <point x="295" y="584"/>
      <point x="332" y="559"/>
      <point x="332" y="496" type="curve" smooth="yes"/>
      <point x="332" y="369"/>
      <point x="95" y="149"/>
      <point x="38" y="81" type="curve"/>
      <point x="53" y="0" type="line"/>
    </contour>
  </outline>
</glyph>
<glyph name="three" format="1">
  <advance width="522"/>
  <unicode hex="0033"/>
  <outline>
    <contour>
      <point x="25" y="73" type="line" name="hr00"/>
      <point x="57" y="40"/>
      <point x="131" y="-4"/>
      <point x="253" y="-4" type="curve" smooth="yes"/>
      <point x="360" y="-4"/>
      <point x="484" y="62"/>
      <point x="484" y="201" type="curve" smooth="yes"/>
      <point x="484" y="301"/>
      <point x="408" y="340"/>
      <point x="357" y="349" type="curve"/>
      <point x="427" y="362"/>
      <point x="470" y="433"/>
      <point x="470" y="505" type="curve" smooth="yes" name="hr01"/>
      <point x="470" y="632"/>
      <point x="359" y="690"/>
      <point x="264" y="690" type="curve" smooth="yes"/>
      <point x="138" y="690"/>
      <point x="66" y="623"/>
      <point x="17" y="535" type="curve"/>
      <point x="138" y="470" type="line"/>
      <point x="184" y="578" type="line"/>
      <point x="197" y="583"/>
      <point x="221" y="585"/>
      <point x="247" y="585" type="curve" smooth="yes"/>
      <point x="279" y="585"/>
      <point x="331" y="563"/>
      <point x="331" y="500" type="curve" smooth="yes"/>
      <point x="331" y="432"/>
      <point x="283" y="395"/>
      <point x="182" y="395" type="curve" smooth="yes"/>
      <point x="135" y="395" type="line"/>
      <point x="135" y="290" type="line"/>
      <point x="202" y="290" type="line" smooth="yes"/>
      <point x="327" y="290"/>
      <point x="346" y="227"/>
      <point x="346" y="191" type="curve" smooth="yes" name="hr02"/>
      <point x="346" y="174"/>
      <point x="338" y="100"/>
      <point x="250" y="100" type="curve" smooth="yes"/>
      <point x="186" y="100"/>
      <point x="138" y="136"/>
      <point x="96" y="176" type="curve"/>
    </contour>
  </outline>
</glyph>
<glyph name="four" format="1">
  <advance width="539"/>
  <unicode hex="0034"/>
  <outline>
    <contour>
      <point x="152" y="0" type="line" name="hr00"/>
      <point x="503" y="0" type="line"/>
      <point x="500" y="9"/>
      <point x="500" y="63"/>
      <point x="500" y="81" type="curve"/>
      <point x="425" y="94" type="line"/>
      <point x="425" y="187" type="line"/>
      <point x="503" y="187" type="line"/>
      <point x="503" y="292" type="line"/>
      <point x="425" y="292" type="line"/>
      <point x="425" y="691" type="line"/>
      <point x="278" y="691" type="line"/>
      <point x="-5" y="275" type="line"/>
      <point x="33" y="187" type="line"/>
      <point x="295" y="187" type="line"/>
      <point x="295" y="98" type="line"/>
      <point x="152" y="83" type="line"/>
    </contour>
    <contour>
      <point x="117" y="292" type="line"/>
      <point x="295" y="549" type="line"/>
      <point x="295" y="292" type="line"/>
    </contour>
  </outline>
</glyph>
<glyph name="five" format="1">
  <advance width="517"/>
  <unicode hex="0035"/>
  <outline>
    <contour>
      <point x="74" y="658" type="line" name="hr00"/>
      <point x="74" y="355" type="line"/>
      <point x="110" y="365"/>
      <point x="134" y="372"/>
      <point x="187" y="372" type="curve" smooth="yes"/>
      <point x="266" y="372"/>
      <point x="345" y="327"/>
      <point x="345" y="237" type="curve" smooth="yes"/>
      <point x="345" y="157"/>
      <point x="285" y="100"/>
      <point x="209" y="100" type="curve" smooth="yes"/>
      <point x="149" y="100"/>
      <point x="97" y="140"/>
      <point x="71" y="171" type="curve"/>
      <point x="11" y="73" type="line"/>
      <point x="43" y="41"/>
      <point x="111" y="-4"/>
      <point x="220" y="-4" type="curve" smooth="yes"/>
      <point x="371" y="-4"/>
      <point x="483" y="85"/>
      <point x="483" y="240" type="curve" smooth="yes"/>
      <point x="483" y="383"/>
      <point x="385" y="472"/>
      <point x="241" y="472" type="curve" smooth="yes"/>
      <point x="229" y="472"/>
      <point x="217" y="471"/>
      <point x="205" y="470" type="curve"/>
      <point x="205" y="585" type="line"/>
      <point x="467" y="585" type="line"/>
      <point x="467" y="691" type="line"/>
      <point x="104" y="691" type="line"/>
    </contour>
  </outline>
</glyph>
<glyph name="six" format="1">
  <advance width="554"/>
  <unicode hex="0036"/>
  <outline>
    <contour>
      <point x="317" y="692" type="curve" name="hr00"/>
      <point x="148" y="690"/>
      <point x="36" y="539"/>
      <point x="36" y="350" type="curve" smooth="yes"/>
      <point x="36" y="172"/>
      <point x="99" y="-4"/>
      <point x="294" y="-4" type="curve" smooth="yes"/>
      <point x="435" y="-4"/>
      <point x="522" y="86"/>
      <point x="522" y="222" type="curve" smooth="yes"/>
      <point x="522" y="370"/>
      <point x="411" y="434"/>
      <point x="316" y="434" type="curve" smooth="yes"/>
      <point x="259" y="434"/>
      <point x="202" y="412"/>
      <point x="172" y="378" type="curve"/>
      <point x="181" y="521"/>
      <point x="251" y="587"/>
      <point x="309" y="587" type="curve" smooth="yes"/>
      <point x="328" y="587"/>
      <point x="340" y="585"/>
      <point x="349" y="582" type="curve"/>
      <point x="398" y="514" type="line"/>
      <point x="513" y="588" type="line"/>
      <point x="491" y="619"/>
      <point x="440" y="692"/>
    </contour>
    <contour>
      <point x="288" y="327" type="curve" smooth="yes"/>
      <point x="332" y="327"/>
      <point x="385" y="288"/>
      <point x="385" y="216" type="curve" smooth="yes"/>
      <point x="385" y="151"/>
      <point x="359" y="101"/>
      <point x="292" y="101" type="curve" smooth="yes"/>
      <point x="239" y="101"/>
      <point x="206" y="146"/>
      <point x="189" y="207" type="curve" name="hr01"/>
      <point x="189" y="290"/>
      <point x="235" y="327"/>
    </contour>
  </outline>
</glyph>
<glyph name="seven" format="1">
  <advance width="455"/>
  <unicode hex="0037"/>
  <outline>
    <contour>
      <point x="324" y="567" type="line" name="hr00"/>
      <point x="104" y="20" type="line"/>
      <point x="115" y="0" type="line"/>
      <point x="251" y="0" type="line"/>
      <point x="458" y="665" type="line"/>
      <point x="440" y="691" type="line"/>
      <point x="24" y="691" type="line"/>
      <point x="24" y="454" type="line"/>
      <point x="108" y="454" type="line"/>
      <point x="129" y="567" type="line" name="hr01"/>
    </contour>
  </outline>
</glyph>
<glyph name="eight" format="1">
  <advance width="545"/>
  <unicode hex="0038"/>
  <outline>
    <contour>
      <point x="69" y="526" type="curve" smooth="yes" name="hr00"/>
      <point x="69" y="646"/>
      <point x="182" y="696"/>
      <point x="276" y="696" type="curve" smooth="yes"/>
      <point x="372" y="696"/>
      <point x="480" y="648"/>
      <point x="480" y="528" type="curve" smooth="yes"/>
      <point x="480" y="462"/>
      <point x="437" y="413"/>
      <point x="384" y="374" type="curve"/>
      <point x="452" y="338"/>
      <point x="512" y="290"/>
      <point x="512" y="194" type="curve" smooth="yes"/>
      <point x="512" y="64"/>
      <point x="395" y="-5"/>
      <point x="270" y="-5" type="curve" smooth="yes" name="hr01"/>
      <point x="145" y="-5"/>
      <point x="33" y="59"/>
      <point x="33" y="184" type="curve" smooth="yes"/>
      <point x="33" y="267"/>
      <point x="76" y="337"/>
      <point x="149" y="376" type="curve"/>
      <point x="103" y="409"/>
      <point x="69" y="453"/>
    </contour>
    <contour>
      <point x="171" y="197" type="curve" smooth="yes"/>
      <point x="171" y="109"/>
      <point x="253" y="100"/>
      <point x="273" y="100" type="curve" smooth="yes" name="hr02"/>
      <point x="312" y="100"/>
      <point x="374" y="124"/>
      <point x="374" y="198" type="curve" smooth="yes"/>
      <point x="374" y="260"/>
      <point x="316" y="289"/>
      <point x="251" y="320" type="curve" name="hr03"/>
      <point x="203" y="288"/>
      <point x="171" y="244"/>
    </contour>
    <contour>
      <point x="355" y="532" type="curve" smooth="yes"/>
      <point x="355" y="572"/>
      <point x="329" y="610"/>
      <point x="275" y="610" type="curve" smooth="yes"/>
      <point x="223" y="610"/>
      <point x="195" y="575"/>
      <point x="195" y="533" type="curve" smooth="yes" name="hr04"/>
      <point x="195" y="481"/>
      <point x="233" y="451"/>
      <point x="282" y="424" type="curve"/>
      <point x="317" y="450"/>
      <point x="355" y="487"/>
    </contour>
  </outline>
</glyph>
<glyph name="nine" format="1">
  <advance width="543"/>
  <unicode hex="0039"/>
  <outline>
    <contour>
      <point x="234" y="-4" type="curve" smooth="yes" name="hr00"/>
      <point x="409" y="-4"/>
      <point x="506" y="149"/>
      <point x="506" y="338" type="curve" smooth="yes"/>
      <point x="506" y="529"/>
      <point x="439" y="691"/>
      <point x="271" y="691" type="curve" smooth="yes"/>
      <point x="113" y="691"/>
      <point x="39" y="584"/>
      <point x="39" y="458" type="curve" smooth="yes"/>
      <point x="39" y="320"/>
      <point x="129" y="249"/>
      <point x="253" y="249" type="curve" smooth="yes"/>
      <point x="285" y="249"/>
      <point x="332" y="259"/>
      <point x="367" y="289" type="curve"/>
      <point x="361" y="176"/>
      <point x="330" y="105"/>
      <point x="243" y="101" type="curve"/>
      <point x="183" y="103"/>
      <point x="138" y="130"/>
      <point x="98" y="167" type="curve"/>
      <point x="27" y="73" type="line"/>
      <point x="60" y="41"/>
      <point x="136" y="-4"/>
    </contour>
    <contour>
      <point x="262" y="354" type="curve" smooth="yes"/>
      <point x="203" y="354"/>
      <point x="175" y="403"/>
      <point x="175" y="467" type="curve" smooth="yes"/>
      <point x="175" y="519"/>
      <point x="197" y="586"/>
      <point x="262" y="586" type="curve" smooth="yes"/>
      <point x="337" y="586"/>
      <point x="360" y="515"/>
      <point x="366" y="427" type="curve"/>
      <point x="347" y="380"/>
      <point x="301" y="354"/>
    </contour>
  </outline>
</glyph>
<glyph name="colon" format="1">
  <advance width="241"/>
  <unicode hex="003A"/>
  <outline>
    <contour>
      <point x="54" y="193" type="curve" smooth="yes" name="hr00"/>
      <point x="54" y="156"/>
      <point x="85" y="126"/>
      <point x="122" y="126" type="curve" smooth="yes"/>
      <point x="158" y="126"/>
      <point x="188" y="156"/>
      <point x="188" y="193" type="curve" smooth="yes"/>
      <point x="188" y="230"/>
      <point x="158" y="259"/>
      <point x="122" y="259" type="curve" smooth="yes"/>
      <point x="85" y="259"/>
      <point x="54" y="230"/>
    </contour>
    <contour>
      <point x="54" y="455" type="curve" smooth="yes"/>
      <point x="54" y="419"/>
      <point x="85" y="388"/>
      <point x="122" y="388" type="curve" smooth="yes"/>
      <point x="158" y="388"/>
      <point x="188" y="419"/>
      <point x="188" y="455" type="curve" smooth="yes"/>
      <point x="188" y="492"/>
      <point x="158" y="522"/>
      <point x="122" y="522" type="curve" smooth="yes"/>
      <point x="85" y="522"/>
      <point x="54" y="492"/>
    </contour>
  </outline>
</glyph>
<glyph name="semicolon" format="1">
  <advance width="248"/>
  <unicode hex="003B"/>
  <outline>
    <contour>
      <point x="27" y="-134" type="line" name="hr00"/>
      <point x="111" y="-173" type="line"/>
      <point x="148" y="-126"/>
      <point x="194" y="-41"/>
      <point x="194" y="47" type="curve" smooth="yes"/>
      <point x="194" y="88"/>
      <point x="188" y="123"/>
      <point x="186" y="133" type="curve"/>
      <point x="49" y="114" type="line"/>
      <point x="75" y="-11" type="line"/>
      <point x="24" y="-123" type="line"/>
    </contour>
    <contour>
      <point x="58" y="295" type="curve" smooth="yes"/>
      <point x="58" y="259"/>
      <point x="89" y="228"/>
      <point x="126" y="228" type="curve" smooth="yes"/>
      <point x="162" y="228"/>
      <point x="192" y="259"/>
      <point x="192" y="295" type="curve" smooth="yes"/>
      <point x="192" y="332"/>
      <point x="162" y="362"/>
      <point x="126" y="362" type="curve" smooth="yes"/>
      <point x="89" y="362"/>
      <point x="58" y="332"/>
    </contour>
  </outline>
</glyph>
<glyph name="less" format="1">
  <advance width="415"/>
  <unicode hex="003C"/>
  <outline>
    <contour>
      <point x="356" y="603" type="line" name="hr00"/>
      <point x="29" y="400" type="line"/>
      <point x="29" y="279" type="line"/>
      <point x="356" y="75" type="line"/>
      <point x="356" y="206" type="line"/>
      <point x="130" y="339" type="line"/>
      <point x="356" y="471" type="line"/>
    </contour>
  </outline>
</glyph>
<glyph name="equal" format="1">
  <advance width="463"/>
  <unicode hex="003D"/>
  <outline>
    <contour>
      <point x="54" y="205" type="line" name="hr00"/>
      <point x="409" y="205" type="line"/>
      <point x="409" y="304" type="line"/>
      <point x="54" y="304" type="line"/>
    </contour>
    <contour>
      <point x="54" y="360" type="line"/>
      <point x="409" y="360" type="line"/>
      <point x="409" y="460" type="line"/>
      <point x="54" y="460" type="line"/>
    </contour>
  </outline>
</glyph>
<glyph name="greater" format="1">
  <advance width="415"/>
  <unicode hex="003E"/>
  <outline>
    <contour>
      <point x="59" y="471" type="line" name="hr00"/>
      <point x="285" y="339" type="line"/>
      <point x="59" y="206" type="line"/>
      <point x="59" y="75" type="line"/>
      <point x="386" y="279" type="line"/>
      <point x="386" y="400" type="line"/>
      <point x="59" y="603" type="line"/>
    </contour>
  </outline>
</glyph>
<glyph name="question" format="1">
  <advance width="429"/>
  <unicode hex="003F"/>
  <outline>
    <contour>
      <point x="227" y="236" type="line" name="hr00"/>
      <point x="227" y="240"/>
      <point x="226" y="244"/>
      <point x="226" y="247" type="curve" smooth="yes"/>
      <point x="226" y="362"/>
      <point x="401" y="366"/>
      <point x="401" y="551" type="curve" smooth="yes"/>
      <point x="401" y="641"/>
      <point x="332" y="702"/>
      <point x="215" y="702" type="curve" smooth="yes"/>
      <point x="146" y="702"/>
      <point x="90" y="685"/>
      <point x="48" y="670" type="curve"/>
      <point x="32" y="495" type="line"/>
      <point x="113" y="495" type="line"/>
      <point x="138" y="591" type="line"/>
      <point x="148" y="595"/>
      <point x="177" y="599"/>
      <point x="198" y="599" type="curve" smooth="yes" name="hr01"/>
      <point x="232" y="599"/>
      <point x="264" y="579"/>
      <point x="264" y="534" type="curve" smooth="yes"/>
      <point x="264" y="444"/>
      <point x="118" y="422"/>
      <point x="118" y="302" type="curve" smooth="yes"/>
      <point x="118" y="274"/>
      <point x="125" y="242"/>
      <point x="128" y="235" type="curve"/>
    </contour>
    <contour>
      <point x="111" y="63" type="curve" smooth="yes"/>
      <point x="111" y="26"/>
      <point x="141" y="-4"/>
      <point x="178" y="-4" type="curve" smooth="yes"/>
      <point x="215" y="-4"/>
      <point x="244" y="26"/>
      <point x="244" y="63" type="curve" smooth="yes"/>
      <point x="244" y="100"/>
      <point x="215" y="129"/>
      <point x="178" y="129" type="curve" smooth="yes"/>
      <point x="141" y="129"/>
      <point x="111" y="100"/>
    </contour>
  </outline>
</glyph>
<glyph name="at" format="1">
  <advance width="879"/>
  <unicode hex="0040"/>
  <outline>
    <contour>
      <point x="460" y="526" type="curve" smooth="yes" name="hr00"/>
      <point x="383" y="526"/>
      <point x="235" y="485"/>
      <point x="235" y="308" type="curve" smooth="yes"/>
      <point x="235" y="154"/>
      <point x="354" y="101"/>
      <point x="436" y="101" type="curve" smooth="yes"/>
      <point x="490" y="101"/>
      <point x="528" y="118"/>
      <point x="548" y="132" type="curve"/>
      <point x="568" y="112"/>
      <point x="599" y="100"/>
      <point x="645" y="100" type="curve" smooth="yes"/>
      <point x="760" y="100"/>
      <point x="850" y="215"/>
      <point x="850" y="370" type="curve" smooth="yes"/>
      <point x="850" y="583"/>
      <point x="675" y="729"/>
      <point x="461" y="729" type="curve" smooth="yes"/>
      <point x="248" y="729"/>
      <point x="32" y="588"/>
      <point x="32" y="322" type="curve" smooth="yes"/>
      <point x="32" y="53"/>
      <point x="224" y="-92"/>
      <point x="441" y="-92" type="curve" smooth="yes"/>
      <point x="482" y="-92"/>
      <point x="538" y="-86"/>
      <point x="573" y="-76" type="curve"/>
      <point x="609" y="40" type="line"/>
      <point x="586" y="44" type="line"/>
      <point x="554" y="30"/>
      <point x="501" y="23"/>
      <point x="460" y="23" type="curve" smooth="yes"/>
      <point x="288" y="23"/>
      <point x="153" y="130"/>
      <point x="153" y="320" type="curve" smooth="yes"/>
      <point x="153" y="506"/>
      <point x="294" y="612"/>
      <point x="449" y="612" type="curve" smooth="yes"/>
      <point x="624" y="612"/>
      <point x="729" y="512"/>
      <point x="729" y="369" type="curve" smooth="yes"/>
      <point x="729" y="255"/>
      <point x="685" y="205"/>
      <point x="666" y="205" type="curve" smooth="yes"/>
      <point x="649" y="205"/>
      <point x="635" y="207"/>
      <point x="635" y="244" type="curve" smooth="yes"/>
      <point x="635" y="498" type="line"/>
      <point x="602" y="509" type="line"/>
      <point x="575" y="500" type="line"/>
      <point x="546" y="515"/>
      <point x="507" y="526"/>
    </contour>
    <contour>
      <point x="459" y="186" type="curve" smooth="yes" name="hr01"/>
      <point x="397" y="186"/>
      <point x="359" y="233"/>
      <point x="359" y="311" type="curve" smooth="yes"/>
      <point x="359" y="398"/>
      <point x="398" y="442"/>
      <point x="464" y="442" type="curve" smooth="yes"/>
      <point x="484" y="442"/>
      <point x="501" y="438"/>
      <point x="514" y="432" type="curve"/>
      <point x="514" y="230" type="line" smooth="yes"/>
      <point x="514" y="222"/>
      <point x="514" y="214"/>
      <point x="515" y="205" type="curve" name="hr02"/>
      <point x="497" y="192"/>
      <point x="476" y="186"/>
    </contour>
  </outline>
</glyph>
<glyph name="A" format="1">
  <advance width="621"/>
  <unicode hex="0041"/>
  <outline>
    <contour>
      <point x="609" y="0" type="line" name="hr00"/>
      <point x="619" y="78" type="line"/>
      <point x="573" y="96" type="line"/>
      <point x="372" y="691" type="line"/>
      <point x="248" y="691" type="line"/>
      <point x="50" y="96" type="line"/>
      <point x="-5" y="78" type="line"/>
      <point x="8" y="0" type="line"/>
      <point x="247" y="0" type="line"/>
      <point x="247" y="76" type="line"/>
      <point x="159" y="92" type="line"/>
      <point x="197" y="218" type="line"/>
      <point x="393" y="218" type="line"/>
      <point x="429" y="96" type="line"/>
      <point x="349" y="75" type="line"/>
      <point x="349" y="0" type="line"/>
    </contour>
    <contour>
      <point x="296" y="549" type="line"/>
      <point x="349" y="323" type="line"/>
      <point x="228" y="323" type="line"/>
    </contour>
  </outline>
</glyph>
<glyph name="B" format="1">
  <advance width="596"/>
  <unicode hex="0042"/>
  <outline>
    <contour>
      <point x="342" y="0" type="line" smooth="yes" name="hr00"/>
      <point x="474" y="0"/>
      <point x="564" y="61"/>
      <point x="564" y="187" type="curve" smooth="yes"/>
      <point x="564" y="281"/>
      <point x="509" y="332"/>
      <point x="424" y="354" type="curve"/>
      <point x="466" y="364"/>
      <point x="536" y="417"/>
      <point x="536" y="510" type="curve" smooth="yes" name="hr01"/>
      <point x="536" y="612"/>
      <point x="453" y="691"/>
      <point x="312" y="691" type="curve" smooth="yes"/>
      <point x="35" y="691" type="line"/>
      <point x="35" y="601" type="line"/>
      <point x="105" y="594" type="line"/>
      <point x="105" y="100" type="line"/>
      <point x="41" y="85" type="line"/>
      <point x="55" y="0" type="line"/>
    </contour>
    <contour>
      <point x="294" y="296" type="line" smooth="yes"/>
      <point x="379" y="296"/>
      <point x="427" y="265"/>
      <point x="427" y="199" type="curve" smooth="yes"/>
      <point x="427" y="127"/>
      <point x="374" y="105"/>
      <point x="310" y="105" type="curve" smooth="yes"/>
      <point x="236" y="105" type="line"/>
      <point x="236" y="296" type="line"/>
    </contour>
    <contour>
      <point x="399" y="495" type="curve" smooth="yes" name="hr02"/>
      <point x="399" y="440"/>
      <point x="364" y="401"/>
      <point x="295" y="401" type="curve" smooth="yes"/>
      <point x="236" y="401" type="line"/>
      <point x="236" y="586" type="line"/>
      <point x="281" y="586" type="line" smooth="yes"/>
      <point x="343" y="586"/>
      <point x="399" y="561"/>
    </contour>
  </outline>
</glyph>
<glyph name="C" format="1">
  <advance width="587"/>
  <unicode hex="0043"/>
  <outline>
    <contour>
      <point x="162" y="348" type="curve" name="hr00"/>
      <point x="165" y="495"/>
      <point x="257" y="586"/>
      <point x="368" y="586" type="curve" smooth="yes"/>
      <point x="389" y="586"/>
      <point x="398" y="585"/>
      <point x="407" y="584" type="curve"/>
      <point x="411" y="584"/>
      <point x="411" y="583"/>
      <point x="466" y="460" type="curve" name="hr01"/>
      <point x="547" y="460" type="line"/>
      <point x="527" y="667" type="line"/>
      <point x="505" y="674"/>
      <point x="447" y="691"/>
      <point x="358" y="691" type="curve" smooth="yes"/>
      <point x="194" y="691"/>
      <point x="28" y="568"/>
      <point x="28" y="334" type="curve" smooth="yes"/>
      <point x="28" y="109"/>
      <point x="185" y="-4"/>
      <point x="365" y="-4" type="curve" smooth="yes"/>
      <point x="445" y="-4"/>
      <point x="528" y="28"/>
      <point x="564" y="71" type="curve"/>
      <point x="522" y="160" type="line"/>
      <point x="484" y="121"/>
      <point x="424" y="101"/>
      <point x="370" y="101" type="curve" smooth="yes"/>
      <point x="246" y="101"/>
      <point x="164" y="204"/>
    </contour>
  </outline>
</glyph>
<glyph name="D" format="1">
  <advance width="637"/>
  <unicode hex="0044"/>
  <outline>
    <contour>
      <point x="53" y="0" type="line" name="hr00"/>
      <point x="262" y="0" type="line" smooth="yes"/>
      <point x="489" y="0"/>
      <point x="606" y="129"/>
      <point x="606" y="354" type="curve" smooth="yes"/>
      <point x="606" y="579"/>
      <point x="462" y="691"/>
      <point x="219" y="691" type="curve" smooth="yes"/>
      <point x="41" y="691" type="line"/>
      <point x="41" y="603" type="line"/>
      <point x="104" y="595" type="line"/>
      <point x="104" y="101" type="line"/>
      <point x="39" y="88" type="line"/>
    </contour>
    <contour>
      <point x="469" y="351" type="curve" smooth="yes"/>
      <point x="469" y="190"/>
      <point x="394" y="104"/>
      <point x="254" y="104" type="curve" smooth="yes"/>
      <point x="248" y="104"/>
      <point x="241" y="105"/>
      <point x="235" y="105" type="curve"/>
      <point x="235" y="586" type="line"/>
      <point x="386" y="586"/>
      <point x="469" y="509"/>
    </contour>
  </outline>
</glyph>
<glyph name="F" format="1">
  <advance width="528"/>
  <unicode hex="0046"/>
  <outline>
    <contour>
      <point x="405" y="79" type="line" name="hr00"/>
      <point x="235" y="105" type="line"/>
      <point x="235" y="303" type="line"/>
      <point x="387" y="303" type="line"/>
      <point x="387" y="408" type="line"/>
      <point x="235" y="408" type="line"/>
      <point x="235" y="586" type="line"/>
      <point x="397" y="586" type="line"/>
      <point x="440" y="486" type="line" name="hr01"/>
      <point x="516" y="486" type="line"/>
      <point x="497" y="691" type="line"/>
      <point x="41" y="691" type="line"/>
      <point x="41" y="602" type="line"/>
      <point x="104" y="595" type="line"/>
      <point x="104" y="101" type="line"/>
      <point x="39" y="88" type="line"/>
      <point x="53" y="0" type="line"/>
      <point x="398" y="0" type="line"/>
    </contour>
  </outline>
</glyph>
<glyph name="G" format="1">
  <advance width="620"/>
  <unicode hex="0047"/>
  <outline>
    <contour>
      <point x="356" y="324" type="line" name="hr00"/>
      <point x="338" y="243" type="line"/>
      <point x="441" y="229" type="line"/>
      <point x="441" y="100" type="line"/>
      <point x="435" y="99"/>
      <point x="426" y="98"/>
      <point x="411" y="98" type="curve" smooth="yes"/>
      <point x="250" y="98"/>
      <point x="164" y="197"/>
      <point x="164" y="337" type="curve" smooth="yes"/>
      <point x="164" y="489"/>
      <point x="260" y="587"/>
      <point x="372" y="587" type="curve" smooth="yes"/>
      <point x="412" y="587"/>
      <point x="421" y="585"/>
      <point x="433" y="584" type="curve"/>
      <point x="484" y="461" type="line" name="hr01"/>
      <point x="565" y="461" type="line"/>
      <point x="547" y="667" type="line"/>
      <point x="527" y="673"/>
      <point x="453" y="692"/>
      <point x="374" y="692" type="curve" smooth="yes"/>
      <point x="175" y="692"/>
      <point x="27" y="559"/>
      <point x="27" y="337" type="curve" smooth="yes"/>
      <point x="27" y="102"/>
      <point x="193" y="-4"/>
      <point x="380" y="-4" type="curve" smooth="yes"/>
      <point x="454" y="-4"/>
      <point x="536" y="4"/>
      <point x="572" y="9" type="curve"/>
      <point x="572" y="324" type="line"/>
    </contour>
  </outline>
</glyph>
<glyph name="H" format="1">
  <advance width="702"/>
  <unicode hex="0048"/>
  <outline>
    <contour>
      <point x="418" y="0" type="line" name="hr00"/>
      <point x="664" y="0" type="line"/>
      <point x="664" y="8"/>
      <point x="665" y="72"/>
      <point x="665" y="87" type="curve"/>
      <point x="592" y="99" type="line"/>
      <point x="592" y="586" type="line"/>
      <point x="667" y="598" type="line"/>
      <point x="652" y="691" type="line"/>
      <point x="405" y="691" type="line"/>
      <point x="405" y="600" type="line"/>
      <point x="461" y="593" type="line"/>
      <point x="461" y="407" type="line"/>
      <point x="236" y="407" type="line"/>
      <point x="236" y="586" type="line"/>
      <point x="301" y="598" type="line"/>
      <point x="286" y="691" type="line"/>
      <point x="42" y="691" type="line"/>
      <point x="42" y="600" type="line"/>
      <point x="105" y="593" type="line"/>
      <point x="105" y="102" type="line"/>
      <point x="40" y="89" type="line"/>
      <point x="55" y="0" type="line"/>
      <point x="300" y="0" type="line"/>
      <point x="300" y="8"/>
      <point x="299" y="72"/>
      <point x="299" y="87" type="curve"/>
      <point x="236" y="99" type="line"/>
      <point x="236" y="302" type="line"/>
      <point x="461" y="302" type="line"/>
      <point x="461" y="102" type="line"/>
      <point x="403" y="89" type="line"/>
    </contour>
  </outline>
</glyph>
<glyph name="I" format="1">
  <advance width="348"/>
  <unicode hex="0049"/>
  <outline>
    <contour>
      <point x="51" y="0" type="line" name="hr00"/>
      <point x="311" y="0" type="line"/>
      <point x="311" y="8"/>
      <point x="312" y="72"/>
      <point x="312" y="87" type="curve"/>
      <point x="238" y="99" type="line"/>
      <point x="238" y="586" type="line"/>
      <point x="314" y="598" type="line"/>
      <point x="299" y="691" type="line"/>
      <point x="39" y="691" type="line"/>
      <point x="39" y="600" type="line"/>
      <point x="107" y="593" type="line"/>
      <point x="107" y="102" type="line"/>
      <point x="37" y="89" type="line"/>
    </contour>
  </outline>
</glyph>
<glyph name="J" format="1">
  <advance width="397"/>
  <unicode hex="004A"/>
  <outline>
    <contour>
      <point x="304" y="593" type="line" name="hr00"/>
      <point x="372" y="600" type="line"/>
      <point x="372" y="691" type="line"/>
      <point x="108" y="691" type="line"/>
      <point x="93" y="598" type="line"/>
      <point x="173" y="586" type="line"/>
      <point x="173" y="136" type="line" smooth="yes"/>
      <point x="173" y="117"/>
      <point x="166" y="110"/>
      <point x="156" y="110" type="curve" smooth="yes"/>
      <point x="138" y="110"/>
      <point x="110" y="129"/>
      <point x="72" y="160" type="curve"/>
      <point x="2" y="59" type="line"/>
      <point x="33" y="31"/>
      <point x="96" y="-4"/>
      <point x="159" y="-4" type="curve" smooth="yes"/>
      <point x="219" y="-4"/>
      <point x="304" y="21"/>
      <point x="304" y="175" type="curve" smooth="yes"/>
    </contour>
  </outline>
</glyph>
<glyph name="K" format="1">
  <advance width="635"/>
  <unicode hex="004B"/>
  <outline>
    <contour>
      <point x="51" y="0" type="line" name="hr00"/>
      <point x="305" y="0" type="line"/>
      <point x="305" y="8"/>
      <point x="304" y="72"/>
      <point x="304" y="87" type="curve"/>
      <point x="238" y="99" type="line"/>
      <point x="238" y="202" type="line"/>
      <point x="257" y="225"/>
      <point x="283" y="256"/>
      <point x="314" y="291" type="curve"/>
      <point x="460" y="0" type="line"/>
      <point x="618" y="0" type="line"/>
      <point x="618" y="87" type="line"/>
      <point x="564" y="97" type="line"/>
      <point x="402" y="391" type="line"/>
      <point x="472" y="470"/>
      <point x="541" y="550"/>
      <point x="575" y="594" type="curve"/>
      <point x="614" y="602" type="line"/>
      <point x="614" y="691" type="line"/>
      <point x="362" y="691" type="line"/>
      <point x="362" y="602" type="line"/>
      <point x="439" y="586" type="line"/>
      <point x="238" y="345" type="line"/>
      <point x="238" y="586" type="line"/>
      <point x="307" y="601" type="line"/>
      <point x="292" y="691" type="line"/>
      <point x="39" y="691" type="line"/>
      <point x="39" y="598" type="line"/>
      <point x="107" y="593" type="line"/>
      <point x="107" y="102" type="line"/>
      <point x="37" y="89" type="line"/>
    </contour>
  </outline>
</glyph>
<glyph name="L" format="1">
  <advance width="524"/>
  <unicode hex="004C"/>
  <outline>
    <contour>
      <point x="41" y="691" type="line" name="hr00"/>
      <point x="41" y="602" type="line"/>
      <point x="104" y="595" type="line"/>
      <point x="104" y="101" type="line"/>
      <point x="39" y="88" type="line"/>
      <point x="53" y="0" type="line"/>
      <point x="499" y="0" type="line"/>
      <point x="520" y="204" type="line" name="hr01"/>
      <point x="441" y="204" type="line"/>
      <point x="404" y="105" type="line" name="hr02"/>
      <point x="235" y="105" type="line"/>
      <point x="235" y="586" type="line"/>
      <point x="310" y="600" type="line"/>
      <point x="295" y="691" type="line"/>
    </contour>
  </outline>
</glyph>
<glyph name="M" format="1">
  <advance width="895"/>
  <unicode hex="004D"/>
  <outline>
    <contour>
      <point x="49" y="597" type="line" name="hr00"/>
      <point x="104" y="591" type="line"/>
      <point x="104" y="95" type="line"/>
      <point x="45" y="87" type="line"/>
      <point x="51" y="0" type="line"/>
      <point x="251" y="0" type="line"/>
      <point x="251" y="0"/>
      <point x="251" y="77"/>
      <point x="250" y="87" type="curve"/>
      <point x="204" y="98" type="line"/>
      <point x="204" y="590" type="line"/>
      <point x="367" y="13" type="line"/>
      <point x="501" y="13" type="line"/>
      <point x="668" y="597" type="line"/>
      <point x="668" y="103" type="line"/>
      <point x="624" y="90" type="line"/>
      <point x="633" y="0" type="line"/>
      <point x="845" y="0" type="line"/>
      <point x="845" y="87" type="line"/>
      <point x="794" y="94" type="line"/>
      <point x="794" y="586" type="line"/>
      <point x="849" y="598" type="line"/>
      <point x="834" y="691" type="line"/>
      <point x="595" y="691" type="line"/>
      <point x="450" y="178" type="line"/>
      <point x="306" y="691" type="line"/>
      <point x="49" y="691" type="line"/>
    </contour>
  </outline>
</glyph>
<glyph name="N" format="1">
  <advance width="727"/>
  <unicode hex="004E"/>
  <outline>
    <contour>
      <point x="428" y="0" type="line" name="hr00"/>
      <point x="630" y="0" type="line"/>
      <point x="630" y="586" type="line"/>
      <point x="697" y="598" type="line"/>
      <point x="682" y="691" type="line"/>
      <point x="467" y="691" type="line"/>
      <point x="467" y="600" type="line"/>
      <point x="525" y="593" type="line"/>
      <point x="525" y="96" type="line"/>
      <point x="298" y="691" type="line"/>
      <point x="42" y="691" type="line"/>
      <point x="42" y="598" type="line"/>
      <point x="106" y="591" type="line"/>
      <point x="106" y="100" type="line"/>
      <point x="37" y="87" type="line"/>
      <point x="53" y="0" type="line"/>
      <point x="261" y="0" type="line"/>
      <point x="261" y="8"/>
      <point x="262" y="63"/>
      <point x="262" y="88" type="curve"/>
      <point x="211" y="104" type="line"/>
      <point x="211" y="563" type="line"/>
    </contour>
  </outline>
</glyph>
<glyph name="P" format="1">
  <advance width="585"/>
  <unicode hex="0050"/>
  <outline>
    <contour>
      <point x="238" y="328" type="curve" name="hr00"/>
      <point x="238" y="586" type="line"/>
      <point x="293" y="586" type="line" smooth="yes"/>
      <point x="390" y="586"/>
      <point x="434" y="538"/>
      <point x="434" y="464" type="curve" smooth="yes"/>
      <point x="434" y="379"/>
      <point x="402" y="328"/>
    </contour>
    <contour>
      <point x="51" y="0" type="line"/>
      <point x="384" y="0" type="line"/>
      <point x="390" y="83" type="line"/>
      <point x="358" y="88"/>
      <point x="288" y="98"/>
      <point x="255" y="102" type="curve" smooth="yes"/>
      <point x="244" y="103"/>
      <point x="238" y="104"/>
      <point x="238" y="114" type="curve" smooth="yes"/>
      <point x="238" y="223" type="line"/>
      <point x="285" y="223" type="line" smooth="yes"/>
      <point x="477" y="223"/>
      <point x="571" y="319"/>
      <point x="571" y="461" type="curve" smooth="yes"/>
      <point x="571" y="603"/>
      <point x="478" y="691"/>
      <point x="289" y="691" type="curve" smooth="yes"/>
      <point x="39" y="691" type="line"/>
      <point x="39" y="600" type="line"/>
      <point x="107" y="593" type="line"/>
      <point x="107" y="100" type="line"/>
      <point x="37" y="86" type="line"/>
    </contour>
  </outline>
</glyph>
<glyph name="R" format="1">
  <advance width="612"/>
  <unicode hex="0052"/>
  <outline>
    <contour>
      <point x="47" y="0" type="line" name="hr00"/>
      <point x="290" y="0" type="line"/>
      <point x="290" y="87" type="line"/>
      <point x="238" y="95" type="line"/>
      <point x="238" y="232" type="line"/>
      <point x="263" y="232"/>
      <point x="288" y="233"/>
      <point x="311" y="235" type="curve"/>
      <point x="415" y="0" type="line"/>
      <point x="584" y="0" type="line"/>
      <point x="584" y="87" type="line"/>
      <point x="521" y="97" type="line"/>
      <point x="433" y="265" type="line"/>
      <point x="520" y="301"/>
      <point x="572" y="368"/>
      <point x="572" y="466" type="curve" smooth="yes"/>
      <point x="572" y="597"/>
      <point x="480" y="691"/>
      <point x="284" y="691" type="curve" smooth="yes"/>
      <point x="39" y="691" type="line"/>
      <point x="39" y="600" type="line"/>
      <point x="107" y="593" type="line"/>
      <point x="107" y="99" type="line"/>
      <point x="38" y="85" type="line"/>
    </contour>
    <contour>
      <point x="238" y="338" type="curve"/>
      <point x="238" y="585" type="line"/>
      <point x="394" y="585"/>
      <point x="437" y="541"/>
      <point x="437" y="463" type="curve" smooth="yes"/>
      <point x="437" y="393"/>
      <point x="389" y="337"/>
      <point x="271" y="337" type="curve" smooth="yes"/>
      <point x="259" y="337"/>
      <point x="246" y="337"/>
    </contour>
  </outline>
</glyph>
<glyph name="S" format="1">
  <advance width="528"/>
  <unicode hex="0053"/>
  <outline>
    <contour>
      <point x="352" y="183" type="curve" smooth="yes" name="hr00"/>
      <point x="352" y="125"/>
      <point x="297" y="101"/>
      <point x="234" y="101" type="curve" smooth="yes"/>
      <point x="197" y="101"/>
      <point x="165" y="112"/>
      <point x="148" y="116" type="curve"/>
      <point x="140" y="227" type="line"/>
      <point x="56" y="234" type="line"/>
      <point x="36" y="41" type="line"/>
      <point x="89" y="20"/>
      <point x="162" y="-4"/>
      <point x="240" y="-4" type="curve" smooth="yes"/>
      <point x="361" y="-4"/>
      <point x="489" y="52"/>
      <point x="489" y="201" type="curve" smooth="yes"/>
      <point x="489" y="297"/>
      <point x="433" y="347"/>
      <point x="315" y="403" type="curve" smooth="yes"/>
      <point x="257" y="431"/>
      <point x="180" y="457"/>
      <point x="180" y="511" type="curve" smooth="yes"/>
      <point x="180" y="553"/>
      <point x="212" y="587"/>
      <point x="282" y="587" type="curve" smooth="yes"/>
      <point x="305" y="587"/>
      <point x="333" y="583"/>
      <point x="350" y="581" type="curve"/>
      <point x="399" y="475" type="line" name="hr01"/>
      <point x="483" y="475" type="line"/>
      <point x="468" y="665" type="line"/>
      <point x="416" y="680"/>
      <point x="347" y="692"/>
      <point x="278" y="692" type="curve" smooth="yes"/>
      <point x="149" y="692"/>
      <point x="44" y="619"/>
      <point x="44" y="504" type="curve" smooth="yes"/>
      <point x="44" y="385"/>
      <point x="123" y="343"/>
      <point x="226" y="295" type="curve" smooth="yes"/>
      <point x="311" y="256"/>
      <point x="352" y="237"/>
    </contour>
  </outline>
</glyph>
<glyph name="T" format="1">
  <advance width="615"/>
  <unicode hex="0054"/>
  <outline>
    <contour>
      <point x="138" y="0" type="line" name="hr00"/>
      <point x="478" y="0" type="line"/>
      <point x="488" y="80" type="line"/>
      <point x="372" y="102" type="line"/>
      <point x="372" y="586" type="line"/>
      <point x="486" y="586" type="line"/>
      <point x="530" y="487" type="line"/>
      <point x="606" y="487" type="line"/>
      <point x="584" y="691" type="line"/>
      <point x="29" y="691" type="line"/>
      <point x="10" y="486" type="line" name="hr01"/>
      <point x="87" y="486" type="line"/>
      <point x="130" y="586" type="line" name="hr02"/>
      <point x="243" y="586" type="line"/>
      <point x="243" y="102" type="line"/>
      <point x="128" y="80" type="line"/>
    </contour>
  </outline>
</glyph>
<glyph name="V" format="1">
  <advance width="639"/>
  <unicode hex="0056"/>
  <outline>
    <contour>
      <point x="4" y="691" type="line" name="hr00"/>
      <point x="4" y="602" type="line"/>
      <point x="40" y="595" type="line"/>
      <point x="250" y="0" type="line"/>
      <point x="391" y="0" type="line"/>
      <point x="598" y="595" type="line"/>
      <point x="635" y="602" type="line"/>
      <point x="635" y="691" type="line"/>
      <point x="402" y="691" type="line"/>
      <point x="402" y="613" type="line"/>
      <point x="493" y="595" type="line"/>
      <point x="460" y="490"/>
      <point x="352" y="175"/>
      <point x="338" y="130" type="curve"/>
      <point x="181" y="595" type="line"/>
      <point x="258" y="612" type="line"/>
      <point x="244" y="691" type="line"/>
    </contour>
  </outline>
</glyph>
<glyph name="W" format="1">
  <advance width="985"/>
  <unicode hex="0057"/>
  <outline>
    <contour>
      <point x="739" y="691" type="line" name="hr00"/>
      <point x="728" y="615" type="line"/>
      <point x="812" y="602" type="line"/>
      <point x="734" y="129" type="line"/>
      <point x="585" y="678" type="line" name="hr01"/>
      <point x="443" y="678" type="line"/>
      <point x="279" y="183" type="line"/>
      <point x="207" y="602" type="line"/>
      <point x="277" y="612" type="line"/>
      <point x="260" y="691" type="line" name="hr02"/>
      <point x="16" y="691" type="line"/>
      <point x="16" y="601" type="line"/>
      <point x="71" y="588" type="line"/>
      <point x="181" y="0" type="line"/>
      <point x="356" y="0" type="line"/>
      <point x="491" y="507" type="line"/>
      <point x="632" y="0" type="line"/>
      <point x="800" y="0" type="line"/>
      <point x="910" y="583" type="line"/>
      <point x="988" y="603" type="line"/>
      <point x="988" y="691" type="line"/>
    </contour>
  </outline>
</glyph>
<glyph name="X" format="1">
  <advance width="594"/>
  <unicode hex="0058"/>
  <outline>
    <contour>
      <point x="354" y="691" type="line" name="hr00"/>
      <point x="354" y="614" type="line"/>
      <point x="412" y="596" type="line"/>
      <point x="312" y="437" type="line"/>
      <point x="273" y="506"/>
      <point x="239" y="565"/>
      <point x="221" y="598" type="curve"/>
      <point x="291" y="613" type="line"/>
      <point x="277" y="691" type="line"/>
      <point x="24" y="691" type="line"/>
      <point x="24" y="604" type="line"/>
      <point x="66" y="592" type="line"/>
      <point x="216" y="332" type="line"/>
      <point x="59" y="79" type="line"/>
      <point x="13" y="71" type="line"/>
      <point x="13" y="0" type="line"/>
      <point x="238" y="0" type="line"/>
      <point x="238" y="70" type="line"/>
      <point x="183" y="76" type="line"/>
      <point x="273" y="232" type="line"/>
      <point x="363" y="77" type="line"/>
      <point x="306" y="71" type="line"/>
      <point x="306" y="0" type="line"/>
      <point x="577" y="0" type="line"/>
      <point x="577" y="71" type="line"/>
      <point x="513" y="93" type="line"/>
      <point x="478" y="150"/>
      <point x="423" y="243"/>
      <point x="370" y="335" type="curve"/>
      <point x="536" y="593" type="line"/>
      <point x="577" y="601" type="line"/>
      <point x="577" y="691" type="line"/>
    </contour>
  </outline>
</glyph>
<glyph name="Z" format="1">
  <advance width="562"/>
  <unicode hex="005A"/>
  <outline>
    <contour>
      <point x="47" y="0" type="line" name="hr00"/>
      <point x="518" y="0" type="line"/>
      <point x="518" y="215" type="line"/>
      <point x="438" y="215" type="line"/>
      <point x="420" y="105" type="line" name="hr01"/>
      <point x="205" y="105" type="line"/>
      <point x="304" y="254"/>
      <point x="474" y="508"/>
      <point x="527" y="598" type="curve"/>
      <point x="507" y="691" type="line"/>
      <point x="47" y="691" type="line"/>
      <point x="47" y="476" type="line"/>
      <point x="125" y="476" type="line"/>
      <point x="144" y="586" type="line" name="hr02"/>
      <point x="365" y="586" type="line"/>
      <point x="28" y="79" type="line"/>
    </contour>
  </outline>
</glyph>
<glyph name="bracketleft" format="1">
  <advance width="336"/>
  <unicode hex="005B"/>
  <outline>
    <contour>
      <point x="346" y="650" type="line" name="hr00"/>
      <point x="346" y="729" type="line" smooth="yes"/>
      <point x="346" y="734"/>
      <point x="344" y="736"/>
      <point x="339" y="736" type="curve" smooth="yes"/>
      <point x="81" y="736" type="line"/>
      <point x="74" y="724" type="line"/>
      <point x="74" y="-167" type="line"/>
      <point x="81" y="-179" type="line"/>
      <point x="339" y="-179" type="line" smooth="yes"/>
      <point x="344" y="-179"/>
      <point x="346" y="-176"/>
      <point x="346" y="-171" type="curve" smooth="yes"/>
      <point x="346" y="-92" type="line"/>
      <point x="194" y="-92" type="line"/>
      <point x="194" y="650" type="line"/>
    </contour>
  </outline>
</glyph>
<glyph name="backslash" format="1">
  <advance width="486"/>
  <unicode hex="005C"/>
  <outline>
    <contour>
      <point x="338" y="0" type="line" name="hr00"/>
      <point x="463" y="0" type="line"/>
      <point x="466" y="13" type="line"/>
      <point x="148" y="691" type="line"/>
      <point x="20" y="691" type="line"/>
      <point x="21" y="677" type="line"/>
    </contour>
  </outline>
</glyph>
<glyph name="bracketright" format="1">
  <advance width="336"/>
  <unicode hex="005D"/>
  <outline>
    <contour>
      <point x="141" y="650" type="line" name="hr00"/>
      <point x="141" y="-92" type="line"/>
      <point x="-10" y="-92" type="line"/>
      <point x="-10" y="-171" type="line" smooth="yes"/>
      <point x="-10" y="-176"/>
      <point x="-8" y="-179"/>
      <point x="-4" y="-179" type="curve" smooth="yes"/>
      <point x="254" y="-179" type="line"/>
      <point x="262" y="-167" type="line"/>
      <point x="262" y="724" type="line"/>
      <point x="254" y="736" type="line"/>
      <point x="-4" y="736" type="line" smooth="yes"/>
      <point x="-8" y="736"/>
      <point x="-10" y="734"/>
      <point x="-10" y="729" type="curve" smooth="yes"/>
      <point x="-10" y="650" type="line"/>
    </contour>
  </outline>
</glyph>
<glyph name="asciicircum" format="1">
  <advance width="514"/>
  <unicode hex="005E"/>
  <outline>
    <contour>
      <point x="88" y="588" type="line" name="hr00"/>
      <point x="173" y="588" type="line"/>
      <point x="271" y="656" type="line"/>
      <point x="369" y="588" type="line"/>
      <point x="455" y="588" type="line"/>
      <point x="462" y="600" type="line"/>
      <point x="290" y="766" type="line"/>
      <point x="253" y="766" type="line"/>
      <point x="82" y="601" type="line"/>
    </contour>
  </outline>
</glyph>
<glyph name="underscore" format="1">
  <advance width="553"/>
  <unicode hex="005F"/>
  <outline>
    <contour>
      <point x="553" y="-86" type="line" name="hr00"/>
      <point x="553" y="-7" type="line" smooth="yes"/>
      <point x="553" y="-2"/>
      <point x="551" y="0"/>
      <point x="547" y="0" type="curve" smooth="yes"/>
      <point x="11" y="0" type="line"/>
      <point x="0" y="-13" type="line"/>
      <point x="0" y="-86" type="line"/>
    </contour>
  </outline>
</glyph>
<glyph name="grave" format="1">
  <advance width="338"/>
  <unicode hex="0060"/>
  <outline>
    <contour>
      <point x="281" y="488" type="line" name="hr00"/>
      <point x="169" y="665" type="line"/>
      <point x="134" y="682" type="line"/>
      <point x="57" y="591" type="line"/>
      <point x="240" y="447" type="line"/>
    </contour>
  </outline>
</glyph>
<glyph name="b" format="1">
  <advance width="499"/>
  <unicode hex="0062"/>
  <outline>
    <contour>
      <point x="64" y="651" type="line" name="hr00"/>
      <point x="64" y="23" type="line"/>
      <point x="96" y="-4" type="line"/>
      <point x="149" y="17" type="line"/>
      <point x="175" y="3"/>
      <point x="208" y="-4"/>
      <point x="245" y="-4" type="curve" smooth="yes"/>
      <point x="355" y="-4"/>
      <point x="468" y="55"/>
      <point x="468" y="251" type="curve" smooth="yes"/>
      <point x="468" y="401"/>
      <point x="390" y="491"/>
      <point x="271" y="491" type="curve" smooth="yes"/>
      <point x="233" y="491"/>
      <point x="205" y="482"/>
      <point x="184" y="472" type="curve"/>
      <point x="184" y="701" type="line"/>
      <point x="150" y="736" type="line"/>
      <point x="1" y="716" type="line"/>
      <point x="12" y="648" type="line"/>
    </contour>
    <contour>
      <point x="247" y="397" type="curve" smooth="yes"/>
      <point x="303" y="397"/>
      <point x="344" y="350"/>
      <point x="344" y="246" type="curve" smooth="yes"/>
      <point x="344" y="138"/>
      <point x="299" y="90"/>
      <point x="245" y="90" type="curve" smooth="yes"/>
      <point x="223" y="90"/>
      <point x="196" y="95"/>
      <point x="184" y="103" type="curve"/>
      <point x="184" y="379" type="line"/>
      <point x="199" y="390"/>
      <point x="222" y="397"/>
    </contour>
  </outline>
</glyph>
<glyph name="d" format="1">
  <advance width="514"/>
  <unicode hex="0064"/>
  <outline>
    <contour>
      <point x="314" y="648" type="line" name="hr00"/>
      <point x="314" y="478" type="line"/>
      <point x="294" y="486"/>
      <point x="271" y="491"/>
      <point x="243" y="491" type="curve" smooth="yes"/>
      <point x="157" y="491"/>
      <point x="31" y="437"/>
      <point x="31" y="234" type="curve" smooth="yes"/>
      <point x="31" y="85"/>
      <point x="111" y="-4"/>
      <point x="221" y="-4" type="curve" smooth="yes"/>
      <point x="266" y="-4"/>
      <point x="303" y="10"/>
      <point x="327" y="38" type="curve"/>
      <point x="341" y="12"/>
      <point x="366" y="-4"/>
      <point x="406" y="-4" type="curve" smooth="yes"/>
      <point x="455" y="-4"/>
      <point x="486" y="27"/>
      <point x="495" y="37" type="curve"/>
      <point x="476" y="89" type="line"/>
      <point x="474" y="88"/>
      <point x="464" y="83"/>
      <point x="454" y="83" type="curve" smooth="yes"/>
      <point x="444" y="83"/>
      <point x="435" y="88"/>
      <point x="435" y="105" type="curve" smooth="yes"/>
      <point x="435" y="700" type="line"/>
      <point x="400" y="737" type="line"/>
      <point x="252" y="716" type="line"/>
      <point x="263" y="648" type="line"/>
    </contour>
    <contour>
      <point x="244" y="91" type="curve" smooth="yes"/>
      <point x="188" y="91"/>
      <point x="155" y="139"/>
      <point x="155" y="233" type="curve" smooth="yes"/>
      <point x="155" y="366"/>
      <point x="207" y="398"/>
      <point x="255" y="398" type="curve" smooth="yes"/>
      <point x="279" y="398"/>
      <point x="302" y="388"/>
      <point x="314" y="378" type="curve"/>
      <point x="314" y="140" type="line"/>
      <point x="307" y="112"/>
      <point x="272" y="91"/>
    </contour>
  </outline>
</glyph>
<glyph name="f" format="1">
  <advance width="359"/>
  <unicode hex="0066"/>
  <outline>
    <contour>
      <point x="339" y="400" type="line" name="hr00"/>
      <point x="339" y="485" type="line" smooth="yes"/>
      <point x="339" y="489"/>
      <point x="338" y="491"/>
      <point x="334" y="491" type="curve" smooth="yes"/>
      <point x="220" y="491" type="line"/>
      <point x="220" y="592" type="line" smooth="yes"/>
      <point x="220" y="621"/>
      <point x="230" y="639"/>
      <point x="260" y="639" type="curve"/>
      <point x="300" y="584" type="line"/>
      <point x="414" y="653" type="line"/>
      <point x="367" y="719"/>
      <point x="301" y="734"/>
      <point x="261" y="734" type="curve" smooth="yes"/>
      <point x="178" y="734"/>
      <point x="100" y="683"/>
      <point x="100" y="541" type="curve" smooth="yes"/>
      <point x="100" y="491" type="line"/>
      <point x="19" y="491" type="line"/>
      <point x="12" y="481" type="line"/>
      <point x="27" y="400" type="line"/>
      <point x="99" y="400" type="line"/>
      <point x="99" y="76" type="line"/>
      <point x="45" y="63" type="line"/>
      <point x="59" y="0" type="line"/>
      <point x="315" y="0" type="line"/>
      <point x="315" y="8"/>
      <point x="316" y="38"/>
      <point x="316" y="63" type="curve"/>
      <point x="220" y="74" type="line"/>
      <point x="220" y="400" type="line"/>
    </contour>
  </outline>
</glyph>
<glyph name="g" format="1">
  <advance width="503"/>
  <unicode hex="0067"/>
  <outline>
    <contour>
      <point x="232" y="491" type="curve" smooth="yes" name="hr00"/>
      <point x="134" y="491"/>
      <point x="33" y="423"/>
      <point x="33" y="302" type="curve" smooth="yes"/>
      <point x="33" y="233"/>
      <point x="66" y="184"/>
      <point x="112" y="155" type="curve"/>
      <point x="91" y="135"/>
      <point x="75" y="108"/>
      <point x="75" y="73" type="curve" smooth="yes"/>
      <point x="75" y="44"/>
      <point x="84" y="22"/>
      <point x="99" y="6" type="curve"/>
      <point x="56" y="-19"/>
      <point x="22" y="-60"/>
      <point x="22" y="-123" type="curve" smooth="yes"/>
      <point x="22" y="-208"/>
      <point x="96" y="-272"/>
      <point x="215" y="-272" type="curve" smooth="yes"/>
      <point x="345" y="-272"/>
      <point x="449" y="-202"/>
      <point x="449" y="-81" type="curve" smooth="yes"/>
      <point x="449" y="-8"/>
      <point x="398" y="39"/>
      <point x="292" y="61" type="curve" smooth="yes"/>
      <point x="190" y="82" type="line"/>
      <point x="188" y="96" type="line"/>
      <point x="206" y="123" type="line"/>
      <point x="214" y="122"/>
      <point x="223" y="122"/>
      <point x="232" y="122" type="curve" smooth="yes"/>
      <point x="331" y="122"/>
      <point x="432" y="182"/>
      <point x="432" y="302" type="curve" smooth="yes" name="hr01"/>
      <point x="432" y="335"/>
      <point x="424" y="365"/>
      <point x="411" y="390" type="curve"/>
      <point x="504" y="401" type="line"/>
      <point x="493" y="500" type="line"/>
      <point x="470" y="503" type="line"/>
      <point x="361" y="448" type="line"/>
      <point x="325" y="476"/>
      <point x="278" y="491"/>
    </contour>
    <contour>
      <point x="232" y="397" type="curve" smooth="yes"/>
      <point x="285" y="397"/>
      <point x="308" y="354"/>
      <point x="308" y="307" type="curve" smooth="yes"/>
      <point x="308" y="259"/>
      <point x="285" y="216"/>
      <point x="232" y="216" type="curve" smooth="yes"/>
      <point x="180" y="216"/>
      <point x="157" y="259"/>
      <point x="157" y="307" type="curve" smooth="yes"/>
      <point x="157" y="354"/>
      <point x="180" y="397"/>
    </contour>
    <contour>
      <point x="353" y="-98" type="curve" smooth="yes" name="hr03"/>
      <point x="353" y="-131"/>
      <point x="297" y="-152"/>
      <point x="242" y="-152" type="curve" smooth="yes"/>
      <point x="156" y="-152"/>
      <point x="131" y="-119"/>
      <point x="131" y="-93" type="curve" smooth="yes"/>
      <point x="131" y="-73"/>
      <point x="141" y="-52"/>
      <point x="170" y="-34" type="curve"/>
      <point x="250" y="-60"/>
      <point x="353" y="-58"/>
    </contour>
  </outline>
</glyph>
<glyph name="h" format="1">
  <advance width="547"/>
  <unicode hex="0068"/>
  <outline>
    <contour>
      <point x="350" y="75" type="line" name="hr00"/>
      <point x="300" y="64" type="line"/>
      <point x="300" y="0" type="line"/>
      <point x="525" y="0" type="line"/>
      <point x="525" y="9"/>
      <point x="526" y="39"/>
      <point x="526" y="64" type="curve"/>
      <point x="471" y="76" type="line"/>
      <point x="471" y="359" type="line" smooth="yes"/>
      <point x="471" y="450"/>
      <point x="400" y="491"/>
      <point x="317" y="491" type="curve" smooth="yes"/>
      <point x="273" y="491"/>
      <point x="226" y="473"/>
      <point x="201" y="455" type="curve"/>
      <point x="201" y="700" type="line"/>
      <point x="166" y="737" type="line"/>
      <point x="18" y="716" type="line"/>
      <point x="28" y="648" type="line"/>
      <point x="80" y="648" type="line"/>
      <point x="80" y="77" type="line"/>
      <point x="23" y="64" type="line"/>
      <point x="35" y="0" type="line"/>
      <point x="257" y="0" type="line"/>
      <point x="257" y="9"/>
      <point x="258" y="39"/>
      <point x="258" y="64" type="curve"/>
      <point x="201" y="75" type="line"/>
      <point x="201" y="356" type="line"/>
      <point x="210" y="367"/>
      <point x="249" y="393"/>
      <point x="288" y="393" type="curve" smooth="yes"/>
      <point x="327" y="393"/>
      <point x="350" y="374"/>
      <point x="350" y="331" type="curve" smooth="yes"/>
    </contour>
  </outline>
</glyph>
<glyph name="j" format="1">
  <advance width="264"/>
  <unicode hex="006A"/>
  <outline>
    <contour>
      <point x="200" y="456" type="line" name="hr00"/>
      <point x="165" y="492" type="line"/>
      <point x="17" y="466" type="line"/>
      <point x="28" y="398" type="line"/>
      <point x="79" y="398" type="line"/>
      <point x="79" y="-105" type="line" smooth="yes"/>
      <point x="79" y="-137"/>
      <point x="78" y="-161"/>
      <point x="55" y="-161" type="curve" smooth="yes"/>
      <point x="44" y="-161"/>
      <point x="34" y="-154"/>
      <point x="27" y="-148" type="curve"/>
      <point x="-27" y="-233" type="line"/>
      <point x="1" y="-257"/>
      <point x="34" y="-268"/>
      <point x="67" y="-268" type="curve" smooth="yes"/>
      <point x="107" y="-268"/>
      <point x="200" y="-258"/>
      <point x="200" y="-103" type="curve" smooth="yes"/>
    </contour>
    <contour>
      <point x="52" y="663" type="curve" smooth="yes" name="hr01"/>
      <point x="52" y="623"/>
      <point x="85" y="590"/>
      <point x="124" y="590" type="curve" smooth="yes"/>
      <point x="164" y="590"/>
      <point x="197" y="623"/>
      <point x="197" y="663" type="curve" smooth="yes"/>
      <point x="197" y="702"/>
      <point x="164" y="735"/>
      <point x="124" y="735" type="curve" smooth="yes"/>
      <point x="85" y="735"/>
      <point x="52" y="702"/>
    </contour>
  </outline>
</glyph>
<glyph name="k" format="1">
  <advance width="509"/>
  <unicode hex="006B"/>
  <outline>
    <contour>
      <point x="166" y="737" type="line" name="hr00"/>
      <point x="18" y="716" type="line"/>
      <point x="28" y="648" type="line"/>
      <point x="80" y="648" type="line"/>
      <point x="80" y="77" type="line"/>
      <point x="23" y="64" type="line"/>
      <point x="35" y="0" type="line"/>
      <point x="247" y="0" type="line"/>
      <point x="247" y="9"/>
      <point x="248" y="39"/>
      <point x="248" y="64" type="curve"/>
      <point x="201" y="75" type="line"/>
      <point x="201" y="149" type="line"/>
      <point x="250" y="198" type="line"/>
      <point x="343" y="0" type="line"/>
      <point x="494" y="0" type="line"/>
      <point x="494" y="9"/>
      <point x="493" y="37"/>
      <point x="493" y="62" type="curve"/>
      <point x="446" y="73" type="line"/>
      <point x="339" y="287" type="line"/>
      <point x="478" y="426" type="line"/>
      <point x="443" y="491" type="line"/>
      <point x="266" y="491" type="line"/>
      <point x="276" y="413" type="line"/>
      <point x="329" y="413" type="line"/>
      <point x="201" y="272" type="line"/>
      <point x="201" y="700" type="line"/>
    </contour>
  </outline>
</glyph>
<glyph name="m" format="1">
  <advance width="821"/>
  <unicode hex="006D"/>
  <outline>
    <contour>
      <point x="358" y="75" type="line" name="hr00"/>
      <point x="310" y="64" type="line"/>
      <point x="310" y="0" type="line"/>
      <point x="530" y="0" type="line"/>
      <point x="530" y="9"/>
      <point x="531" y="39"/>
      <point x="531" y="64" type="curve"/>
      <point x="478" y="74" type="line"/>
      <point x="478" y="356" type="line"/>
      <point x="487" y="367"/>
      <point x="526" y="393"/>
      <point x="565" y="393" type="curve" smooth="yes"/>
      <point x="604" y="393"/>
      <point x="627" y="374"/>
      <point x="627" y="331" type="curve" smooth="yes"/>
      <point x="627" y="75" type="line"/>
      <point x="571" y="63" type="line"/>
      <point x="571" y="0" type="line"/>
      <point x="798" y="0" type="line"/>
      <point x="798" y="9"/>
      <point x="799" y="39"/>
      <point x="799" y="64" type="curve"/>
      <point x="748" y="76" type="line"/>
      <point x="748" y="359" type="line" smooth="yes"/>
      <point x="748" y="450"/>
      <point x="679" y="491"/>
      <point x="597" y="491" type="curve" smooth="yes"/>
      <point x="545" y="491"/>
      <point x="496" y="479"/>
      <point x="448" y="444" type="curve"/>
      <point x="420" y="476"/>
      <point x="375" y="491"/>
      <point x="325" y="491" type="curve" smooth="yes"/>
      <point x="281" y="491"/>
      <point x="234" y="473"/>
      <point x="209" y="455" type="curve"/>
      <point x="174" y="492" type="line" name="hr01"/>
      <point x="152" y="489"/>
      <point x="62" y="471"/>
      <point x="26" y="466" type="curve"/>
      <point x="37" y="398" type="line"/>
      <point x="88" y="398" type="line"/>
      <point x="88" y="77" type="line"/>
      <point x="30" y="63" type="line"/>
      <point x="43" y="0" type="line"/>
      <point x="265" y="0" type="line"/>
      <point x="265" y="9"/>
      <point x="266" y="38"/>
      <point x="266" y="63" type="curve"/>
      <point x="209" y="75" type="line"/>
      <point x="209" y="356" type="line"/>
      <point x="218" y="367"/>
      <point x="257" y="393"/>
      <point x="296" y="393" type="curve" smooth="yes" name="hr02"/>
      <point x="335" y="393"/>
      <point x="358" y="374"/>
      <point x="358" y="331" type="curve" smooth="yes"/>
    </contour>
  </outline>
</glyph>
<glyph name="r" format="1">
  <advance width="428"/>
  <unicode hex="0072"/>
  <outline>
    <contour>
      <point x="166" y="491" type="line" name="hr00"/>
      <point x="144" y="488"/>
      <point x="63" y="471"/>
      <point x="27" y="465" type="curve"/>
      <point x="38" y="397" type="line"/>
      <point x="89" y="401" type="line"/>
      <point x="89" y="80" type="line"/>
      <point x="29" y="64" type="line"/>
      <point x="44" y="0" type="line"/>
      <point x="332" y="0" type="line"/>
      <point x="332" y="9"/>
      <point x="331" y="39"/>
      <point x="331" y="64" type="curve"/>
      <point x="307" y="70"/>
      <point x="210" y="97"/>
      <point x="210" y="99" type="curve"/>
      <point x="210" y="286" type="line" smooth="yes"/>
      <point x="210" y="364"/>
      <point x="255" y="391"/>
      <point x="280" y="391" type="curve"/>
      <point x="310" y="341" type="line"/>
      <point x="431" y="404" type="line"/>
      <point x="412" y="465"/>
      <point x="360" y="491"/>
      <point x="302" y="491" type="curve" smooth="yes"/>
      <point x="267" y="491"/>
      <point x="227" y="472"/>
      <point x="200" y="439" type="curve"/>
    </contour>
  </outline>
</glyph>
<glyph name="s" format="1">
  <advance width="412"/>
  <unicode hex="0073"/>
  <outline>
    <contour>
      <point x="17" y="110" type="line" name="hr00"/>
      <point x="38" y="57"/>
      <point x="108" y="-3"/>
      <point x="203" y="-3" type="curve" smooth="yes"/>
      <point x="296" y="-3"/>
      <point x="381" y="51"/>
      <point x="381" y="150" type="curve" smooth="yes"/>
      <point x="381" y="297"/>
      <point x="164" y="299"/>
      <point x="164" y="359" type="curve" smooth="yes"/>
      <point x="164" y="383"/>
      <point x="178" y="397"/>
      <point x="208" y="397" type="curve" smooth="yes"/>
      <point x="223" y="397"/>
      <point x="232" y="392"/>
      <point x="232" y="392" type="curve"/>
      <point x="256" y="341" type="line"/>
      <point x="383" y="392" type="line"/>
      <point x="362" y="434"/>
      <point x="310" y="491"/>
      <point x="213" y="491" type="curve" smooth="yes"/>
      <point x="115" y="491"/>
      <point x="40" y="426"/>
      <point x="40" y="346" type="curve" smooth="yes"/>
      <point x="40" y="289"/>
      <point x="73" y="239"/>
      <point x="166" y="202" type="curve"/>
      <point x="193" y="188"/>
      <point x="259" y="178"/>
      <point x="259" y="137" type="curve" smooth="yes"/>
      <point x="259" y="103"/>
      <point x="229" y="91"/>
      <point x="209" y="91" type="curve" smooth="yes"/>
      <point x="194" y="91"/>
      <point x="179" y="92"/>
      <point x="171" y="94" type="curve"/>
      <point x="145" y="159" type="line"/>
    </contour>
  </outline>
</glyph>
<glyph name="t" format="1">
  <advance width="345"/>
  <unicode hex="0074"/>
  <outline>
    <contour>
      <point x="318" y="400" type="line" name="hr00"/>
      <point x="318" y="485" type="line" smooth="yes"/>
      <point x="318" y="489"/>
      <point x="317" y="491"/>
      <point x="313" y="491" type="curve" smooth="yes"/>
      <point x="212" y="491" type="line"/>
      <point x="212" y="666" type="line"/>
      <point x="203" y="682" type="line"/>
      <point x="96" y="659" type="line"/>
      <point x="95" y="639"/>
      <point x="95" y="572"/>
      <point x="94" y="491" type="curve"/>
      <point x="9" y="491" type="line"/>
      <point x="2" y="481" type="line"/>
      <point x="17" y="400" type="line"/>
      <point x="93" y="400" type="line"/>
      <point x="92" y="272"/>
      <point x="91" y="146"/>
      <point x="91" y="138" type="curve" smooth="yes"/>
      <point x="91" y="25"/>
      <point x="151" y="-4"/>
      <point x="217" y="-4" type="curve" smooth="yes"/>
      <point x="267" y="-4"/>
      <point x="316" y="21"/>
      <point x="334" y="41" type="curve"/>
      <point x="331" y="57"/>
      <point x="313" y="111"/>
      <point x="309" y="122" type="curve"/>
      <point x="297" y="112"/>
      <point x="266" y="93"/>
      <point x="243" y="93" type="curve" smooth="yes"/>
      <point x="223" y="93"/>
      <point x="212" y="98"/>
      <point x="212" y="139" type="curve" smooth="yes"/>
      <point x="212" y="400" type="line"/>
    </contour>
  </outline>
</glyph>
<glyph name="u" format="1">
  <advance width="539"/>
  <unicode hex="0075"/>
  <outline>
    <contour>
      <point x="345" y="401" type="line" name="hr00"/>
      <point x="345" y="144" type="line"/>
      <point x="334" y="117"/>
      <point x="300" y="92"/>
      <point x="264" y="92" type="curve" smooth="yes"/>
      <point x="223" y="92"/>
      <point x="196" y="117"/>
      <point x="196" y="169" type="curve" smooth="yes"/>
      <point x="196" y="454" type="line"/>
      <point x="161" y="492" type="line"/>
      <point x="13" y="465" type="line"/>
      <point x="24" y="398" type="line"/>
      <point x="75" y="398" type="line"/>
      <point x="75" y="146" type="line" smooth="yes"/>
      <point x="75" y="44"/>
      <point x="136" y="-4"/>
      <point x="230" y="-4" type="curve" smooth="yes"/>
      <point x="274" y="-4"/>
      <point x="325" y="11"/>
      <point x="356" y="44" type="curve"/>
      <point x="372" y="9"/>
      <point x="402" y="-4"/>
      <point x="437" y="-4" type="curve" smooth="yes"/>
      <point x="478" y="-4"/>
      <point x="507" y="20"/>
      <point x="515" y="29" type="curve"/>
      <point x="496" y="85" type="line"/>
      <point x="494" y="85"/>
      <point x="488" y="83"/>
      <point x="482" y="83" type="curve" smooth="yes"/>
      <point x="474" y="83"/>
      <point x="466" y="87"/>
      <point x="466" y="105" type="curve" smooth="yes"/>
      <point x="466" y="454" type="line"/>
      <point x="431" y="492" type="line"/>
      <point x="288" y="465" type="line"/>
      <point x="300" y="398" type="line"/>
    </contour>
  </outline>
</glyph>
<glyph name="v" format="1">
  <advance width="497"/>
  <unicode hex="0076"/>
  <outline>
    <contour>
      <point x="328" y="0" type="line" name="hr00"/>
      <point x="495" y="455" type="line"/>
      <point x="476" y="491" type="line"/>
      <point x="328" y="479" type="line"/>
      <point x="337" y="407" type="line" name="hr01"/>
      <point x="379" y="407" type="line"/>
      <point x="275" y="127" type="line"/>
      <point x="167" y="491" type="line" name="hr02"/>
      <point x="-1" y="479" type="line"/>
      <point x="7" y="407" type="line" name="hr03"/>
      <point x="57" y="407" type="line"/>
      <point x="189" y="0" type="line"/>
    </contour>
  </outline>
</glyph>
<glyph name="w" format="1">
  <advance width="741"/>
  <unicode hex="0077"/>
  <outline>
    <contour>
      <point x="290" y="0" type="line" name="hr00"/>
      <point x="370" y="322" type="line"/>
      <point x="449" y="0" type="line"/>
      <point x="606" y="0" type="line"/>
      <point x="721" y="455" type="line"/>
      <point x="699" y="491" type="line"/>
      <point x="569" y="479" type="line"/>
      <point x="577" y="407" type="line" name="hr01"/>
      <point x="612" y="407" type="line"/>
      <point x="542" y="127" type="line"/>
      <point x="457" y="474" type="line"/>
      <point x="314" y="474" type="line"/>
      <point x="226" y="131" type="line"/>
      <point x="157" y="491" type="line" name="hr02"/>
      <point x="5" y="479" type="line"/>
      <point x="12" y="407" type="line" name="hr03"/>
      <point x="48" y="407" type="line"/>
      <point x="132" y="0" type="line"/>
    </contour>
  </outline>
</glyph>
<glyph name="x" format="1">
  <advance width="471"/>
  <unicode hex="0078"/>
  <outline>
    <contour>
      <point x="138" y="0" type="line" name="hr00"/>
      <point x="218" y="145" type="line"/>
      <point x="298" y="0" type="line"/>
      <point x="444" y="0" type="line"/>
      <point x="444" y="73" type="line"/>
      <point x="402" y="73" type="line"/>
      <point x="305" y="247" type="line"/>
      <point x="403" y="418" type="line"/>
      <point x="445" y="418" type="line"/>
      <point x="445" y="491" type="line"/>
      <point x="335" y="491" type="line"/>
      <point x="256" y="335" type="line"/>
      <point x="169" y="491" type="line"/>
      <point x="27" y="491" type="line"/>
      <point x="27" y="418" type="line"/>
      <point x="69" y="418" type="line"/>
      <point x="165" y="243" type="line"/>
      <point x="68" y="73" type="line"/>
      <point x="26" y="73" type="line"/>
      <point x="26" y="0" type="line"/>
    </contour>
  </outline>
</glyph>
<glyph name="z" format="1">
  <advance width="421"/>
  <unicode hex="007A"/>
  <outline>
    <contour>
      <point x="39" y="0" type="line" name="hr00"/>
      <point x="382" y="0" type="line"/>
      <point x="382" y="163" type="line"/>
      <point x="313" y="163" type="line"/>
      <point x="301" y="97" type="line" name="hr01"/>
      <point x="180" y="97" type="line"/>
      <point x="382" y="395" type="line"/>
      <point x="382" y="491" type="line"/>
      <point x="38" y="491" type="line"/>
      <point x="38" y="329" type="line"/>
      <point x="106" y="329" type="line"/>
      <point x="118" y="397" type="line" name="hr02"/>
      <point x="246" y="397" type="line"/>
      <point x="38" y="96" type="line"/>
    </contour>
  </outline>
</glyph>
<glyph name="braceleft" format="1">
  <advance width="367"/>
  <unicode hex="007B"/>
  <outline>
    <contour>
      <point x="2" y="316" type="curve" name="hr00"/>
      <point x="2" y="234" type="line"/>
      <point x="57" y="234"/>
      <point x="113" y="201"/>
      <point x="113" y="140" type="curve" smooth="yes" name="hr01"/>
      <point x="113" y="109"/>
      <point x="109" y="79"/>
      <point x="109" y="49" type="curve" smooth="yes"/>
      <point x="109" y="-62"/>
      <point x="137" y="-162"/>
      <point x="285" y="-162" type="curve" smooth="yes"/>
      <point x="324" y="-162"/>
      <point x="360" y="-153"/>
      <point x="376" y="-147" type="curve"/>
      <point x="340" y="-30" type="line"/>
      <point x="262" y="-64" type="line"/>
      <point x="236" y="-53"/>
      <point x="232" y="-7"/>
      <point x="232" y="44" type="curve" smooth="yes"/>
      <point x="232" y="77"/>
      <point x="233" y="93"/>
      <point x="233" y="124" type="curve" smooth="yes"/>
      <point x="233" y="227"/>
      <point x="205" y="265"/>
      <point x="137" y="273" type="curve" smooth="yes"/>
      <point x="129" y="274" type="line"/>
      <point x="137" y="277" type="line"/>
      <point x="205" y="286"/>
      <point x="233" y="323"/>
      <point x="233" y="426" type="curve" smooth="yes"/>
      <point x="233" y="457"/>
      <point x="232" y="475"/>
      <point x="232" y="507" type="curve" smooth="yes"/>
      <point x="232" y="559"/>
      <point x="236" y="604"/>
      <point x="262" y="615" type="curve"/>
      <point x="340" y="582" type="line"/>
      <point x="376" y="698" type="line"/>
      <point x="360" y="705"/>
      <point x="324" y="713"/>
      <point x="285" y="713" type="curve" smooth="yes"/>
      <point x="138" y="713"/>
      <point x="109" y="614"/>
      <point x="109" y="503" type="curve" smooth="yes"/>
      <point x="109" y="472"/>
      <point x="113" y="440"/>
      <point x="113" y="408" type="curve" smooth="yes"/>
      <point x="113" y="349"/>
      <point x="57" y="316"/>
    </contour>
  </outline>
</glyph>
<glyph name="bar" format="1">
  <advance width="270"/>
  <unicode hex="007C"/>
  <outline>
    <contour>
      <point x="75" y="689" type="line" name="hr00"/>
      <point x="75" y="-201" type="line"/>
      <point x="195" y="-201" type="line"/>
      <point x="195" y="689" type="line"/>
    </contour>
  </outline>
</glyph>
<glyph name="braceright" format="1">
  <advance width="368"/>
  <unicode hex="007D"/>
  <outline>
    <contour>
      <point x="366" y="316" type="line" name="hr00"/>
      <point x="311" y="316"/>
      <point x="255" y="349"/>
      <point x="255" y="408" type="curve" smooth="yes" name="hr01"/>
      <point x="255" y="440"/>
      <point x="259" y="472"/>
      <point x="259" y="503" type="curve" smooth="yes"/>
      <point x="259" y="614"/>
      <point x="230" y="713"/>
      <point x="83" y="713" type="curve" smooth="yes"/>
      <point x="44" y="713"/>
      <point x="8" y="705"/>
      <point x="-9" y="698" type="curve"/>
      <point x="28" y="582" type="line"/>
      <point x="106" y="615" type="line"/>
      <point x="132" y="604"/>
      <point x="136" y="559"/>
      <point x="136" y="507" type="curve" smooth="yes"/>
      <point x="136" y="475"/>
      <point x="135" y="457"/>
      <point x="135" y="426" type="curve" smooth="yes"/>
      <point x="135" y="323"/>
      <point x="163" y="286"/>
      <point x="231" y="277" type="curve" smooth="yes"/>
      <point x="239" y="276" type="line"/>
      <point x="231" y="273" type="line"/>
      <point x="163" y="265"/>
      <point x="135" y="227"/>
      <point x="135" y="124" type="curve" smooth="yes"/>
      <point x="135" y="93"/>
      <point x="136" y="77"/>
      <point x="136" y="44" type="curve" smooth="yes"/>
      <point x="136" y="-7"/>
      <point x="132" y="-53"/>
      <point x="106" y="-64" type="curve"/>
      <point x="28" y="-30" type="line"/>
      <point x="-9" y="-147" type="line"/>
      <point x="8" y="-153"/>
      <point x="44" y="-162"/>
      <point x="83" y="-162" type="curve" smooth="yes"/>
      <point x="231" y="-162"/>
      <point x="259" y="-62"/>
      <point x="259" y="49" type="curve" smooth="yes"/>
      <point x="259" y="79"/>
      <point x="255" y="109"/>
      <point x="255" y="140" type="curve" smooth="yes"/>
      <point x="255" y="201"/>
      <point x="311" y="234"/>
      <point x="366" y="234" type="curve" name="hr02"/>
    </contour>
  </outline>
</glyph>
<glyph name="asciitilde" format="1">
  <advance width="436"/>
  <unicode hex="007E"/>
  <outline>
    <contour>
      <point x="289" y="639" type="line" name="hr00"/>
      <point x="270" y="639"/>
      <point x="222" y="689"/>
      <point x="152" y="689" type="curve" smooth="yes" name="hr01"/>
      <point x="73" y="689"/>
      <point x="32" y="629"/>
      <point x="20" y="597" type="curve"/>
      <point x="20" y="579" type="line"/>
      <point x="94" y="534" type="line"/>
      <point x="102" y="560"/>
      <point x="124" y="588"/>
      <point x="163" y="588" type="curve" smooth="yes"/>
      <point x="219" y="588"/>
      <point x="239" y="543"/>
      <point x="303" y="543" type="curve" smooth="yes" name="hr02"/>
      <point x="348" y="543"/>
      <point x="396" y="582"/>
      <point x="424" y="622" type="curve"/>
      <point x="343" y="697" type="line" name="hr03"/>
    </contour>
  </outline>
</glyph>
<glyph name="exclamdown" format="1">
  <advance width="264"/>
  <unicode hex="00A1"/>
  <outline>
    <contour>
      <point x="168" y="241" type="line" name="hr00"/>
      <point x="216" y="-163" type="line"/>
      <point x="195" y="-201" type="line"/>
      <point x="51" y="-187" type="line"/>
      <point x="90" y="241" type="line"/>
    </contour>
    <contour>
      <point x="63" y="425" type="curve" smooth="yes" name="hr01"/>
      <point x="63" y="462"/>
      <point x="94" y="492"/>
      <point x="131" y="492" type="curve" smooth="yes"/>
      <point x="167" y="492"/>
      <point x="197" y="462"/>
      <point x="197" y="425" type="curve" smooth="yes"/>
      <point x="197" y="388"/>
      <point x="167" y="359"/>
      <point x="131" y="359" type="curve" smooth="yes"/>
      <point x="94" y="359"/>
      <point x="63" y="388"/>
    </contour>
  </outline>
</glyph>
<glyph name="cent" format="1">
  <advance width="438"/>
  <unicode hex="00A2"/>
  <outline>
    <contour>
      <point x="182" y="689" type="line" name="hr00"/>
      <point x="182" y="483" type="line"/>
      <point x="102" y="461"/>
      <point x="27" y="391"/>
      <point x="27" y="233" type="curve" smooth="yes"/>
      <point x="27" y="100"/>
      <point x="100" y="29"/>
      <point x="182" y="5" type="curve"/>
      <point x="182" y="-200" type="line"/>
      <point x="303" y="-200" type="line"/>
      <point x="303" y="1" type="line"/>
      <point x="344" y="9"/>
      <point x="380" y="26"/>
      <point x="405" y="52" type="curve"/>
      <point x="401" y="68"/>
      <point x="385" y="121"/>
      <point x="379" y="139" type="curve"/>
      <point x="363" y="125"/>
      <point x="324" y="91"/>
      <point x="267" y="91" type="curve" smooth="yes"/>
      <point x="185" y="91"/>
      <point x="151" y="160"/>
      <point x="151" y="238" type="curve" smooth="yes"/>
      <point x="151" y="335"/>
      <point x="187" y="397"/>
      <point x="248" y="397" type="curve"/>
      <point x="291" y="337" type="line"/>
      <point x="412" y="402" type="line"/>
      <point x="406" y="413"/>
      <point x="377" y="465"/>
      <point x="303" y="484" type="curve"/>
      <point x="303" y="689" type="line"/>
    </contour>
  </outline>
</glyph>
<glyph name="sterling" format="1">
  <advance width="528"/>
  <unicode hex="00A3"/>
  <outline>
    <contour>
      <point x="423" y="318" type="line" name="hr00"/>
      <point x="423" y="405" type="line" smooth="yes"/>
      <point x="423" y="411"/>
      <point x="421" y="413"/>
      <point x="416" y="413" type="curve" smooth="yes"/>
      <point x="291" y="413" type="line"/>
      <point x="292" y="437"/>
      <point x="292" y="458"/>
      <point x="292" y="485" type="curve" smooth="yes"/>
      <point x="292" y="554"/>
      <point x="292" y="586"/>
      <point x="341" y="586" type="curve"/>
      <point x="383" y="538" type="line"/>
      <point x="474" y="639" type="line"/>
      <point x="454" y="654"/>
      <point x="398" y="692"/>
      <point x="333" y="692" type="curve" smooth="yes"/>
      <point x="251" y="692"/>
      <point x="162" y="645"/>
      <point x="162" y="508" type="curve" smooth="yes"/>
      <point x="162" y="489"/>
      <point x="163" y="470"/>
      <point x="163" y="451" type="curve" smooth="yes"/>
      <point x="163" y="438"/>
      <point x="163" y="425"/>
      <point x="162" y="413" type="curve"/>
      <point x="98" y="413" type="line"/>
      <point x="90" y="404" type="line"/>
      <point x="90" y="318" type="line"/>
      <point x="155" y="318" type="line"/>
      <point x="145" y="241"/>
      <point x="120" y="164"/>
      <point x="67" y="108" type="curve" smooth="yes"/>
      <point x="51" y="91"/>
      <point x="35" y="72"/>
      <point x="25" y="48" type="curve"/>
      <point x="28" y="3" type="line"/>
      <point x="103" y="-4" type="line"/>
      <point x="110" y="18"/>
      <point x="130" y="41"/>
      <point x="176" y="41" type="curve" smooth="yes"/>
      <point x="227" y="41"/>
      <point x="298" y="-4"/>
      <point x="385" y="-4" type="curve" smooth="yes"/>
      <point x="423" y="-4"/>
      <point x="471" y="5"/>
      <point x="498" y="34" type="curve"/>
      <point x="429" y="144" type="line"/>
      <point x="393" y="102" type="line"/>
      <point x="369" y="102"/>
      <point x="308" y="129"/>
      <point x="244" y="143" type="curve"/>
      <point x="263" y="191"/>
      <point x="276" y="255"/>
      <point x="283" y="318" type="curve"/>
    </contour>
  </outline>
</glyph>
<glyph name="currency" format="1">
  <advance width="585"/>
  <unicode hex="00A4"/>
  <outline>
    <contour>
      <point x="97" y="346" type="curve" smooth="yes" name="hr00"/>
      <point x="97" y="311"/>
      <point x="106" y="278"/>
      <point x="122" y="250" type="curve"/>
      <point x="44" y="172" type="line"/>
      <point x="119" y="98" type="line"/>
      <point x="196" y="175" type="line"/>
      <point x="224" y="159"/>
      <point x="257" y="150"/>
      <point x="293" y="150" type="curve" smooth="yes"/>
      <point x="328" y="150"/>
      <point x="361" y="159"/>
      <point x="390" y="175" type="curve"/>
      <point x="467" y="98" type="line"/>
      <point x="542" y="172" type="line"/>
      <point x="464" y="250" type="line"/>
      <point x="480" y="278"/>
      <point x="489" y="311"/>
      <point x="489" y="346" type="curve" smooth="yes"/>
      <point x="489" y="382"/>
      <point x="479" y="416"/>
      <point x="462" y="445" type="curve"/>
      <point x="542" y="525" type="line"/>
      <point x="467" y="600" type="line"/>
      <point x="387" y="519" type="line"/>
      <point x="359" y="534"/>
      <point x="327" y="543"/>
      <point x="293" y="543" type="curve" smooth="yes"/>
      <point x="259" y="543"/>
      <point x="227" y="534"/>
      <point x="199" y="519" type="curve"/>
      <point x="119" y="600" type="line"/>
      <point x="44" y="525" type="line"/>
      <point x="123" y="446" type="line"/>
      <point x="106" y="417"/>
      <point x="97" y="382"/>
    </contour>
    <contour>
      <point x="201" y="346" type="curve" smooth="yes"/>
      <point x="201" y="400"/>
      <point x="238" y="438"/>
      <point x="293" y="438" type="curve" smooth="yes"/>
      <point x="347" y="438"/>
      <point x="384" y="400"/>
      <point x="384" y="346" type="curve" smooth="yes"/>
      <point x="384" y="292"/>
      <point x="347" y="254"/>
      <point x="293" y="254" type="curve" smooth="yes"/>
      <point x="238" y="254"/>
      <point x="201" y="292"/>
    </contour>
  </outline>
</glyph>
<glyph name="yen" format="1">
  <advance width="634"/>
  <unicode hex="00A5"/>
  <outline>
    <contour>
      <point x="25" y="691" type="line" name="hr00"/>
      <point x="25" y="602" type="line"/>
      <point x="65" y="592" type="line"/>
      <point x="248" y="315" type="line"/>
      <point x="139" y="315" type="line"/>
      <point x="139" y="226" type="line"/>
      <point x="256" y="226" type="line"/>
      <point x="256" y="212" type="line"/>
      <point x="139" y="212" type="line"/>
      <point x="139" y="123" type="line" name="hr01"/>
      <point x="256" y="123" type="line"/>
      <point x="256" y="96" type="line"/>
      <point x="142" y="73" type="line"/>
      <point x="152" y="0" type="line" name="hr02"/>
      <point x="493" y="0" type="line"/>
      <point x="502" y="73" type="line"/>
      <point x="387" y="96" type="line"/>
      <point x="387" y="123" type="line" name="hr03"/>
      <point x="494" y="123" type="line"/>
      <point x="494" y="212" type="line"/>
      <point x="387" y="212" type="line"/>
      <point x="387" y="226" type="line"/>
      <point x="494" y="226" type="line"/>
      <point x="494" y="315" type="line"/>
      <point x="395" y="315" type="line"/>
      <point x="565" y="592" type="line"/>
      <point x="609" y="603" type="line"/>
      <point x="609" y="691" type="line"/>
      <point x="388" y="691" type="line"/>
      <point x="388" y="612" type="line"/>
      <point x="449" y="601" type="line"/>
      <point x="338" y="418" type="line"/>
      <point x="213" y="598" type="line"/>
      <point x="284" y="612" type="line"/>
      <point x="269" y="691" type="line"/>
    </contour>
  </outline>
</glyph>
<glyph name="brokenbar" format="1">
  <advance width="275"/>
  <unicode hex="00A6"/>
  <outline>
    <contour>
      <point x="198" y="286" type="line" name="hr00"/>
      <point x="198" y="690" type="line"/>
      <point x="77" y="690" type="line"/>
      <point x="77" y="286" type="line"/>
    </contour>
    <contour>
      <point x="198" y="-247" type="line"/>
      <point x="198" y="152" type="line"/>
      <point x="77" y="152" type="line"/>
      <point x="77" y="-247" type="line"/>
    </contour>
  </outline>
</glyph>
<glyph name="section" format="1">
  <advance width="512"/>
  <unicode hex="00A7"/>
  <outline>
    <contour>
      <point x="470" y="249" type="curve" smooth="yes" name="hr00"/>
      <point x="470" y="308"/>
      <point x="447" y="359"/>
      <point x="335" y="412" type="curve" smooth="yes"/>
      <point x="253" y="450"/>
      <point x="189" y="469"/>
      <point x="189" y="530" type="curve" smooth="yes"/>
      <point x="189" y="567"/>
      <point x="217" y="597"/>
      <point x="273" y="597" type="curve" smooth="yes"/>
      <point x="300" y="597"/>
      <point x="326" y="593"/>
      <point x="343" y="589" type="curve"/>
      <point x="388" y="474" type="line" name="hr01"/>
      <point x="472" y="474" type="line"/>
      <point x="457" y="665" type="line"/>
      <point x="405" y="680"/>
      <point x="339" y="692"/>
      <point x="268" y="692" type="curve" smooth="yes"/>
      <point x="139" y="692"/>
      <point x="52" y="613"/>
      <point x="52" y="512" type="curve" smooth="yes"/>
      <point x="52" y="456"/>
      <point x="75" y="417"/>
      <point x="108" y="387" type="curve"/>
      <point x="75" y="359"/>
      <point x="51" y="322"/>
      <point x="51" y="276" type="curve" smooth="yes"/>
      <point x="51" y="95"/>
      <point x="327" y="114"/>
      <point x="327" y="3" type="curve" smooth="yes"/>
      <point x="327" y="-44"/>
      <point x="286" y="-66"/>
      <point x="228" y="-66" type="curve" smooth="yes"/>
      <point x="194" y="-66"/>
      <point x="172" y="-60"/>
      <point x="145" y="-54" type="curve"/>
      <point x="136" y="67" type="line"/>
      <point x="52" y="75" type="line"/>
      <point x="32" y="-119" type="line"/>
      <point x="86" y="-140"/>
      <point x="146" y="-161"/>
      <point x="223" y="-161" type="curve" smooth="yes"/>
      <point x="345" y="-161"/>
      <point x="463" y="-110"/>
      <point x="463" y="30" type="curve" smooth="yes"/>
      <point x="463" y="75"/>
      <point x="450" y="108"/>
      <point x="418" y="139" type="curve"/>
      <point x="448" y="168"/>
      <point x="470" y="206"/>
    </contour>
    <contour>
      <point x="267" y="303" type="curve" smooth="yes"/>
      <point x="312" y="281"/>
      <point x="334" y="266"/>
      <point x="334" y="237" type="curve" smooth="yes"/>
      <point x="334" y="224"/>
      <point x="326" y="212"/>
      <point x="317" y="203" type="curve"/>
      <point x="316" y="203"/>
      <point x="315" y="204"/>
      <point x="314" y="205" type="curve"/>
      <point x="259" y="231"/>
      <point x="187" y="249"/>
      <point x="187" y="292" type="curve" smooth="yes"/>
      <point x="187" y="308"/>
      <point x="193" y="321"/>
      <point x="202" y="331" type="curve"/>
      <point x="226" y="320"/>
      <point x="249" y="311"/>
    </contour>
  </outline>
</glyph>
<glyph name="copyright" format="1">
  <advance width="752"/>
  <unicode hex="00A9"/>
  <outline>
    <contour>
      <point x="30" y="373" type="curve" smooth="yes" name="hr00"/>
      <point x="30" y="183"/>
      <point x="185" y="27"/>
      <point x="375" y="27" type="curve" smooth="yes"/>
      <point x="565" y="27"/>
      <point x="722" y="183"/>
      <point x="722" y="373" type="curve" smooth="yes"/>
      <point x="722" y="563"/>
      <point x="565" y="719"/>
      <point x="375" y="719" type="curve" smooth="yes"/>
      <point x="185" y="719"/>
      <point x="30" y="563"/>
    </contour>
    <contour>
      <point x="447" y="306" type="line"/>
      <point x="431" y="298"/>
      <point x="409" y="289"/>
      <point x="384" y="289" type="curve" smooth="yes"/>
      <point x="339" y="289"/>
      <point x="297" y="324"/>
      <point x="297" y="373" type="curve" smooth="yes"/>
      <point x="297" y="423"/>
      <point x="324" y="460"/>
      <point x="377" y="460" type="curve" smooth="yes"/>
      <point x="382" y="460"/>
      <point x="387" y="460"/>
      <point x="393" y="459" type="curve"/>
      <point x="408" y="413" type="line"/>
      <point x="463" y="413" type="line"/>
      <point x="454" y="552" type="line"/>
      <point x="440" y="555"/>
      <point x="418" y="558"/>
      <point x="387" y="558" type="curve" smooth="yes"/>
      <point x="288" y="558"/>
      <point x="203" y="492"/>
      <point x="203" y="371" type="curve" smooth="yes"/>
      <point x="203" y="262"/>
      <point x="287" y="191"/>
      <point x="388" y="191" type="curve" smooth="yes"/>
      <point x="426" y="191"/>
      <point x="459" y="205"/>
      <point x="482" y="220" type="curve"/>
    </contour>
    <contour>
      <point x="160" y="374" type="curve" smooth="yes"/>
      <point x="160" y="492"/>
      <point x="258" y="589"/>
      <point x="376" y="589" type="curve" smooth="yes"/>
      <point x="495" y="589"/>
      <point x="591" y="492"/>
      <point x="591" y="374" type="curve" smooth="yes"/>
      <point x="591" y="255"/>
      <point x="495" y="157"/>
      <point x="376" y="157" type="curve" smooth="yes"/>
      <point x="258" y="157"/>
      <point x="160" y="255"/>
    </contour>
  </outline>
</glyph>
<glyph name="guillemotleft" format="1">
  <advance width="469"/>
  <unicode hex="00AB"/>
  <outline>
    <contour>
      <point x="214" y="553" type="line" name="hr00"/>
      <point x="1" y="339" type="line"/>
      <point x="214" y="123" type="line"/>
      <point x="280" y="190" type="line"/>
      <point x="133" y="337" type="line"/>
      <point x="281" y="486" type="line"/>
    </contour>
    <contour>
      <point x="369" y="532" type="line"/>
      <point x="176" y="339" type="line"/>
      <point x="369" y="144" type="line"/>
      <point x="435" y="211" type="line"/>
      <point x="309" y="337" type="line"/>
      <point x="436" y="465" type="line"/>
    </contour>
  </outline>
</glyph>
<glyph name="registered" format="1">
  <advance width="752"/>
  <unicode hex="00AE"/>
  <outline>
    <contour>
      <point x="30" y="373" type="curve" smooth="yes" name="hr00"/>
      <point x="30" y="183"/>
      <point x="185" y="27"/>
      <point x="375" y="27" type="curve" smooth="yes"/>
      <point x="565" y="27"/>
      <point x="722" y="183"/>
      <point x="722" y="373" type="curve" smooth="yes"/>
      <point x="722" y="563"/>
      <point x="565" y="719"/>
      <point x="375" y="719" type="curve" smooth="yes"/>
      <point x="185" y="719"/>
      <point x="30" y="563"/>
    </contour>
    <contour>
      <point x="160" y="374" type="curve" smooth="yes"/>
      <point x="160" y="492"/>
      <point x="258" y="589"/>
      <point x="376" y="589" type="curve" smooth="yes"/>
      <point x="495" y="589"/>
      <point x="591" y="492"/>
      <point x="591" y="374" type="curve" smooth="yes"/>
      <point x="591" y="255"/>
      <point x="495" y="157"/>
      <point x="376" y="157" type="curve" smooth="yes"/>
      <point x="258" y="157"/>
      <point x="160" y="255"/>
    </contour>
    <contour>
      <point x="249" y="208" type="line"/>
      <point x="387" y="208" type="line"/>
      <point x="387" y="257" type="line"/>
      <point x="346" y="268" type="line"/>
      <point x="346" y="306" type="line"/>
      <point x="359" y="306"/>
      <point x="371" y="306"/>
      <point x="383" y="307" type="curve"/>
      <point x="413" y="208" type="line"/>
      <point x="512" y="208" type="line"/>
      <point x="512" y="265" type="line"/>
      <point x="485" y="269" type="line"/>
      <point x="462" y="331" type="line"/>
      <point x="494" y="351"/>
      <point x="510" y="382"/>
      <point x="510" y="423" type="curve" smooth="yes"/>
      <point x="510" y="481"/>
      <point x="473" y="540"/>
      <point x="353" y="540" type="curve" smooth="yes"/>
      <point x="246" y="540" type="line"/>
      <point x="246" y="472" type="line"/>
      <point x="251" y="471"/>
      <point x="254" y="470"/>
      <point x="267" y="469" type="curve"/>
      <point x="267" y="267" type="line"/>
      <point x="247" y="259" type="line"/>
    </contour>
    <contour>
      <point x="346" y="379" type="curve"/>
      <point x="346" y="466" type="line"/>
      <point x="410" y="466"/>
      <point x="426" y="448"/>
      <point x="426" y="423" type="curve" smooth="yes"/>
      <point x="426" y="398"/>
      <point x="416" y="379"/>
    </contour>
  </outline>
</glyph>
<glyph name="macron" format="1">
  <advance width="443"/>
  <unicode hex="00AF"/>
  <outline>
    <contour>
      <point x="57" y="629" type="line" name="hr00"/>
      <point x="386" y="629" type="line"/>
      <point x="386" y="726" type="line"/>
      <point x="57" y="726" type="line"/>
    </contour>
  </outline>
</glyph>
<glyph name="degree" format="1">
  <advance width="346"/>
  <unicode hex="00B0"/>
  <outline>
    <contour>
      <point x="28" y="564" type="curve" smooth="yes" name="hr00"/>
      <point x="28" y="467"/>
      <point x="86" y="401"/>
      <point x="172" y="401" type="curve" smooth="yes"/>
      <point x="258" y="401"/>
      <point x="318" y="467"/>
      <point x="318" y="564" type="curve" smooth="yes"/>
      <point x="318" y="656"/>
      <point x="258" y="724"/>
      <point x="172" y="724" type="curve" smooth="yes"/>
      <point x="86" y="724"/>
      <point x="28" y="656"/>
    </contour>
    <contour>
      <point x="133" y="564" type="curve" smooth="yes"/>
      <point x="133" y="585"/>
      <point x="135" y="633"/>
      <point x="172" y="633" type="curve" smooth="yes"/>
      <point x="209" y="633"/>
      <point x="213" y="585"/>
      <point x="213" y="564" type="curve" smooth="yes"/>
      <point x="213" y="543"/>
      <point x="209" y="491"/>
      <point x="172" y="491" type="curve" smooth="yes"/>
      <point x="135" y="491"/>
      <point x="133" y="543"/>
    </contour>
  </outline>
</glyph>
<glyph name="twosuperior" format="1">
  <advance width="336"/>
  <unicode hex="00B2"/>
  <outline>
    <contour>
      <point x="285" y="402" type="line" name="hr00"/>
      <point x="296" y="513" type="line"/>
      <point x="243" y="513" type="line"/>
      <point x="225" y="477" type="line"/>
      <point x="168" y="477" type="line"/>
      <point x="199" y="498"/>
      <point x="290" y="541"/>
      <point x="290" y="627" type="curve" smooth="yes"/>
      <point x="290" y="698"/>
      <point x="223" y="728"/>
      <point x="170" y="728" type="curve" smooth="yes"/>
      <point x="113" y="728"/>
      <point x="51" y="697"/>
      <point x="27" y="635" type="curve"/>
      <point x="116" y="607" type="line"/>
      <point x="136" y="648" type="line"/>
      <point x="141" y="649"/>
      <point x="146" y="651"/>
      <point x="153" y="651" type="curve" smooth="yes"/>
      <point x="168" y="651"/>
      <point x="185" y="646"/>
      <point x="185" y="619" type="curve" smooth="yes"/>
      <point x="185" y="568"/>
      <point x="66" y="488"/>
      <point x="41" y="461" type="curve"/>
      <point x="58" y="402" type="line"/>
    </contour>
  </outline>
</glyph>
<glyph name="threesuperior" format="1">
  <advance width="323"/>
  <unicode hex="00B3"/>
  <outline>
    <contour>
      <point x="28" y="443" type="line" name="hr00"/>
      <point x="45" y="427"/>
      <point x="94" y="402"/>
      <point x="147" y="402" type="curve" smooth="yes"/>
      <point x="220" y="402"/>
      <point x="290" y="424"/>
      <point x="290" y="497" type="curve" smooth="yes"/>
      <point x="290" y="549"/>
      <point x="252" y="567"/>
      <point x="228" y="570" type="curve"/>
      <point x="255" y="577"/>
      <point x="283" y="595"/>
      <point x="283" y="640" type="curve" smooth="yes"/>
      <point x="283" y="690"/>
      <point x="228" y="728"/>
      <point x="167" y="728" type="curve" smooth="yes"/>
      <point x="108" y="728"/>
      <point x="54" y="705"/>
      <point x="31" y="650" type="curve"/>
      <point x="114" y="621" type="line"/>
      <point x="129" y="648" type="line"/>
      <point x="134" y="649"/>
      <point x="139" y="652"/>
      <point x="152" y="652" type="curve" smooth="yes"/>
      <point x="167" y="652"/>
      <point x="178" y="642"/>
      <point x="178" y="630" type="curve" smooth="yes"/>
      <point x="178" y="613"/>
      <point x="171" y="592"/>
      <point x="112" y="592" type="curve"/>
      <point x="112" y="540" type="line"/>
      <point x="174" y="540"/>
      <point x="185" y="531"/>
      <point x="185" y="508" type="curve" smooth="yes"/>
      <point x="185" y="490"/>
      <point x="169" y="476"/>
      <point x="145" y="476" type="curve" smooth="yes"/>
      <point x="109" y="476"/>
      <point x="81" y="492"/>
      <point x="62" y="511" type="curve"/>
    </contour>
  </outline>
</glyph>
<glyph name="mu" format="1">
  <advance width="562"/>
  <unicode hex="00B5"/>
  <unicode hex="03BC"/>
  <outline>
    <contour>
      <point x="209" y="-274" type="line" name="hr00"/>
      <point x="209" y="-41" type="line" smooth="yes"/>
      <point x="209" y="-31"/>
      <point x="207" y="-13"/>
      <point x="205" y="3" type="curve"/>
      <point x="223" y="-1"/>
      <point x="243" y="-4"/>
      <point x="262" y="-4" type="curve" smooth="yes"/>
      <point x="299" y="-4"/>
      <point x="339" y="10"/>
      <point x="369" y="43" type="curve"/>
      <point x="385" y="9"/>
      <point x="415" y="-4"/>
      <point x="450" y="-4" type="curve" smooth="yes"/>
      <point x="491" y="-4"/>
      <point x="519" y="20"/>
      <point x="527" y="29" type="curve"/>
      <point x="508" y="85" type="line"/>
      <point x="506" y="85"/>
      <point x="500" y="83"/>
      <point x="494" y="83" type="curve" smooth="yes"/>
      <point x="486" y="83"/>
      <point x="478" y="87"/>
      <point x="478" y="105" type="curve" smooth="yes"/>
      <point x="478" y="454" type="line"/>
      <point x="443" y="492" type="line"/>
      <point x="301" y="465" type="line"/>
      <point x="312" y="398" type="line"/>
      <point x="357" y="401" type="line"/>
      <point x="357" y="144" type="line"/>
      <point x="346" y="117"/>
      <point x="312" y="92"/>
      <point x="276" y="92" type="curve" smooth="yes"/>
      <point x="240" y="92"/>
      <point x="214" y="111"/>
      <point x="209" y="151" type="curve"/>
      <point x="209" y="458" type="line"/>
      <point x="175" y="492" type="line"/>
      <point x="25" y="465" type="line"/>
      <point x="35" y="398" type="line"/>
      <point x="88" y="398" type="line"/>
      <point x="88" y="-274" type="line"/>
    </contour>
  </outline>
</glyph>
<glyph name="cedilla" format="1">
  <advance width="415"/>
  <unicode hex="00B8"/>
  <outline>
    <contour>
      <point x="158" y="-101" type="line" name="hr00"/>
      <point x="171" y="-102" type="line"/>
      <point x="228" y="-102"/>
      <point x="249" y="-129"/>
      <point x="249" y="-159" type="curve" smooth="yes"/>
      <point x="249" y="-197"/>
      <point x="206" y="-210"/>
      <point x="186" y="-210" type="curve"/>
      <point x="114" y="-162" type="line"/>
      <point x="64" y="-259" type="line"/>
      <point x="97" y="-271"/>
      <point x="137" y="-286"/>
      <point x="192" y="-286" type="curve" smooth="yes"/>
      <point x="296" y="-286"/>
      <point x="357" y="-224"/>
      <point x="357" y="-156" type="curve" smooth="yes"/>
      <point x="357" y="-83"/>
      <point x="306" y="-52"/>
      <point x="253" y="-41" type="curve"/>
      <point x="271" y="15" type="line"/>
      <point x="168" y="15" type="line"/>
      <point x="134" y="-82" type="line"/>
    </contour>
  </outline>
</glyph>
<glyph name="onesuperior" format="1">
  <advance width="260"/>
  <unicode hex="00B9"/>
  <outline>
    <contour>
      <point x="49" y="402" type="line" name="hr00"/>
      <point x="226" y="402" type="line"/>
      <point x="226" y="449" type="line"/>
      <point x="189" y="458" type="line"/>
      <point x="189" y="667" type="line"/>
      <point x="192" y="715" type="line"/>
      <point x="175" y="727" type="line"/>
      <point x="26" y="689" type="line"/>
      <point x="35" y="644" type="line"/>
      <point x="84" y="652" type="line"/>
      <point x="84" y="455" type="line"/>
      <point x="46" y="447" type="line"/>
    </contour>
  </outline>
</glyph>
<glyph name="onequarter" format="1">
  <advance width="757"/>
  <unicode hex="00BC"/>
  <outline>
    <contour>
      <point x="571" y="677" type="line" name="hr00"/>
      <point x="572" y="691" type="line"/>
      <point x="444" y="691" type="line"/>
      <point x="126" y="13" type="line"/>
      <point x="129" y="0" type="line"/>
      <point x="254" y="0" type="line"/>
    </contour>
    <contour>
      <point x="725" y="185" type="line"/>
      <point x="680" y="185" type="line"/>
      <point x="680" y="400" type="line"/>
      <point x="564" y="400" type="line"/>
      <point x="394" y="181" type="line"/>
      <point x="394" y="101" type="line" name="hr01"/>
      <point x="564" y="101" type="line"/>
      <point x="564" y="63" type="line"/>
      <point x="480" y="49" type="line"/>
      <point x="486" y="0" type="line" name="hr02"/>
      <point x="726" y="0" type="line"/>
      <point x="726" y="58" type="line"/>
      <point x="680" y="66" type="line"/>
      <point x="680" y="101" type="line" name="hr03"/>
      <point x="725" y="101" type="line"/>
    </contour>
    <contour>
      <point x="45" y="315" type="line"/>
      <point x="248" y="315" type="line"/>
      <point x="248" y="373" type="line"/>
      <point x="206" y="381" type="line"/>
      <point x="206" y="702" type="line"/>
      <point x="193" y="714" type="line"/>
      <point x="29" y="666" type="line"/>
      <point x="37" y="600" type="line"/>
      <point x="91" y="608" type="line"/>
      <point x="91" y="378" type="line"/>
      <point x="45" y="371" type="line"/>
    </contour>
    <contour>
      <point x="490" y="185" type="line"/>
      <point x="564" y="269" type="line"/>
      <point x="564" y="185" type="line"/>
    </contour>
  </outline>
</glyph>
<glyph name="onehalf" format="1">
  <advance width="784"/>
  <unicode hex="00BD"/>
  <outline>
    <contour>
      <point x="739" y="-1" type="line" name="hr00"/>
      <point x="755" y="149" type="line"/>
      <point x="703" y="149" type="line"/>
      <point x="679" y="88" type="line"/>
      <point x="612" y="88" type="line"/>
      <point x="644" y="111"/>
      <point x="740" y="209"/>
      <point x="740" y="284" type="curve" smooth="yes"/>
      <point x="740" y="373"/>
      <point x="671" y="399"/>
      <point x="598" y="399" type="curve" smooth="yes"/>
      <point x="541" y="399"/>
      <point x="480" y="369"/>
      <point x="445" y="294" type="curve"/>
      <point x="562" y="249" type="line"/>
      <point x="580" y="302" type="line"/>
      <point x="585" y="304"/>
      <point x="591" y="304"/>
      <point x="598" y="304" type="curve" smooth="yes"/>
      <point x="613" y="304"/>
      <point x="622" y="294"/>
      <point x="622" y="280" type="curve" smooth="yes"/>
      <point x="622" y="235"/>
      <point x="483" y="104"/>
      <point x="453" y="68" type="curve"/>
      <point x="472" y="-1" type="line"/>
    </contour>
    <contour>
      <point x="580" y="677" type="line"/>
      <point x="581" y="691" type="line"/>
      <point x="453" y="691" type="line"/>
      <point x="135" y="13" type="line"/>
      <point x="138" y="0" type="line" name="hr01"/>
      <point x="263" y="0" type="line"/>
    </contour>
    <contour>
      <point x="45" y="315" type="line"/>
      <point x="244" y="315" type="line"/>
      <point x="244" y="373" type="line"/>
      <point x="206" y="381" type="line"/>
      <point x="206" y="702" type="line"/>
      <point x="193" y="714" type="line"/>
      <point x="29" y="666" type="line"/>
      <point x="37" y="600" type="line"/>
      <point x="91" y="608" type="line"/>
      <point x="91" y="378" type="line"/>
      <point x="45" y="371" type="line"/>
    </contour>
  </outline>
</glyph>
<glyph name="threequarters" format="1">
  <advance width="805"/>
  <unicode hex="00BE"/>
  <outline>
    <contour>
      <point x="634" y="677" type="line" name="hr00"/>
      <point x="635" y="691" type="line"/>
      <point x="507" y="691" type="line"/>
      <point x="189" y="13" type="line"/>
      <point x="192" y="0" type="line"/>
      <point x="317" y="0" type="line"/>
    </contour>
    <contour>
      <point x="771" y="185" type="line"/>
      <point x="726" y="185" type="line"/>
      <point x="726" y="400" type="line"/>
      <point x="617" y="400" type="line"/>
      <point x="440" y="181" type="line"/>
      <point x="440" y="101" type="line" name="hr01"/>
      <point x="610" y="101" type="line"/>
      <point x="610" y="63" type="line"/>
      <point x="526" y="49" type="line"/>
      <point x="532" y="0" type="line" name="hr02"/>
      <point x="772" y="0" type="line"/>
      <point x="772" y="58" type="line"/>
      <point x="726" y="66" type="line"/>
      <point x="726" y="101" type="line" name="hr03"/>
      <point x="771" y="101" type="line"/>
    </contour>
    <contour>
      <point x="332" y="607" type="curve" smooth="yes"/>
      <point x="332" y="688"/>
      <point x="265" y="715"/>
      <point x="191" y="715" type="curve" smooth="yes"/>
      <point x="123" y="715"/>
      <point x="50" y="679"/>
      <point x="26" y="605" type="curve"/>
      <point x="134" y="565" type="line"/>
      <point x="152" y="615" type="line"/>
      <point x="157" y="617"/>
      <point x="163" y="621"/>
      <point x="177" y="621" type="curve" smooth="yes"/>
      <point x="202" y="621"/>
      <point x="215" y="605"/>
      <point x="215" y="589" type="curve" smooth="yes"/>
      <point x="215" y="564"/>
      <point x="196" y="553"/>
      <point x="158" y="553" type="curve" smooth="yes"/>
      <point x="153" y="553"/>
      <point x="148" y="554"/>
      <point x="143" y="554" type="curve" name="hr04"/>
      <point x="143" y="481" type="line"/>
      <point x="150" y="481"/>
      <point x="156" y="482"/>
      <point x="162" y="482" type="curve" smooth="yes"/>
      <point x="202" y="482"/>
      <point x="217" y="469"/>
      <point x="217" y="443" type="curve" smooth="yes"/>
      <point x="217" y="417"/>
      <point x="192" y="407"/>
      <point x="173" y="407" type="curve" smooth="yes"/>
      <point x="153" y="407"/>
      <point x="120" y="419"/>
      <point x="94" y="444" type="curve"/>
      <point x="37" y="363" type="line"/>
      <point x="58" y="343"/>
      <point x="104" y="313"/>
      <point x="174" y="313" type="curve" smooth="yes"/>
      <point x="264" y="313"/>
      <point x="339" y="353"/>
      <point x="339" y="441" type="curve" smooth="yes"/>
      <point x="339" y="492"/>
      <point x="304" y="511"/>
      <point x="283" y="523" type="curve"/>
      <point x="314" y="535"/>
      <point x="332" y="570"/>
    </contour>
    <contour>
      <point x="536" y="185" type="line"/>
      <point x="610" y="269" type="line"/>
      <point x="610" y="185" type="line"/>
    </contour>
  </outline>
</glyph>
<glyph name="questiondown" format="1">
  <advance width="407"/>
  <unicode hex="00BF"/>
  <outline>
    <contour>
      <point x="195" y="252" type="line" name="hr00"/>
      <point x="195" y="243" type="line" smooth="yes"/>
      <point x="195" y="136"/>
      <point x="22" y="127"/>
      <point x="22" y="-50" type="curve" smooth="yes"/>
      <point x="22" y="-130"/>
      <point x="83" y="-202"/>
      <point x="201" y="-202" type="curve" smooth="yes"/>
      <point x="269" y="-202"/>
      <point x="315" y="-185"/>
      <point x="357" y="-170" type="curve"/>
      <point x="373" y="5" type="line"/>
      <point x="302" y="5" type="line"/>
      <point x="276" y="-90" type="line"/>
      <point x="268" y="-95"/>
      <point x="247" y="-99"/>
      <point x="223" y="-99" type="curve" smooth="yes" name="hr01"/>
      <point x="186" y="-99"/>
      <point x="159" y="-76"/>
      <point x="159" y="-34" type="curve" smooth="yes"/>
      <point x="159" y="56"/>
      <point x="304" y="64"/>
      <point x="304" y="185" type="curve" smooth="yes" name="hr02"/>
      <point x="304" y="214"/>
      <point x="297" y="246"/>
      <point x="295" y="253" type="curve"/>
    </contour>
    <contour>
      <point x="312" y="425" type="curve" smooth="yes"/>
      <point x="312" y="462"/>
      <point x="282" y="492"/>
      <point x="245" y="492" type="curve" smooth="yes"/>
      <point x="208" y="492"/>
      <point x="179" y="462"/>
      <point x="179" y="425" type="curve" smooth="yes" name="hr03"/>
      <point x="179" y="388"/>
      <point x="208" y="359"/>
      <point x="245" y="359" type="curve" smooth="yes"/>
      <point x="282" y="359"/>
      <point x="312" y="388"/>
    </contour>
  </outline>
</glyph>
<glyph name="Agrave" format="1">
  <advance width="621"/>
  <unicode hex="00C0"/>
  <outline>
    <contour>
      <point x="609" y="0" type="line" name="hr00"/>
      <point x="619" y="78" type="line"/>
      <point x="573" y="96" type="line"/>
      <point x="372" y="691" type="line"/>
      <point x="248" y="691" type="line"/>
      <point x="50" y="96" type="line"/>
      <point x="-5" y="78" type="line"/>
      <point x="8" y="0" type="line"/>
      <point x="247" y="0" type="line"/>
      <point x="247" y="76" type="line"/>
      <point x="159" y="92" type="line"/>
      <point x="197" y="218" type="line"/>
      <point x="393" y="218" type="line"/>
      <point x="429" y="96" type="line"/>
      <point x="349" y="75" type="line"/>
      <point x="349" y="0" type="line"/>
    </contour>
    <contour>
      <point x="296" y="549" type="line"/>
      <point x="349" y="323" type="line"/>
      <point x="228" y="323" type="line"/>
    </contour>
    <contour>
      <point x="418" y="765" type="line"/>
      <point x="306" y="942" type="line"/>
      <point x="271" y="959" type="line"/>
      <point x="194" y="868" type="line"/>
      <point x="377" y="724" type="line"/>
    </contour>
  </outline>
</glyph>
<glyph name="Atilde" format="1">
  <advance width="621"/>
  <unicode hex="00C3"/>
  <outline>
    <contour>
      <point x="379" y="823" type="line" name="hr00"/>
      <point x="360" y="823"/>
      <point x="312" y="873"/>
      <point x="242" y="873" type="curve" smooth="yes"/>
      <point x="163" y="873"/>
      <point x="122" y="813"/>
      <point x="110" y="781" type="curve"/>
      <point x="110" y="762" type="line"/>
      <point x="184" y="718" type="line"/>
      <point x="192" y="743"/>
      <point x="214" y="772"/>
      <point x="253" y="772" type="curve" smooth="yes"/>
      <point x="309" y="772"/>
      <point x="329" y="727"/>
      <point x="391" y="727" type="curve" smooth="yes" name="hr01"/>
      <point x="437" y="727"/>
      <point x="485" y="765"/>
      <point x="514" y="805" type="curve"/>
      <point x="433" y="881" type="line" name="hr02"/>
    </contour>
    <contour>
      <point x="609" y="0" type="line"/>
      <point x="619" y="78" type="line"/>
      <point x="573" y="96" type="line"/>
      <point x="372" y="691" type="line"/>
      <point x="248" y="691" type="line"/>
      <point x="50" y="96" type="line"/>
      <point x="-5" y="78" type="line"/>
      <point x="8" y="0" type="line"/>
      <point x="247" y="0" type="line"/>
      <point x="247" y="76" type="line"/>
      <point x="159" y="92" type="line"/>
      <point x="197" y="218" type="line"/>
      <point x="393" y="218" type="line"/>
      <point x="429" y="96" type="line"/>
      <point x="349" y="75" type="line"/>
      <point x="349" y="0" type="line"/>
    </contour>
    <contour>
      <point x="296" y="549" type="line"/>
      <point x="349" y="323" type="line"/>
      <point x="228" y="323" type="line"/>
    </contour>
  </outline>
</glyph>
<glyph name="Adieresis" format="1">
  <advance width="621"/>
  <unicode hex="00C4"/>
  <outline>
    <contour>
      <point x="609" y="0" type="line" name="hr00"/>
      <point x="619" y="78" type="line"/>
      <point x="573" y="96" type="line"/>
      <point x="372" y="691" type="line"/>
      <point x="248" y="691" type="line"/>
      <point x="50" y="96" type="line"/>
      <point x="-5" y="78" type="line"/>
      <point x="8" y="0" type="line"/>
      <point x="247" y="0" type="line"/>
      <point x="247" y="76" type="line"/>
      <point x="159" y="92" type="line"/>
      <point x="197" y="218" type="line"/>
      <point x="393" y="218" type="line"/>
      <point x="429" y="96" type="line"/>
      <point x="349" y="75" type="line"/>
      <point x="349" y="0" type="line"/>
    </contour>
    <contour>
      <point x="296" y="549" type="line"/>
      <point x="349" y="323" type="line"/>
      <point x="228" y="323" type="line"/>
    </contour>
    <contour>
      <point x="155" y="804" type="curve" smooth="yes"/>
      <point x="155" y="766"/>
      <point x="186" y="736"/>
      <point x="223" y="736" type="curve" smooth="yes"/>
      <point x="261" y="736"/>
      <point x="292" y="766"/>
      <point x="292" y="804" type="curve" smooth="yes"/>
      <point x="292" y="842"/>
      <point x="261" y="873"/>
      <point x="223" y="873" type="curve" smooth="yes"/>
      <point x="186" y="873"/>
      <point x="155" y="842"/>
    </contour>
    <contour>
      <point x="333" y="804" type="curve" smooth="yes"/>
      <point x="333" y="766"/>
      <point x="363" y="736"/>
      <point x="401" y="736" type="curve" smooth="yes"/>
      <point x="439" y="736"/>
      <point x="468" y="766"/>
      <point x="468" y="804" type="curve" smooth="yes"/>
      <point x="468" y="842"/>
      <point x="439" y="873"/>
      <point x="401" y="873" type="curve" smooth="yes"/>
      <point x="363" y="873"/>
      <point x="333" y="842"/>
    </contour>
  </outline>
</glyph>
<glyph name="Aring" format="1">
  <advance width="617"/>
  <unicode hex="00C5"/>
  <outline>
    <contour>
      <point x="607" y="0" type="line" name="hr00"/>
      <point x="617" y="78" type="line"/>
      <point x="571" y="96" type="line"/>
      <point x="378" y="666" type="line"/>
      <point x="396" y="685"/>
      <point x="407" y="711"/>
      <point x="407" y="740" type="curve" smooth="yes"/>
      <point x="407" y="800"/>
      <point x="360" y="846"/>
      <point x="301" y="846" type="curve" smooth="yes"/>
      <point x="241" y="846"/>
      <point x="195" y="800"/>
      <point x="195" y="740" type="curve" smooth="yes"/>
      <point x="195" y="705"/>
      <point x="210" y="675"/>
      <point x="234" y="656" type="curve"/>
      <point x="48" y="96" type="line"/>
      <point x="-7" y="78" type="line"/>
      <point x="6" y="0" type="line"/>
      <point x="245" y="0" type="line"/>
      <point x="245" y="76" type="line"/>
      <point x="157" y="92" type="line"/>
      <point x="195" y="218" type="line"/>
      <point x="391" y="218" type="line"/>
      <point x="427" y="96" type="line"/>
      <point x="347" y="75" type="line"/>
      <point x="347" y="0" type="line"/>
    </contour>
    <contour>
      <point x="294" y="549" type="line"/>
      <point x="347" y="323" type="line"/>
      <point x="226" y="323" type="line"/>
    </contour>
    <contour>
      <point x="262" y="740" type="curve" smooth="yes"/>
      <point x="262" y="764"/>
      <point x="276" y="779"/>
      <point x="301" y="779" type="curve" smooth="yes"/>
      <point x="325" y="779"/>
      <point x="339" y="764"/>
      <point x="339" y="740" type="curve" smooth="yes"/>
      <point x="339" y="716"/>
      <point x="325" y="701"/>
      <point x="301" y="701" type="curve" smooth="yes"/>
      <point x="276" y="701"/>
      <point x="262" y="716"/>
    </contour>
  </outline>
</glyph>
<glyph name="AE" format="1">
  <advance width="803"/>
  <unicode hex="00C6"/>
  <outline>
    <contour>
      <point x="240" y="0" type="line" name="hr00"/>
      <point x="240" y="76" type="line"/>
      <point x="152" y="92" type="line"/>
      <point x="215" y="260" type="line"/>
      <point x="353" y="260" type="line"/>
      <point x="353" y="101" type="line"/>
      <point x="298" y="88" type="line"/>
      <point x="313" y="0" type="line"/>
      <point x="747" y="0" type="line"/>
      <point x="768" y="204" type="line" name="hr01"/>
      <point x="690" y="204" type="line"/>
      <point x="653" y="105" type="line" name="hr02"/>
      <point x="484" y="105" type="line"/>
      <point x="484" y="303" type="line"/>
      <point x="636" y="303" type="line"/>
      <point x="636" y="408" type="line"/>
      <point x="484" y="408" type="line"/>
      <point x="484" y="586" type="line"/>
      <point x="646" y="586" type="line"/>
      <point x="686" y="487" type="line" name="hr03"/>
      <point x="765" y="487" type="line"/>
      <point x="745" y="691" type="line"/>
      <point x="266" y="691" type="line"/>
      <point x="41" y="96" type="line"/>
      <point x="-12" y="78" type="line"/>
      <point x="1" y="0" type="line"/>
    </contour>
    <contour>
      <point x="353" y="595" type="line"/>
      <point x="353" y="365" type="line"/>
      <point x="255" y="365" type="line"/>
      <point x="342" y="596" type="line"/>
    </contour>
  </outline>
</glyph>
<glyph name="Ccedilla" format="1">
  <advance width="589"/>
  <unicode hex="00C7"/>
  <outline>
    <contour>
      <point x="296" y="-101" type="line" name="hr00"/>
      <point x="309" y="-102" type="line"/>
      <point x="366" y="-102"/>
      <point x="387" y="-129"/>
      <point x="387" y="-159" type="curve" smooth="yes"/>
      <point x="387" y="-197"/>
      <point x="344" y="-210"/>
      <point x="324" y="-210" type="curve"/>
      <point x="252" y="-162" type="line"/>
      <point x="202" y="-259" type="line"/>
      <point x="235" y="-271"/>
      <point x="275" y="-286"/>
      <point x="330" y="-286" type="curve" smooth="yes"/>
      <point x="434" y="-286"/>
      <point x="495" y="-224"/>
      <point x="495" y="-156" type="curve" smooth="yes"/>
      <point x="495" y="-83"/>
      <point x="444" y="-52"/>
      <point x="391" y="-41" type="curve"/>
      <point x="403" y="-2" type="line"/>
      <point x="471" y="6"/>
      <point x="535" y="34"/>
      <point x="566" y="71" type="curve"/>
      <point x="524" y="160" type="line"/>
      <point x="486" y="121"/>
      <point x="426" y="101"/>
      <point x="372" y="101" type="curve" smooth="yes"/>
      <point x="248" y="101"/>
      <point x="166" y="204"/>
      <point x="166" y="348" type="curve"/>
      <point x="167" y="495"/>
      <point x="259" y="586"/>
      <point x="370" y="586" type="curve" smooth="yes"/>
      <point x="391" y="586"/>
      <point x="400" y="585"/>
      <point x="409" y="584" type="curve"/>
      <point x="413" y="584"/>
      <point x="413" y="583"/>
      <point x="468" y="460" type="curve" name="hr01"/>
      <point x="549" y="460" type="line"/>
      <point x="529" y="667" type="line"/>
      <point x="507" y="674"/>
      <point x="449" y="691"/>
      <point x="360" y="691" type="curve" smooth="yes"/>
      <point x="196" y="691"/>
      <point x="30" y="568"/>
      <point x="30" y="334" type="curve" smooth="yes"/>
      <point x="30" y="137"/>
      <point x="150" y="26"/>
      <point x="301" y="1" type="curve"/>
      <point x="272" y="-82" type="line"/>
    </contour>
  </outline>
</glyph>
<glyph name="Eacute" format="1">
  <advance width="555"/>
  <unicode hex="00C9"/>
  <outline>
    <contour>
      <point x="41" y="691" type="line" name="hr00"/>
      <point x="41" y="602" type="line"/>
      <point x="104" y="595" type="line"/>
      <point x="104" y="101" type="line"/>
      <point x="39" y="88" type="line"/>
      <point x="53" y="0" type="line"/>
      <point x="499" y="0" type="line"/>
      <point x="520" y="204" type="line" name="hr01"/>
      <point x="441" y="204" type="line"/>
      <point x="404" y="105" type="line" name="hr02"/>
      <point x="235" y="105" type="line"/>
      <point x="235" y="303" type="line"/>
      <point x="387" y="303" type="line"/>
      <point x="387" y="408" type="line"/>
      <point x="235" y="408" type="line"/>
      <point x="235" y="586" type="line"/>
      <point x="397" y="586" type="line"/>
      <point x="438" y="487" type="line" name="hr03"/>
      <point x="516" y="487" type="line"/>
      <point x="497" y="691" type="line"/>
    </contour>
    <contour>
      <point x="252" y="741" type="line"/>
      <point x="449" y="865" type="line"/>
      <point x="371" y="974" type="line"/>
      <point x="334" y="959" type="line"/>
      <point x="205" y="795" type="line"/>
    </contour>
  </outline>
</glyph>
<glyph name="Ecircumflex" format="1">
  <advance width="555"/>
  <unicode hex="00CA"/>
  <outline>
    <contour>
      <point x="99" y="724" type="line" name="hr00"/>
      <point x="184" y="724" type="line"/>
      <point x="281" y="782" type="line"/>
      <point x="379" y="724" type="line"/>
      <point x="465" y="724" type="line"/>
      <point x="472" y="736" type="line"/>
      <point x="300" y="903" type="line"/>
      <point x="263" y="903" type="line"/>
      <point x="92" y="737" type="line"/>
    </contour>
    <contour>
      <point x="41" y="691" type="line"/>
      <point x="41" y="602" type="line"/>
      <point x="104" y="595" type="line"/>
      <point x="104" y="101" type="line"/>
      <point x="39" y="88" type="line"/>
      <point x="53" y="0" type="line"/>
      <point x="499" y="0" type="line"/>
      <point x="520" y="204" type="line"/>
      <point x="441" y="204" type="line"/>
      <point x="404" y="105" type="line"/>
      <point x="235" y="105" type="line"/>
      <point x="235" y="303" type="line"/>
      <point x="387" y="303" type="line"/>
      <point x="387" y="408" type="line"/>
      <point x="235" y="408" type="line"/>
      <point x="235" y="586" type="line" name="hr01"/>
      <point x="397" y="586" type="line"/>
      <point x="438" y="487" type="line" name="hr02"/>
      <point x="516" y="487" type="line"/>
      <point x="497" y="691" type="line"/>
    </contour>
  </outline>
</glyph>
<glyph name="Edieresis" format="1">
  <advance width="555"/>
  <unicode hex="00CB"/>
  <outline>
    <contour>
      <point x="41" y="691" type="line" name="hr00"/>
      <point x="41" y="602" type="line"/>
      <point x="104" y="595" type="line"/>
      <point x="104" y="101" type="line"/>
      <point x="39" y="88" type="line"/>
      <point x="53" y="0" type="line"/>
      <point x="499" y="0" type="line"/>
      <point x="520" y="204" type="line" name="hr01"/>
      <point x="441" y="204" type="line"/>
      <point x="404" y="105" type="line" name="hr02"/>
      <point x="235" y="105" type="line"/>
      <point x="235" y="303" type="line"/>
      <point x="387" y="303" type="line"/>
      <point x="387" y="408" type="line"/>
      <point x="235" y="408" type="line"/>
      <point x="235" y="586" type="line"/>
      <point x="397" y="586" type="line"/>
      <point x="438" y="487" type="line" name="hr03"/>
      <point x="516" y="487" type="line"/>
      <point x="497" y="691" type="line"/>
    </contour>
    <contour>
      <point x="131" y="804" type="curve" smooth="yes"/>
      <point x="131" y="766"/>
      <point x="162" y="736"/>
      <point x="199" y="736" type="curve" smooth="yes"/>
      <point x="237" y="736"/>
      <point x="268" y="766"/>
      <point x="268" y="804" type="curve" smooth="yes"/>
      <point x="268" y="842"/>
      <point x="237" y="873"/>
      <point x="199" y="873" type="curve" smooth="yes"/>
      <point x="162" y="873"/>
      <point x="131" y="842"/>
    </contour>
    <contour>
      <point x="309" y="804" type="curve" smooth="yes"/>
      <point x="309" y="766"/>
      <point x="339" y="736"/>
      <point x="377" y="736" type="curve" smooth="yes"/>
      <point x="415" y="736"/>
      <point x="444" y="766"/>
      <point x="444" y="804" type="curve" smooth="yes"/>
      <point x="444" y="842"/>
      <point x="415" y="873"/>
      <point x="377" y="873" type="curve" smooth="yes"/>
      <point x="339" y="873"/>
      <point x="309" y="842"/>
    </contour>
  </outline>
</glyph>
<glyph name="Iacute" format="1">
  <advance width="348"/>
  <unicode hex="00CD"/>
  <outline>
    <contour>
      <point x="51" y="0" type="line" name="hr00"/>
      <point x="311" y="0" type="line"/>
      <point x="311" y="8"/>
      <point x="312" y="72"/>
      <point x="312" y="87" type="curve"/>
      <point x="238" y="99" type="line"/>
      <point x="238" y="586" type="line"/>
      <point x="314" y="598" type="line"/>
      <point x="299" y="691" type="line"/>
      <point x="39" y="691" type="line"/>
      <point x="39" y="600" type="line"/>
      <point x="107" y="593" type="line"/>
      <point x="107" y="102" type="line"/>
      <point x="37" y="89" type="line"/>
    </contour>
    <contour>
      <point x="118" y="741" type="line"/>
      <point x="315" y="865" type="line"/>
      <point x="237" y="974" type="line"/>
      <point x="200" y="959" type="line"/>
      <point x="71" y="795" type="line"/>
    </contour>
  </outline>
</glyph>
<glyph name="Idieresis" format="1">
  <advance width="348"/>
  <unicode hex="00CF"/>
  <outline>
    <contour>
      <point x="51" y="0" type="line" name="hr00"/>
      <point x="311" y="0" type="line"/>
      <point x="311" y="8"/>
      <point x="312" y="72"/>
      <point x="312" y="87" type="curve"/>
      <point x="238" y="99" type="line"/>
      <point x="238" y="586" type="line"/>
      <point x="314" y="598" type="line"/>
      <point x="299" y="691" type="line"/>
      <point x="39" y="691" type="line"/>
      <point x="39" y="600" type="line"/>
      <point x="107" y="593" type="line"/>
      <point x="107" y="102" type="line"/>
      <point x="37" y="89" type="line"/>
    </contour>
    <contour>
      <point x="23" y="804" type="curve" smooth="yes" name="hr01"/>
      <point x="23" y="766"/>
      <point x="54" y="736"/>
      <point x="91" y="736" type="curve" smooth="yes"/>
      <point x="129" y="736"/>
      <point x="160" y="766"/>
      <point x="160" y="804" type="curve" smooth="yes"/>
      <point x="160" y="842"/>
      <point x="129" y="873"/>
      <point x="91" y="873" type="curve" smooth="yes"/>
      <point x="54" y="873"/>
      <point x="23" y="842"/>
    </contour>
    <contour>
      <point x="201" y="804" type="curve" smooth="yes"/>
      <point x="201" y="766"/>
      <point x="231" y="736"/>
      <point x="269" y="736" type="curve" smooth="yes"/>
      <point x="307" y="736"/>
      <point x="336" y="766"/>
      <point x="336" y="804" type="curve" smooth="yes"/>
      <point x="336" y="842"/>
      <point x="307" y="873"/>
      <point x="269" y="873" type="curve" smooth="yes"/>
      <point x="231" y="873"/>
      <point x="201" y="842"/>
    </contour>
  </outline>
</glyph>
<glyph name="Eth" format="1">
  <advance width="639"/>
  <unicode hex="00D0"/>
  <outline>
    <contour>
      <point x="48" y="0" type="line" name="hr00"/>
      <point x="265" y="0" type="line" smooth="yes"/>
      <point x="491" y="0"/>
      <point x="608" y="129"/>
      <point x="608" y="354" type="curve" smooth="yes"/>
      <point x="608" y="579"/>
      <point x="464" y="691"/>
      <point x="222" y="691" type="curve" smooth="yes"/>
      <point x="43" y="691" type="line"/>
      <point x="43" y="603" type="line"/>
      <point x="106" y="595" type="line"/>
      <point x="106" y="403" type="line"/>
      <point x="28" y="403" type="line"/>
      <point x="14" y="391" type="line"/>
      <point x="14" y="309" type="line"/>
      <point x="106" y="309" type="line"/>
      <point x="106" y="101" type="line"/>
      <point x="41" y="88" type="line"/>
    </contour>
    <contour>
      <point x="369" y="309" type="line"/>
      <point x="369" y="396" type="line" smooth="yes"/>
      <point x="369" y="401"/>
      <point x="367" y="403"/>
      <point x="362" y="403" type="curve" smooth="yes"/>
      <point x="237" y="403" type="line"/>
      <point x="237" y="586" type="line"/>
      <point x="389" y="586"/>
      <point x="472" y="509"/>
      <point x="472" y="351" type="curve" smooth="yes"/>
      <point x="472" y="190"/>
      <point x="397" y="104"/>
      <point x="256" y="104" type="curve" smooth="yes"/>
      <point x="250" y="104"/>
      <point x="243" y="105"/>
      <point x="237" y="105" type="curve"/>
      <point x="237" y="309" type="line"/>
    </contour>
  </outline>
</glyph>
<glyph name="Ntilde" format="1">
  <advance width="727"/>
  <unicode hex="00D1"/>
  <outline>
    <contour>
      <point x="432" y="823" type="line" name="hr00"/>
      <point x="413" y="823"/>
      <point x="365" y="873"/>
      <point x="295" y="873" type="curve" smooth="yes"/>
      <point x="216" y="873"/>
      <point x="175" y="813"/>
      <point x="163" y="781" type="curve"/>
      <point x="163" y="762" type="line"/>
      <point x="237" y="718" type="line"/>
      <point x="245" y="743"/>
      <point x="267" y="772"/>
      <point x="306" y="772" type="curve" smooth="yes"/>
      <point x="362" y="772"/>
      <point x="382" y="727"/>
      <point x="444" y="727" type="curve" smooth="yes" name="hr01"/>
      <point x="490" y="727"/>
      <point x="538" y="765"/>
      <point x="567" y="805" type="curve"/>
      <point x="486" y="881" type="line" name="hr02"/>
    </contour>
    <contour>
      <point x="428" y="0" type="line"/>
      <point x="630" y="0" type="line"/>
      <point x="630" y="586" type="line"/>
      <point x="697" y="598" type="line"/>
      <point x="682" y="691" type="line"/>
      <point x="467" y="691" type="line"/>
      <point x="467" y="600" type="line"/>
      <point x="525" y="593" type="line"/>
      <point x="525" y="96" type="line"/>
      <point x="298" y="691" type="line"/>
      <point x="42" y="691" type="line"/>
      <point x="42" y="598" type="line"/>
      <point x="106" y="591" type="line"/>
      <point x="106" y="100" type="line"/>
      <point x="37" y="87" type="line"/>
      <point x="53" y="0" type="line"/>
      <point x="261" y="0" type="line"/>
      <point x="261" y="8"/>
      <point x="262" y="63"/>
      <point x="262" y="88" type="curve"/>
      <point x="211" y="104" type="line"/>
      <point x="211" y="563" type="line"/>
    </contour>
  </outline>
</glyph>
<glyph name="Ograve" format="1">
  <advance width="655"/>
  <unicode hex="00D2"/>
  <outline>
    <contour>
      <point x="328" y="-4" type="curve" smooth="yes" name="hr00"/>
      <point x="517" y="-4"/>
      <point x="619" y="141"/>
      <point x="619" y="345" type="curve" smooth="yes"/>
      <point x="619" y="550"/>
      <point x="517" y="693"/>
      <point x="328" y="693" type="curve" smooth="yes"/>
      <point x="139" y="693"/>
      <point x="36" y="550"/>
      <point x="36" y="345" type="curve" smooth="yes"/>
      <point x="36" y="141"/>
      <point x="139" y="-4"/>
    </contour>
    <contour>
      <point x="173" y="343" type="curve" smooth="yes"/>
      <point x="173" y="480"/>
      <point x="233" y="588"/>
      <point x="328" y="588" type="curve" smooth="yes"/>
      <point x="422" y="588"/>
      <point x="482" y="480"/>
      <point x="482" y="343" type="curve" smooth="yes"/>
      <point x="482" y="207"/>
      <point x="422" y="101"/>
      <point x="328" y="101" type="curve" smooth="yes"/>
      <point x="233" y="101"/>
      <point x="173" y="207"/>
    </contour>
    <contour>
      <point x="429" y="765" type="line"/>
      <point x="317" y="942" type="line"/>
      <point x="282" y="959" type="line"/>
      <point x="205" y="868" type="line"/>
      <point x="388" y="724" type="line"/>
    </contour>
  </outline>
</glyph>
<glyph name="Ocircumflex" format="1">
  <advance width="655"/>
  <unicode hex="00D4"/>
  <outline>
    <contour>
      <point x="153" y="724" type="line" name="hr00"/>
      <point x="238" y="724" type="line"/>
      <point x="336" y="782" type="line"/>
      <point x="434" y="724" type="line"/>
      <point x="520" y="724" type="line"/>
      <point x="527" y="736" type="line"/>
      <point x="355" y="903" type="line"/>
      <point x="318" y="903" type="line"/>
      <point x="147" y="737" type="line"/>
    </contour>
    <contour>
      <point x="328" y="-4" type="curve" smooth="yes"/>
      <point x="517" y="-4"/>
      <point x="619" y="141"/>
      <point x="619" y="345" type="curve" smooth="yes"/>
      <point x="619" y="550"/>
      <point x="517" y="693"/>
      <point x="328" y="693" type="curve" smooth="yes"/>
      <point x="139" y="693"/>
      <point x="36" y="550"/>
      <point x="36" y="345" type="curve" smooth="yes"/>
      <point x="36" y="141"/>
      <point x="139" y="-4"/>
    </contour>
    <contour>
      <point x="173" y="343" type="curve" smooth="yes"/>
      <point x="173" y="480"/>
      <point x="233" y="588"/>
      <point x="328" y="588" type="curve" smooth="yes" name="hr01"/>
      <point x="422" y="588"/>
      <point x="482" y="480"/>
      <point x="482" y="343" type="curve" smooth="yes"/>
      <point x="482" y="207"/>
      <point x="422" y="101"/>
      <point x="328" y="101" type="curve" smooth="yes"/>
      <point x="233" y="101"/>
      <point x="173" y="207"/>
    </contour>
  </outline>
</glyph>
<glyph name="Otilde" format="1">
  <advance width="655"/>
  <unicode hex="00D5"/>
  <outline>
    <contour>
      <point x="390" y="823" type="line" name="hr00"/>
      <point x="371" y="823"/>
      <point x="322" y="873"/>
      <point x="252" y="873" type="curve" smooth="yes"/>
      <point x="173" y="873"/>
      <point x="132" y="813"/>
      <point x="121" y="781" type="curve"/>
      <point x="121" y="762" type="line"/>
      <point x="194" y="718" type="line"/>
      <point x="203" y="743"/>
      <point x="225" y="772"/>
      <point x="263" y="772" type="curve" smooth="yes"/>
      <point x="319" y="772"/>
      <point x="339" y="727"/>
      <point x="401" y="727" type="curve" smooth="yes" name="hr01"/>
      <point x="449" y="727"/>
      <point x="496" y="765"/>
      <point x="524" y="805" type="curve"/>
      <point x="443" y="881" type="line" name="hr02"/>
    </contour>
    <contour>
      <point x="328" y="-4" type="curve" smooth="yes"/>
      <point x="517" y="-4"/>
      <point x="619" y="141"/>
      <point x="619" y="345" type="curve" smooth="yes"/>
      <point x="619" y="550"/>
      <point x="517" y="693"/>
      <point x="328" y="693" type="curve" smooth="yes"/>
      <point x="139" y="693"/>
      <point x="36" y="550"/>
      <point x="36" y="345" type="curve" smooth="yes"/>
      <point x="36" y="141"/>
      <point x="139" y="-4"/>
    </contour>
    <contour>
      <point x="173" y="343" type="curve" smooth="yes"/>
      <point x="173" y="480"/>
      <point x="233" y="588"/>
      <point x="328" y="588" type="curve" smooth="yes"/>
      <point x="422" y="588"/>
      <point x="482" y="480"/>
      <point x="482" y="343" type="curve" smooth="yes"/>
      <point x="482" y="207"/>
      <point x="422" y="101"/>
      <point x="328" y="101" type="curve" smooth="yes"/>
      <point x="233" y="101"/>
      <point x="173" y="207"/>
    </contour>
  </outline>
</glyph>
<glyph name="Odieresis" format="1">
  <advance width="655"/>
  <unicode hex="00D6"/>
  <outline>
    <contour>
      <point x="328" y="-4" type="curve" smooth="yes" name="hr00"/>
      <point x="517" y="-4"/>
      <point x="619" y="141"/>
      <point x="619" y="345" type="curve" smooth="yes"/>
      <point x="619" y="550"/>
      <point x="517" y="693"/>
      <point x="328" y="693" type="curve" smooth="yes"/>
      <point x="139" y="693"/>
      <point x="36" y="550"/>
      <point x="36" y="345" type="curve" smooth="yes"/>
      <point x="36" y="141"/>
      <point x="139" y="-4"/>
    </contour>
    <contour>
      <point x="173" y="343" type="curve" smooth="yes"/>
      <point x="173" y="480"/>
      <point x="233" y="588"/>
      <point x="328" y="588" type="curve" smooth="yes"/>
      <point x="422" y="588"/>
      <point x="482" y="480"/>
      <point x="482" y="343" type="curve" smooth="yes"/>
      <point x="482" y="207"/>
      <point x="422" y="101"/>
      <point x="328" y="101" type="curve" smooth="yes"/>
      <point x="233" y="101"/>
      <point x="173" y="207"/>
    </contour>
    <contour>
      <point x="174" y="804" type="curve" smooth="yes"/>
      <point x="174" y="766"/>
      <point x="205" y="736"/>
      <point x="242" y="736" type="curve" smooth="yes"/>
      <point x="280" y="736"/>
      <point x="311" y="766"/>
      <point x="311" y="804" type="curve" smooth="yes"/>
      <point x="311" y="842"/>
      <point x="280" y="873"/>
      <point x="242" y="873" type="curve" smooth="yes"/>
      <point x="205" y="873"/>
      <point x="174" y="842"/>
    </contour>
    <contour>
      <point x="352" y="804" type="curve" smooth="yes" name="hr01"/>
      <point x="352" y="766"/>
      <point x="382" y="736"/>
      <point x="420" y="736" type="curve" smooth="yes"/>
      <point x="458" y="736"/>
      <point x="487" y="766"/>
      <point x="487" y="804" type="curve" smooth="yes"/>
      <point x="487" y="842"/>
      <point x="458" y="873"/>
      <point x="420" y="873" type="curve" smooth="yes"/>
      <point x="382" y="873"/>
      <point x="352" y="842"/>
    </contour>
  </outline>
</glyph>
<glyph name="multiply" format="1">
  <advance width="465"/>
  <unicode hex="00D7"/>
  <outline>
    <contour>
      <point x="105" y="130" type="line" name="hr00"/>
      <point x="232" y="257" type="line"/>
      <point x="359" y="131" type="line"/>
      <point x="430" y="202" type="line"/>
      <point x="303" y="328" type="line"/>
      <point x="430" y="456" type="line"/>
      <point x="359" y="526" type="line"/>
      <point x="232" y="398" type="line"/>
      <point x="105" y="525" type="line"/>
      <point x="35" y="455" type="line"/>
      <point x="162" y="328" type="line"/>
      <point x="35" y="201" type="line"/>
    </contour>
  </outline>
</glyph>
<glyph name="Oslash" format="1">
  <advance width="655"/>
  <unicode hex="00D8"/>
  <outline>
    <contour>
      <point x="328" y="-4" type="curve" smooth="yes" name="hr00"/>
      <point x="517" y="-4"/>
      <point x="619" y="141"/>
      <point x="619" y="345" type="curve" smooth="yes"/>
      <point x="619" y="466"/>
      <point x="583" y="566"/>
      <point x="515" y="627" type="curve"/>
      <point x="563" y="733" type="line"/>
      <point x="563" y="757" type="line"/>
      <point x="436" y="757" type="line"/>
      <point x="403" y="684" type="line"/>
      <point x="380" y="690"/>
      <point x="355" y="693"/>
      <point x="328" y="693" type="curve" smooth="yes"/>
      <point x="139" y="693"/>
      <point x="36" y="550"/>
      <point x="36" y="345" type="curve" smooth="yes"/>
      <point x="36" y="233"/>
      <point x="66" y="139"/>
      <point x="125" y="77" type="curve"/>
      <point x="72" y="-40" type="line"/>
      <point x="76" y="-63" type="line"/>
      <point x="201" y="-63" type="line"/>
      <point x="234" y="10" type="line"/>
      <point x="262" y="1"/>
      <point x="293" y="-4"/>
    </contour>
    <contour>
      <point x="482" y="343" type="curve" smooth="yes"/>
      <point x="482" y="207"/>
      <point x="422" y="101"/>
      <point x="328" y="101" type="curve" smooth="yes"/>
      <point x="311" y="101"/>
      <point x="295" y="104"/>
      <point x="280" y="111" type="curve"/>
      <point x="453" y="492" type="line"/>
      <point x="472" y="451"/>
      <point x="482" y="399"/>
    </contour>
    <contour>
      <point x="173" y="343" type="curve" smooth="yes"/>
      <point x="173" y="480"/>
      <point x="233" y="588"/>
      <point x="328" y="588" type="curve" smooth="yes"/>
      <point x="338" y="588"/>
      <point x="347" y="587"/>
      <point x="357" y="584" type="curve"/>
      <point x="191" y="221" type="line"/>
      <point x="179" y="257"/>
      <point x="173" y="298"/>
    </contour>
  </outline>
</glyph>
<glyph name="Uacute" format="1">
  <advance width="670"/>
  <unicode hex="00DA"/>
  <outline>
    <contour>
      <point x="219" y="592" type="line" name="hr00"/>
      <point x="290" y="603" type="line"/>
      <point x="290" y="691" type="line"/>
      <point x="21" y="691" type="line"/>
      <point x="21" y="602" type="line"/>
      <point x="88" y="593" type="line"/>
      <point x="88" y="248" type="line" smooth="yes"/>
      <point x="88" y="90"/>
      <point x="153" y="-4"/>
      <point x="353" y="-4" type="curve" smooth="yes"/>
      <point x="503" y="-4"/>
      <point x="584" y="93"/>
      <point x="584" y="248" type="curve" smooth="yes"/>
      <point x="584" y="587" type="line"/>
      <point x="643" y="600" type="line" name="hr01"/>
      <point x="643" y="691" type="line"/>
      <point x="415" y="691" type="line"/>
      <point x="415" y="603" type="line"/>
      <point x="479" y="594" type="line" name="hr02"/>
      <point x="479" y="251" type="line" smooth="yes"/>
      <point x="479" y="146"/>
      <point x="433" y="101"/>
      <point x="353" y="101" type="curve" smooth="yes"/>
      <point x="253" y="101"/>
      <point x="219" y="150"/>
      <point x="219" y="250" type="curve" smooth="yes"/>
    </contour>
    <contour>
      <point x="294" y="741" type="line"/>
      <point x="491" y="865" type="line"/>
      <point x="413" y="974" type="line"/>
      <point x="376" y="959" type="line"/>
      <point x="247" y="795" type="line"/>
    </contour>
  </outline>
</glyph>
<glyph name="Ucircumflex" format="1">
  <advance width="670"/>
  <unicode hex="00DB"/>
  <outline>
    <contour>
      <point x="157" y="724" type="line" name="hr00"/>
      <point x="242" y="724" type="line"/>
      <point x="340" y="782" type="line"/>
      <point x="438" y="724" type="line"/>
      <point x="524" y="724" type="line"/>
      <point x="531" y="736" type="line"/>
      <point x="359" y="903" type="line"/>
      <point x="322" y="903" type="line"/>
      <point x="151" y="737" type="line"/>
    </contour>
    <contour>
      <point x="219" y="592" type="line"/>
      <point x="290" y="603" type="line"/>
      <point x="290" y="691" type="line"/>
      <point x="21" y="691" type="line"/>
      <point x="21" y="602" type="line"/>
      <point x="88" y="593" type="line"/>
      <point x="88" y="248" type="line" smooth="yes"/>
      <point x="88" y="90"/>
      <point x="153" y="-4"/>
      <point x="353" y="-4" type="curve" smooth="yes"/>
      <point x="503" y="-4"/>
      <point x="584" y="93"/>
      <point x="584" y="248" type="curve" smooth="yes"/>
      <point x="584" y="587" type="line"/>
      <point x="643" y="600" type="line" name="hr01"/>
      <point x="643" y="691" type="line"/>
      <point x="415" y="691" type="line"/>
      <point x="415" y="603" type="line"/>
      <point x="479" y="594" type="line" name="hr02"/>
      <point x="479" y="251" type="line" smooth="yes"/>
      <point x="479" y="146"/>
      <point x="433" y="101"/>
      <point x="353" y="101" type="curve" smooth="yes"/>
      <point x="253" y="101"/>
      <point x="219" y="150"/>
      <point x="219" y="250" type="curve" smooth="yes"/>
    </contour>
  </outline>
</glyph>
<glyph name="Udieresis" format="1">
  <advance width="670"/>
  <unicode hex="00DC"/>
  <outline>
    <contour>
      <point x="219" y="592" type="line" name="hr00"/>
      <point x="290" y="603" type="line"/>
      <point x="290" y="691" type="line"/>
      <point x="21" y="691" type="line"/>
      <point x="21" y="602" type="line"/>
      <point x="88" y="593" type="line"/>
      <point x="88" y="248" type="line" smooth="yes"/>
      <point x="88" y="90"/>
      <point x="153" y="-4"/>
      <point x="353" y="-4" type="curve" smooth="yes"/>
      <point x="503" y="-4"/>
      <point x="584" y="93"/>
      <point x="584" y="248" type="curve" smooth="yes"/>
      <point x="584" y="587" type="line"/>
      <point x="643" y="600" type="line" name="hr01"/>
      <point x="643" y="691" type="line"/>
      <point x="415" y="691" type="line"/>
      <point x="415" y="603" type="line"/>
      <point x="479" y="594" type="line" name="hr02"/>
      <point x="479" y="251" type="line" smooth="yes"/>
      <point x="479" y="146"/>
      <point x="433" y="101"/>
      <point x="353" y="101" type="curve" smooth="yes"/>
      <point x="253" y="101"/>
      <point x="219" y="150"/>
      <point x="219" y="250" type="curve" smooth="yes"/>
    </contour>
    <contour>
      <point x="193" y="804" type="curve" smooth="yes" name="hr03"/>
      <point x="193" y="766"/>
      <point x="224" y="736"/>
      <point x="261" y="736" type="curve" smooth="yes"/>
      <point x="299" y="736"/>
      <point x="330" y="766"/>
      <point x="330" y="804" type="curve" smooth="yes"/>
      <point x="330" y="842"/>
      <point x="299" y="873"/>
      <point x="261" y="873" type="curve" smooth="yes"/>
      <point x="224" y="873"/>
      <point x="193" y="842"/>
    </contour>
    <contour>
      <point x="371" y="804" type="curve" smooth="yes"/>
      <point x="371" y="766"/>
      <point x="401" y="736"/>
      <point x="439" y="736" type="curve" smooth="yes"/>
      <point x="477" y="736"/>
      <point x="506" y="766"/>
      <point x="506" y="804" type="curve" smooth="yes"/>
      <point x="506" y="842"/>
      <point x="477" y="873"/>
      <point x="439" y="873" type="curve" smooth="yes"/>
      <point x="401" y="873"/>
      <point x="371" y="842"/>
    </contour>
  </outline>
</glyph>
<glyph name="Yacute" format="1">
  <advance width="583"/>
  <unicode hex="00DD"/>
  <outline>
    <contour>
      <point x="-2" y="691" type="line" name="hr00"/>
      <point x="-2" y="602" type="line"/>
      <point x="38" y="592" type="line"/>
      <point x="229" y="252" type="line"/>
      <point x="229" y="96" type="line"/>
      <point x="115" y="73" type="line"/>
      <point x="125" y="0" type="line"/>
      <point x="466" y="0" type="line"/>
      <point x="475" y="73" type="line"/>
      <point x="360" y="96" type="line"/>
      <point x="360" y="251" type="line"/>
      <point x="538" y="592" type="line"/>
      <point x="582" y="603" type="line"/>
      <point x="582" y="691" type="line"/>
      <point x="361" y="691" type="line"/>
      <point x="361" y="612" type="line"/>
      <point x="422" y="601" type="line"/>
      <point x="310" y="382" type="line"/>
      <point x="186" y="598" type="line"/>
      <point x="257" y="612" type="line"/>
      <point x="242" y="691" type="line"/>
    </contour>
    <contour>
      <point x="279" y="741" type="line"/>
      <point x="476" y="865" type="line"/>
      <point x="398" y="974" type="line"/>
      <point x="361" y="959" type="line"/>
      <point x="232" y="795" type="line"/>
    </contour>
  </outline>
</glyph>
<glyph name="Thorn" format="1">
  <advance width="556"/>
  <unicode hex="00DE"/>
  <outline>
    <contour>
      <point x="40" y="0" type="line" name="hr00"/>
      <point x="354" y="0" type="line"/>
      <point x="354" y="87" type="line"/>
      <point x="240" y="99" type="line"/>
      <point x="240" y="147" type="line"/>
      <point x="254" y="146"/>
      <point x="267" y="146"/>
      <point x="279" y="146" type="curve" smooth="yes"/>
      <point x="457" y="146"/>
      <point x="545" y="229"/>
      <point x="545" y="352" type="curve" smooth="yes"/>
      <point x="545" y="475"/>
      <point x="456" y="559"/>
      <point x="276" y="559" type="curve" smooth="yes"/>
      <point x="265" y="559"/>
      <point x="252" y="558"/>
      <point x="240" y="558" type="curve"/>
      <point x="240" y="586" type="line"/>
      <point x="315" y="598" type="line"/>
      <point x="301" y="691" type="line" name="hr01"/>
      <point x="40" y="691" type="line"/>
      <point x="40" y="600" type="line"/>
      <point x="108" y="593" type="line"/>
      <point x="108" y="102" type="line"/>
      <point x="40" y="89" type="line"/>
    </contour>
    <contour>
      <point x="409" y="352" type="curve" smooth="yes"/>
      <point x="409" y="296"/>
      <point x="380" y="252"/>
      <point x="240" y="251" type="curve"/>
      <point x="240" y="453" type="line"/>
      <point x="380" y="451"/>
      <point x="409" y="407"/>
    </contour>
  </outline>
</glyph>
<glyph name="aacute" format="1">
  <advance width="463"/>
  <unicode hex="00E1"/>
  <outline>
    <contour>
      <point x="395" y="330" type="line" smooth="yes" name="hr00"/>
      <point x="395" y="452"/>
      <point x="308" y="491"/>
      <point x="223" y="491" type="curve" smooth="yes"/>
      <point x="130" y="491"/>
      <point x="58" y="437"/>
      <point x="30" y="374" type="curve"/>
      <point x="154" y="320" type="line"/>
      <point x="180" y="394" type="line"/>
      <point x="187" y="397"/>
      <point x="198" y="397"/>
      <point x="209" y="397" type="curve" smooth="yes"/>
      <point x="254" y="397"/>
      <point x="274" y="381"/>
      <point x="274" y="367" type="curve" smooth="yes"/>
      <point x="274" y="288" type="line"/>
      <point x="165" y="285"/>
      <point x="29" y="246"/>
      <point x="29" y="129" type="curve" smooth="yes"/>
      <point x="29" y="54"/>
      <point x="81" y="-4"/>
      <point x="174" y="-4" type="curve" smooth="yes"/>
      <point x="220" y="-4"/>
      <point x="259" y="17"/>
      <point x="286" y="44" type="curve"/>
      <point x="300" y="15"/>
      <point x="326" y="-4"/>
      <point x="366" y="-4" type="curve" smooth="yes"/>
      <point x="407" y="-4"/>
      <point x="437" y="21"/>
      <point x="446" y="29" type="curve"/>
      <point x="428" y="85" type="line"/>
      <point x="426" y="85"/>
      <point x="420" y="83"/>
      <point x="413" y="83" type="curve" smooth="yes"/>
      <point x="404" y="83"/>
      <point x="395" y="87"/>
      <point x="395" y="105" type="curve" smooth="yes"/>
    </contour>
    <contour>
      <point x="198" y="92" type="curve" smooth="yes"/>
      <point x="167" y="92"/>
      <point x="153" y="115"/>
      <point x="153" y="138" type="curve" smooth="yes"/>
      <point x="153" y="190"/>
      <point x="224" y="202"/>
      <point x="274" y="204" type="curve"/>
      <point x="274" y="139" type="line"/>
      <point x="264" y="117"/>
      <point x="235" y="92"/>
    </contour>
    <contour>
      <point x="158" y="509" type="line"/>
      <point x="351" y="630" type="line"/>
      <point x="274" y="736" type="line"/>
      <point x="238" y="722" type="line"/>
      <point x="112" y="561" type="line"/>
    </contour>
  </outline>
</glyph>
<glyph name="atilde" format="1">
  <advance width="463"/>
  <unicode hex="00E3"/>
  <outline>
    <contour>
      <point x="278" y="646" type="line" name="hr00"/>
      <point x="263" y="650"/>
      <point x="217" y="690"/>
      <point x="164" y="690" type="curve" smooth="yes"/>
      <point x="93" y="690"/>
      <point x="56" y="636"/>
      <point x="46" y="608" type="curve"/>
      <point x="45" y="589" type="line"/>
      <point x="109" y="547" type="line"/>
      <point x="116" y="569"/>
      <point x="134" y="595"/>
      <point x="169" y="595" type="curve" smooth="yes"/>
      <point x="211" y="595"/>
      <point x="239" y="554"/>
      <point x="287" y="554" type="curve" smooth="yes" name="hr01"/>
      <point x="328" y="554"/>
      <point x="363" y="592"/>
      <point x="388" y="627" type="curve"/>
      <point x="314" y="697" type="line" name="hr02"/>
    </contour>
    <contour>
      <point x="395" y="330" type="line" smooth="yes"/>
      <point x="395" y="452"/>
      <point x="308" y="491"/>
      <point x="223" y="491" type="curve" smooth="yes"/>
      <point x="130" y="491"/>
      <point x="58" y="437"/>
      <point x="30" y="374" type="curve"/>
      <point x="154" y="320" type="line"/>
      <point x="180" y="394" type="line"/>
      <point x="187" y="397"/>
      <point x="198" y="397"/>
      <point x="209" y="397" type="curve" smooth="yes"/>
      <point x="254" y="397"/>
      <point x="274" y="381"/>
      <point x="274" y="367" type="curve" smooth="yes"/>
      <point x="274" y="288" type="line"/>
      <point x="165" y="285"/>
      <point x="29" y="246"/>
      <point x="29" y="129" type="curve" smooth="yes"/>
      <point x="29" y="54"/>
      <point x="81" y="-4"/>
      <point x="174" y="-4" type="curve" smooth="yes"/>
      <point x="220" y="-4"/>
      <point x="259" y="17"/>
      <point x="286" y="44" type="curve"/>
      <point x="300" y="15"/>
      <point x="326" y="-4"/>
      <point x="366" y="-4" type="curve" smooth="yes"/>
      <point x="407" y="-4"/>
      <point x="437" y="21"/>
      <point x="446" y="29" type="curve"/>
      <point x="428" y="85" type="line"/>
      <point x="426" y="85"/>
      <point x="420" y="83"/>
      <point x="413" y="83" type="curve" smooth="yes"/>
      <point x="404" y="83"/>
      <point x="395" y="87"/>
      <point x="395" y="105" type="curve" smooth="yes"/>
    </contour>
    <contour>
      <point x="198" y="92" type="curve" smooth="yes"/>
      <point x="167" y="92"/>
      <point x="153" y="115"/>
      <point x="153" y="138" type="curve" smooth="yes"/>
      <point x="153" y="190"/>
      <point x="224" y="202"/>
      <point x="274" y="204" type="curve"/>
      <point x="274" y="139" type="line"/>
      <point x="264" y="117"/>
      <point x="235" y="92"/>
    </contour>
  </outline>
</glyph>
<glyph name="ccedilla" format="1">
  <advance width="431"/>
  <unicode hex="00E7"/>
  <outline>
    <contour>
      <point x="409" y="52" type="curve" name="hr00"/>
      <point x="405" y="68"/>
      <point x="389" y="121"/>
      <point x="383" y="139" type="curve"/>
      <point x="367" y="125"/>
      <point x="328" y="91"/>
      <point x="271" y="91" type="curve" smooth="yes"/>
      <point x="189" y="91"/>
      <point x="155" y="160"/>
      <point x="155" y="238" type="curve" smooth="yes"/>
      <point x="155" y="335"/>
      <point x="191" y="397"/>
      <point x="252" y="397" type="curve"/>
      <point x="295" y="337" type="line"/>
      <point x="416" y="402" type="line"/>
      <point x="409" y="416"/>
      <point x="366" y="491"/>
      <point x="249" y="491" type="curve" smooth="yes"/>
      <point x="150" y="491"/>
      <point x="31" y="433"/>
      <point x="31" y="233" type="curve" smooth="yes"/>
      <point x="31" y="90"/>
      <point x="116" y="18"/>
      <point x="205" y="0" type="curve"/>
      <point x="184" y="-62" type="line"/>
      <point x="196" y="-78" type="line"/>
      <point x="244" y="-78"/>
      <point x="266" y="-94"/>
      <point x="266" y="-127" type="curve" smooth="yes"/>
      <point x="266" y="-166"/>
      <point x="219" y="-169"/>
      <point x="214" y="-169" type="curve"/>
      <point x="159" y="-129" type="line"/>
      <point x="125" y="-203" type="line"/>
      <point x="150" y="-213"/>
      <point x="187" y="-221"/>
      <point x="216" y="-221" type="curve" smooth="yes"/>
      <point x="297" y="-221"/>
      <point x="343" y="-179"/>
      <point x="343" y="-125" type="curve" smooth="yes"/>
      <point x="343" y="-76"/>
      <point x="314" y="-48"/>
      <point x="267" y="-38" type="curve"/>
      <point x="279" y="-3" type="line"/>
      <point x="332" y="2"/>
      <point x="378" y="21"/>
    </contour>
  </outline>
</glyph>
<glyph name="ecircumflex" format="1">
  <advance width="454"/>
  <unicode hex="00EA"/>
  <outline>
    <contour>
      <point x="108" y="529" type="line" name="hr00"/>
      <point x="185" y="529" type="line"/>
      <point x="252" y="581" type="line"/>
      <point x="319" y="529" type="line"/>
      <point x="397" y="529" type="line"/>
      <point x="403" y="540" type="line"/>
      <point x="269" y="700" type="line"/>
      <point x="236" y="700" type="line"/>
      <point x="103" y="541" type="line"/>
    </contour>
    <contour>
      <point x="253" y="491" type="curve" smooth="yes"/>
      <point x="146" y="491"/>
      <point x="30" y="415"/>
      <point x="30" y="239" type="curve" smooth="yes"/>
      <point x="30" y="74"/>
      <point x="143" y="-4"/>
      <point x="257" y="-4" type="curve" smooth="yes"/>
      <point x="339" y="-4"/>
      <point x="402" y="32"/>
      <point x="420" y="56" type="curve"/>
      <point x="397" y="143" type="line"/>
      <point x="373" y="120"/>
      <point x="338" y="91"/>
      <point x="277" y="91" type="curve" smooth="yes"/>
      <point x="196" y="91"/>
      <point x="164" y="138"/>
      <point x="156" y="198" type="curve"/>
      <point x="170" y="197"/>
      <point x="189" y="197"/>
      <point x="207" y="197" type="curve" smooth="yes"/>
      <point x="322" y="197"/>
      <point x="424" y="243"/>
      <point x="424" y="354" type="curve" smooth="yes"/>
      <point x="424" y="448"/>
      <point x="336" y="491"/>
    </contour>
    <contour>
      <point x="157" y="282" type="curve"/>
      <point x="162" y="344"/>
      <point x="206" y="396"/>
      <point x="255" y="396" type="curve" smooth="yes" name="hr01"/>
      <point x="282" y="396"/>
      <point x="301" y="380"/>
      <point x="301" y="350" type="curve" smooth="yes"/>
      <point x="301" y="297"/>
      <point x="241" y="281"/>
      <point x="190" y="281" type="curve" smooth="yes"/>
      <point x="180" y="281"/>
      <point x="164" y="281"/>
    </contour>
  </outline>
</glyph>
<glyph name="edieresis" format="1">
  <advance width="454"/>
  <unicode hex="00EB"/>
  <outline>
    <contour>
      <point x="102" y="634" type="curve" smooth="yes" name="hr00"/>
      <point x="102" y="600"/>
      <point x="129" y="572"/>
      <point x="164" y="572" type="curve" smooth="yes"/>
      <point x="198" y="572"/>
      <point x="226" y="600"/>
      <point x="226" y="634" type="curve" smooth="yes"/>
      <point x="226" y="669"/>
      <point x="198" y="696"/>
      <point x="164" y="696" type="curve" smooth="yes"/>
      <point x="129" y="696"/>
      <point x="102" y="669"/>
    </contour>
    <contour>
      <point x="263" y="634" type="curve" smooth="yes"/>
      <point x="263" y="600"/>
      <point x="291" y="572"/>
      <point x="325" y="572" type="curve" smooth="yes"/>
      <point x="360" y="572"/>
      <point x="387" y="600"/>
      <point x="387" y="634" type="curve" smooth="yes"/>
      <point x="387" y="669"/>
      <point x="360" y="696"/>
      <point x="325" y="696" type="curve" smooth="yes"/>
      <point x="291" y="696"/>
      <point x="263" y="669"/>
    </contour>
    <contour>
      <point x="253" y="491" type="curve" smooth="yes"/>
      <point x="146" y="491"/>
      <point x="30" y="415"/>
      <point x="30" y="239" type="curve" smooth="yes" name="hr01"/>
      <point x="30" y="74"/>
      <point x="143" y="-4"/>
      <point x="257" y="-4" type="curve" smooth="yes"/>
      <point x="339" y="-4"/>
      <point x="402" y="32"/>
      <point x="420" y="56" type="curve"/>
      <point x="397" y="143" type="line"/>
      <point x="373" y="120"/>
      <point x="338" y="91"/>
      <point x="277" y="91" type="curve" smooth="yes"/>
      <point x="196" y="91"/>
      <point x="164" y="138"/>
      <point x="156" y="198" type="curve"/>
      <point x="170" y="197"/>
      <point x="189" y="197"/>
      <point x="207" y="197" type="curve" smooth="yes"/>
      <point x="322" y="197"/>
      <point x="424" y="243"/>
      <point x="424" y="354" type="curve" smooth="yes"/>
      <point x="424" y="448"/>
      <point x="336" y="491"/>
    </contour>
    <contour>
      <point x="157" y="282" type="curve"/>
      <point x="162" y="344"/>
      <point x="206" y="396"/>
      <point x="255" y="396" type="curve" smooth="yes"/>
      <point x="282" y="396"/>
      <point x="301" y="380"/>
      <point x="301" y="350" type="curve" smooth="yes"/>
      <point x="301" y="297"/>
      <point x="241" y="281"/>
      <point x="190" y="281" type="curve" smooth="yes"/>
      <point x="180" y="281"/>
      <point x="164" y="281"/>
    </contour>
  </outline>
</glyph>
<glyph name="iacute" format="1">
  <advance width="288"/>
  <unicode hex="00ED"/>
  <outline>
    <contour>
      <point x="175" y="492" type="line" name="hr00"/>
      <point x="152" y="489"/>
      <point x="62" y="471"/>
      <point x="26" y="466" type="curve"/>
      <point x="37" y="398" type="line"/>
      <point x="88" y="398" type="line"/>
      <point x="88" y="77" type="line"/>
      <point x="32" y="64" type="line"/>
      <point x="43" y="0" type="line"/>
      <point x="264" y="0" type="line"/>
      <point x="264" y="64" type="line"/>
      <point x="209" y="75" type="line"/>
      <point x="209" y="456" type="line"/>
    </contour>
    <contour>
      <point x="72" y="509" type="line"/>
      <point x="265" y="630" type="line"/>
      <point x="188" y="736" type="line"/>
      <point x="152" y="722" type="line"/>
      <point x="26" y="561" type="line"/>
    </contour>
  </outline>
</glyph>
<glyph name="idieresis" format="1">
  <advance width="288"/>
  <unicode hex="00EF"/>
  <outline>
    <contour>
      <point x="-4" y="634" type="curve" smooth="yes" name="hr00"/>
      <point x="-4" y="600"/>
      <point x="23" y="572"/>
      <point x="58" y="572" type="curve" smooth="yes"/>
      <point x="93" y="572"/>
      <point x="120" y="600"/>
      <point x="120" y="634" type="curve" smooth="yes"/>
      <point x="120" y="669"/>
      <point x="93" y="696"/>
      <point x="58" y="696" type="curve" smooth="yes"/>
      <point x="23" y="696"/>
      <point x="-4" y="669"/>
    </contour>
    <contour>
      <point x="147" y="634" type="curve" smooth="yes"/>
      <point x="147" y="600"/>
      <point x="175" y="572"/>
      <point x="209" y="572" type="curve" smooth="yes" name="hr01"/>
      <point x="244" y="572"/>
      <point x="271" y="600"/>
      <point x="271" y="634" type="curve" smooth="yes" name="hr02"/>
      <point x="271" y="669"/>
      <point x="244" y="696"/>
      <point x="209" y="696" type="curve" smooth="yes" name="hr03"/>
      <point x="175" y="696"/>
      <point x="147" y="669"/>
    </contour>
    <contour>
      <point x="175" y="492" type="line"/>
      <point x="152" y="489"/>
      <point x="62" y="471"/>
      <point x="26" y="466" type="curve"/>
      <point x="37" y="398" type="line"/>
      <point x="88" y="398" type="line" name="hr05"/>
      <point x="88" y="77" type="line"/>
      <point x="32" y="64" type="line"/>
      <point x="43" y="0" type="line"/>
      <point x="264" y="0" type="line"/>
      <point x="264" y="64" type="line"/>
      <point x="209" y="75" type="line"/>
      <point x="209" y="456" type="line"/>
    </contour>
  </outline>
</glyph>
<glyph name="eth" format="1">
  <advance width="545"/>
  <unicode hex="00F0"/>
  <outline>
    <contour>
      <point x="133" y="615" type="line" name="hr00"/>
      <point x="152" y="607"/>
      <point x="177" y="597"/>
      <point x="203" y="582" type="curve"/>
      <point x="133" y="526" type="line"/>
      <point x="170" y="459" type="line"/>
      <point x="283" y="526" type="line"/>
      <point x="320" y="495"/>
      <point x="352" y="456"/>
      <point x="369" y="408" type="curve"/>
      <point x="342" y="433"/>
      <point x="299" y="455"/>
      <point x="236" y="455" type="curve" smooth="yes"/>
      <point x="112" y="455"/>
      <point x="29" y="356"/>
      <point x="29" y="218" type="curve" smooth="yes"/>
      <point x="29" y="99"/>
      <point x="117" y="-4"/>
      <point x="254" y="-4" type="curve" smooth="yes"/>
      <point x="470" y="-4"/>
      <point x="510" y="207"/>
      <point x="510" y="326" type="curve" smooth="yes"/>
      <point x="510" y="436"/>
      <point x="463" y="526"/>
      <point x="399" y="595" type="curve"/>
      <point x="462" y="633" type="line"/>
      <point x="396" y="735" type="line"/>
      <point x="313" y="669" type="line"/>
      <point x="270" y="700"/>
      <point x="224" y="722"/>
      <point x="185" y="736" type="curve"/>
    </contour>
    <contour>
      <point x="263" y="101" type="curve" smooth="yes"/>
      <point x="198" y="101"/>
      <point x="155" y="164"/>
      <point x="155" y="225" type="curve" smooth="yes"/>
      <point x="155" y="289"/>
      <point x="181" y="356"/>
      <point x="267" y="356" type="curve" smooth="yes"/>
      <point x="312" y="356"/>
      <point x="370" y="328"/>
      <point x="381" y="254" type="curve"/>
      <point x="372" y="155"/>
      <point x="334" y="101"/>
    </contour>
  </outline>
</glyph>
<glyph name="ograve" format="1">
  <advance width="499"/>
  <unicode hex="00F2"/>
  <outline>
    <contour>
      <point x="29" y="246" type="curve" smooth="yes" name="hr00"/>
      <point x="29" y="83"/>
      <point x="139" y="-4"/>
      <point x="249" y="-4" type="curve" smooth="yes"/>
      <point x="359" y="-4"/>
      <point x="470" y="83"/>
      <point x="470" y="246" type="curve" smooth="yes"/>
      <point x="470" y="408"/>
      <point x="359" y="491"/>
      <point x="249" y="491" type="curve" smooth="yes"/>
      <point x="139" y="491"/>
      <point x="29" y="408"/>
    </contour>
    <contour>
      <point x="153" y="240" type="curve" smooth="yes"/>
      <point x="153" y="353"/>
      <point x="197" y="397"/>
      <point x="249" y="397" type="curve" smooth="yes"/>
      <point x="302" y="397"/>
      <point x="346" y="353"/>
      <point x="346" y="240" type="curve" smooth="yes"/>
      <point x="346" y="128"/>
      <point x="302" y="90"/>
      <point x="249" y="90" type="curve" smooth="yes"/>
      <point x="197" y="90"/>
      <point x="153" y="128"/>
    </contour>
    <contour>
      <point x="310" y="509" type="line"/>
      <point x="117" y="630" type="line"/>
      <point x="194" y="736" type="line"/>
      <point x="230" y="722" type="line"/>
      <point x="356" y="561" type="line"/>
    </contour>
  </outline>
</glyph>
<glyph name="ocircumflex" format="1">
  <advance width="499"/>
  <unicode hex="00F4"/>
  <outline>
    <contour>
      <point x="101" y="529" type="line" name="hr00"/>
      <point x="178" y="529" type="line"/>
      <point x="245" y="581" type="line"/>
      <point x="312" y="529" type="line"/>
      <point x="390" y="529" type="line"/>
      <point x="396" y="540" type="line"/>
      <point x="262" y="700" type="line"/>
      <point x="229" y="700" type="line"/>
      <point x="96" y="541" type="line"/>
    </contour>
    <contour>
      <point x="29" y="246" type="curve" smooth="yes"/>
      <point x="29" y="83"/>
      <point x="139" y="-4"/>
      <point x="249" y="-4" type="curve" smooth="yes"/>
      <point x="359" y="-4"/>
      <point x="470" y="83"/>
      <point x="470" y="246" type="curve" smooth="yes"/>
      <point x="470" y="408"/>
      <point x="359" y="491"/>
      <point x="249" y="491" type="curve" smooth="yes"/>
      <point x="139" y="491"/>
      <point x="29" y="408"/>
    </contour>
    <contour>
      <point x="153" y="240" type="curve" smooth="yes"/>
      <point x="153" y="353"/>
      <point x="197" y="397"/>
      <point x="249" y="397" type="curve" smooth="yes" name="hr01"/>
      <point x="302" y="397"/>
      <point x="346" y="353"/>
      <point x="346" y="240" type="curve" smooth="yes"/>
      <point x="346" y="128"/>
      <point x="302" y="90"/>
      <point x="249" y="90" type="curve" smooth="yes"/>
      <point x="197" y="90"/>
      <point x="153" y="128"/>
    </contour>
  </outline>
</glyph>
<glyph name="otilde" format="1">
  <advance width="499"/>
  <unicode hex="00F5"/>
  <outline>
    <contour>
      <point x="326" y="646" type="line" name="hr00"/>
      <point x="311" y="650"/>
      <point x="265" y="690"/>
      <point x="212" y="690" type="curve" smooth="yes"/>
      <point x="141" y="690"/>
      <point x="104" y="636"/>
      <point x="94" y="608" type="curve"/>
      <point x="93" y="589" type="line"/>
      <point x="157" y="547" type="line"/>
      <point x="164" y="569"/>
      <point x="182" y="595"/>
      <point x="217" y="595" type="curve" smooth="yes"/>
      <point x="259" y="595"/>
      <point x="287" y="554"/>
      <point x="335" y="554" type="curve" smooth="yes" name="hr01"/>
      <point x="376" y="554"/>
      <point x="411" y="592"/>
      <point x="436" y="627" type="curve"/>
      <point x="362" y="697" type="line" name="hr02"/>
    </contour>
    <contour>
      <point x="29" y="246" type="curve" smooth="yes"/>
      <point x="29" y="83"/>
      <point x="139" y="-4"/>
      <point x="249" y="-4" type="curve" smooth="yes"/>
      <point x="359" y="-4"/>
      <point x="470" y="83"/>
      <point x="470" y="246" type="curve" smooth="yes"/>
      <point x="470" y="408"/>
      <point x="359" y="491"/>
      <point x="249" y="491" type="curve" smooth="yes"/>
      <point x="139" y="491"/>
      <point x="29" y="408"/>
    </contour>
    <contour>
      <point x="153" y="240" type="curve" smooth="yes"/>
      <point x="153" y="353"/>
      <point x="197" y="397"/>
      <point x="249" y="397" type="curve" smooth="yes"/>
      <point x="302" y="397"/>
      <point x="346" y="353"/>
      <point x="346" y="240" type="curve" smooth="yes"/>
      <point x="346" y="128"/>
      <point x="302" y="90"/>
      <point x="249" y="90" type="curve" smooth="yes"/>
      <point x="197" y="90"/>
      <point x="153" y="128"/>
    </contour>
  </outline>
</glyph>
<glyph name="odieresis" format="1">
  <advance width="499"/>
  <unicode hex="00F6"/>
  <outline>
    <contour>
      <point x="105" y="634" type="curve" smooth="yes" name="hr00"/>
      <point x="105" y="600"/>
      <point x="132" y="572"/>
      <point x="167" y="572" type="curve" smooth="yes"/>
      <point x="202" y="572"/>
      <point x="229" y="600"/>
      <point x="229" y="634" type="curve" smooth="yes"/>
      <point x="229" y="669"/>
      <point x="202" y="696"/>
      <point x="167" y="696" type="curve" smooth="yes"/>
      <point x="132" y="696"/>
      <point x="105" y="669"/>
    </contour>
    <contour>
      <point x="267" y="634" type="curve" smooth="yes"/>
      <point x="267" y="600"/>
      <point x="294" y="572"/>
      <point x="329" y="572" type="curve" smooth="yes"/>
      <point x="363" y="572"/>
      <point x="391" y="600"/>
      <point x="391" y="634" type="curve" smooth="yes"/>
      <point x="391" y="669"/>
      <point x="363" y="696"/>
      <point x="329" y="696" type="curve" smooth="yes"/>
      <point x="294" y="696"/>
      <point x="267" y="669"/>
    </contour>
    <contour>
      <point x="29" y="246" type="curve" smooth="yes" name="hr01"/>
      <point x="29" y="83"/>
      <point x="139" y="-4"/>
      <point x="249" y="-4" type="curve" smooth="yes"/>
      <point x="359" y="-4"/>
      <point x="470" y="83"/>
      <point x="470" y="246" type="curve" smooth="yes"/>
      <point x="470" y="408"/>
      <point x="359" y="491"/>
      <point x="249" y="491" type="curve" smooth="yes"/>
      <point x="139" y="491"/>
      <point x="29" y="408"/>
    </contour>
    <contour>
      <point x="153" y="240" type="curve" smooth="yes"/>
      <point x="153" y="353"/>
      <point x="197" y="397"/>
      <point x="249" y="397" type="curve" smooth="yes"/>
      <point x="302" y="397"/>
      <point x="346" y="353"/>
      <point x="346" y="240" type="curve" smooth="yes"/>
      <point x="346" y="128"/>
      <point x="302" y="90"/>
      <point x="249" y="90" type="curve" smooth="yes"/>
      <point x="197" y="90"/>
      <point x="153" y="128"/>
    </contour>
  </outline>
</glyph>
<glyph name="divide" format="1">
  <advance width="419"/>
  <unicode hex="00F7"/>
  <outline>
    <contour>
      <point x="136" y="84" type="curve" smooth="yes" name="hr00"/>
      <point x="136" y="47"/>
      <point x="166" y="17"/>
      <point x="203" y="17" type="curve" smooth="yes"/>
      <point x="240" y="17"/>
      <point x="269" y="47"/>
      <point x="269" y="84" type="curve" smooth="yes"/>
      <point x="269" y="121"/>
      <point x="240" y="150"/>
      <point x="203" y="150" type="curve" smooth="yes"/>
      <point x="166" y="150"/>
      <point x="136" y="121"/>
    </contour>
    <contour>
      <point x="136" y="405" type="curve" smooth="yes"/>
      <point x="136" y="369"/>
      <point x="166" y="338"/>
      <point x="203" y="338" type="curve" smooth="yes"/>
      <point x="240" y="338"/>
      <point x="269" y="369"/>
      <point x="269" y="405" type="curve" smooth="yes"/>
      <point x="269" y="442"/>
      <point x="240" y="471"/>
      <point x="203" y="471" type="curve" smooth="yes"/>
      <point x="166" y="471"/>
      <point x="136" y="442"/>
    </contour>
    <contour>
      <point x="32" y="194" type="line"/>
      <point x="387" y="194" type="line"/>
      <point x="387" y="294" type="line"/>
      <point x="32" y="294" type="line"/>
    </contour>
  </outline>
</glyph>
<glyph name="oslash" format="1">
  <advance width="499"/>
  <unicode hex="00F8"/>
  <outline>
    <contour>
      <point x="29" y="246" type="curve" smooth="yes" name="hr00"/>
      <point x="29" y="158"/>
      <point x="60" y="93"/>
      <point x="107" y="51" type="curve"/>
      <point x="49" y="-92" type="line"/>
      <point x="52" y="-105" type="line"/>
      <point x="167" y="-105" type="line"/>
      <point x="209" y="0" type="line"/>
      <point x="222" y="-3"/>
      <point x="236" y="-4"/>
      <point x="249" y="-4" type="curve" smooth="yes"/>
      <point x="359" y="-4"/>
      <point x="470" y="83"/>
      <point x="470" y="246" type="curve" smooth="yes"/>
      <point x="470" y="335"/>
      <point x="436" y="400"/>
      <point x="388" y="440" type="curve"/>
      <point x="442" y="572" type="line"/>
      <point x="443" y="585" type="line"/>
      <point x="325" y="585" type="line"/>
      <point x="285" y="488" type="line"/>
      <point x="273" y="490"/>
      <point x="261" y="491"/>
      <point x="249" y="491" type="curve" smooth="yes"/>
      <point x="139" y="491"/>
      <point x="29" y="408"/>
    </contour>
    <contour>
      <point x="346" y="240" type="curve" smooth="yes"/>
      <point x="346" y="128"/>
      <point x="302" y="90"/>
      <point x="249" y="90" type="curve"/>
      <point x="337" y="315" type="line"/>
      <point x="343" y="294"/>
      <point x="346" y="270"/>
    </contour>
    <contour>
      <point x="153" y="240" type="curve" smooth="yes"/>
      <point x="153" y="352"/>
      <point x="196" y="396"/>
      <point x="248" y="397" type="curve"/>
      <point x="159" y="178" type="line"/>
      <point x="155" y="195"/>
      <point x="153" y="216"/>
    </contour>
  </outline>
</glyph>
<glyph name="ucircumflex" format="1">
  <advance width="539"/>
  <unicode hex="00FB"/>
  <outline>
    <contour>
      <point x="117" y="529" type="line" name="hr00"/>
      <point x="194" y="529" type="line"/>
      <point x="261" y="581" type="line"/>
      <point x="328" y="529" type="line"/>
      <point x="406" y="529" type="line"/>
      <point x="412" y="540" type="line"/>
      <point x="278" y="700" type="line"/>
      <point x="245" y="700" type="line"/>
      <point x="112" y="541" type="line"/>
    </contour>
    <contour>
      <point x="345" y="401" type="line"/>
      <point x="345" y="144" type="line"/>
      <point x="334" y="117"/>
      <point x="300" y="92"/>
      <point x="264" y="92" type="curve" smooth="yes"/>
      <point x="223" y="92"/>
      <point x="196" y="117"/>
      <point x="196" y="169" type="curve" smooth="yes"/>
      <point x="196" y="454" type="line"/>
      <point x="161" y="492" type="line"/>
      <point x="13" y="465" type="line"/>
      <point x="24" y="398" type="line"/>
      <point x="75" y="398" type="line"/>
      <point x="75" y="146" type="line" smooth="yes"/>
      <point x="75" y="44"/>
      <point x="136" y="-4"/>
      <point x="230" y="-4" type="curve" smooth="yes"/>
      <point x="274" y="-4"/>
      <point x="325" y="11"/>
      <point x="356" y="44" type="curve"/>
      <point x="372" y="9"/>
      <point x="402" y="-4"/>
      <point x="437" y="-4" type="curve" smooth="yes"/>
      <point x="478" y="-4"/>
      <point x="507" y="20"/>
      <point x="515" y="29" type="curve"/>
      <point x="496" y="85" type="line"/>
      <point x="494" y="85"/>
      <point x="488" y="83"/>
      <point x="482" y="83" type="curve" smooth="yes"/>
      <point x="474" y="83"/>
      <point x="466" y="87"/>
      <point x="466" y="105" type="curve" smooth="yes"/>
      <point x="466" y="454" type="line"/>
      <point x="431" y="492" type="line"/>
      <point x="288" y="465" type="line"/>
      <point x="300" y="398" type="line"/>
    </contour>
  </outline>
</glyph>
<glyph name="udieresis" format="1">
  <advance width="539"/>
  <unicode hex="00FC"/>
  <outline>
    <contour>
      <point x="121" y="634" type="curve" smooth="yes" name="hr00"/>
      <point x="121" y="600"/>
      <point x="149" y="572"/>
      <point x="183" y="572" type="curve" smooth="yes"/>
      <point x="218" y="572"/>
      <point x="245" y="600"/>
      <point x="245" y="634" type="curve" smooth="yes"/>
      <point x="245" y="669"/>
      <point x="218" y="696"/>
      <point x="183" y="696" type="curve" smooth="yes"/>
      <point x="149" y="696"/>
      <point x="121" y="669"/>
    </contour>
    <contour>
      <point x="283" y="634" type="curve" smooth="yes"/>
      <point x="283" y="600"/>
      <point x="310" y="572"/>
      <point x="345" y="572" type="curve" smooth="yes" name="hr01"/>
      <point x="380" y="572"/>
      <point x="407" y="600"/>
      <point x="407" y="634" type="curve" smooth="yes" name="hr02"/>
      <point x="407" y="669"/>
      <point x="380" y="696"/>
      <point x="345" y="696" type="curve" smooth="yes" name="hr03"/>
      <point x="310" y="696"/>
      <point x="283" y="669"/>
    </contour>
    <contour>
      <point x="345" y="401" type="line" name="hr05"/>
      <point x="345" y="144" type="line"/>
      <point x="334" y="117"/>
      <point x="300" y="92"/>
      <point x="264" y="92" type="curve" smooth="yes"/>
      <point x="223" y="92"/>
      <point x="196" y="117"/>
      <point x="196" y="169" type="curve" smooth="yes"/>
      <point x="196" y="454" type="line"/>
      <point x="161" y="492" type="line"/>
      <point x="13" y="465" type="line"/>
      <point x="24" y="398" type="line"/>
      <point x="75" y="398" type="line"/>
      <point x="75" y="146" type="line" smooth="yes"/>
      <point x="75" y="44"/>
      <point x="136" y="-4"/>
      <point x="230" y="-4" type="curve" smooth="yes"/>
      <point x="274" y="-4"/>
      <point x="325" y="11"/>
      <point x="356" y="44" type="curve"/>
      <point x="372" y="9"/>
      <point x="402" y="-4"/>
      <point x="437" y="-4" type="curve" smooth="yes"/>
      <point x="478" y="-4"/>
      <point x="507" y="20"/>
      <point x="515" y="29" type="curve"/>
      <point x="496" y="85" type="line"/>
      <point x="494" y="85"/>
      <point x="488" y="83"/>
      <point x="482" y="83" type="curve" smooth="yes"/>
      <point x="474" y="83"/>
      <point x="466" y="87"/>
      <point x="466" y="105" type="curve" smooth="yes"/>
      <point x="466" y="454" type="line"/>
      <point x="431" y="492" type="line"/>
      <point x="288" y="465" type="line"/>
      <point x="300" y="398" type="line"/>
    </contour>
  </outline>
</glyph>
